M48
; DRILL file {KiCad 8.0.5} date 2024-12-10T18:52:17+0800
; FORMAT={-:-/ absolute / inch / decimal}
; #@! TF.CreationDate,2024-12-10T18:52:17+08:00
; #@! TF.GenerationSoftware,Kicad,Pcbnew,8.0.5
; #@! TF.FileFunction,Plated,1,2,PTH
FMAT,2
INCH
; #@! TA.AperFunction,Plated,PTH,ViaDrill
T1C0.0157
; #@! TA.AperFunction,Plated,PTH,ComponentDrill
T2C0.0394
; #@! TA.AperFunction,Plated,PTH,ComponentDrill
T3C0.0400
; #@! TA.AperFunction,Plated,PTH,ComponentDrill
T4C0.0512
; #@! TA.AperFunction,Plated,PTH,ComponentDrill
T5C0.0866
%
G90
G05
T1
X2.3453Y-4.1463
X2.5884Y-1.7339
X2.5884Y-2.4819
X2.5884Y-3.2299
X3.1307Y-1.6217
X3.1307Y-2.3697
X3.1307Y-3.1177
X3.1307Y-4.0341
X3.3364Y-1.5469
X3.3364Y-2.2949
X3.3364Y-3.0429
X3.3364Y-4.0341
X3.8788Y-2.0518
X3.8788Y-2.7998
X3.9349Y-1.3411
X3.9349Y-4.2959
X4.0845Y-1.3037
X4.0845Y-2.0518
X4.0845Y-2.7998
X4.739Y-1.4907
X4.739Y-2.2388
X4.739Y-2.9868
X4.7577Y-1.3598
X4.8138Y-1.5656
X4.8325Y-2.3136
X4.8325Y-3.0616
X4.8512Y-1.3598
X4.8512Y-1.4346
X4.9447Y-1.3598
X4.9447Y-1.4346
X5.0382Y-1.3598
X5.0382Y-1.4346
X5.1317Y-1.3598
X5.1317Y-1.4346
X5.2252Y-1.3598
X5.2252Y-1.4346
X5.3187Y-2.3136
X5.3187Y-3.0616
X5.3374Y-2.164
X5.5805Y-2.912
X5.5805Y-3.66
X5.992Y-2.2762
X5.992Y-2.351
X5.992Y-3.0242
X5.992Y-3.099
X5.992Y-3.7722
X5.992Y-3.847
X6.0855Y-2.2762
X6.0855Y-2.351
X6.0855Y-3.0242
X6.0855Y-3.099
X6.0855Y-3.7722
X6.0855Y-3.847
X6.179Y-2.2762
X6.179Y-2.351
X6.179Y-2.912
X6.179Y-3.0242
X6.179Y-3.099
X6.179Y-3.66
X6.179Y-3.7722
X6.179Y-3.847
T2
X2.8826Y-1.4211
X3.0794Y-1.4211
X5.6546Y-1.3965
X5.6546Y-1.9965
X5.7546Y-1.3965
X5.7546Y-1.9965
X5.8546Y-1.3965
X5.8546Y-1.9965
X5.9546Y-1.3965
X5.9546Y-1.9965
X6.0546Y-1.3965
X6.0546Y-1.9965
X6.1546Y-1.3965
X6.1546Y-1.9965
X6.2546Y-1.3965
X6.2546Y-1.9965
T3
X5.967Y-1.5215
X6.042Y-1.5215
X6.192Y-1.6465
X6.192Y-1.7465
X6.292Y-1.6465
X6.292Y-1.7465
T4
X2.8432Y-1.5195
X3.1188Y-1.5195
T5
X2.3601Y-1.412
X2.3601Y-3.9764
X5.4014Y-1.412
X6.2577Y-4.4307
M30
