M48
; DRILL file {KiCad 8.0.5} date 2024-12-10T18:52:17+0800
; FORMAT={-:-/ absolute / inch / decimal}
; #@! TF.CreationDate,2024-12-10T18:52:17+08:00
; #@! TF.GenerationSoftware,Kicad,Pcbnew,8.0.5
; #@! TF.FileFunction,NonPlated,1,2,NPTH
FMAT,2
INCH
; #@! TA.AperFunction,NonPlated,NPTH,ComponentDrill
T1C0.0670
; #@! TA.AperFunction,NonPlated,NPTH,ComponentDrill
T2C0.1181
; #@! TA.AperFunction,NonPlated,NPTH,ComponentDrill
T3C0.1890
%
G90
G05
T1
X1.8212Y-4.8717
X2.1962Y-4.6551
X2.5476Y-4.5015
X2.5963Y-2.0518
X2.5963Y-2.7998
X2.5963Y-3.5478
X2.9659Y-4.3894
X3.0294Y-2.0518
X3.0294Y-2.7998
X3.0294Y-3.5478
X3.3443Y-1.8648
X3.3443Y-2.6128
X3.3443Y-3.3608
X3.3443Y-4.3333
X3.7774Y-1.8648
X3.7774Y-2.6128
X3.7774Y-3.3608
X3.7774Y-4.3333
X4.0923Y-1.6217
X4.0923Y-2.3697
X4.0923Y-3.1177
X4.5254Y-1.6217
X4.5254Y-2.3697
X4.5254Y-3.1177
X4.8404Y-1.8648
X4.8404Y-2.6128
X4.8404Y-3.3608
X5.2734Y-1.8648
X5.2734Y-2.6128
X5.2734Y-3.3608
X5.5884Y-2.4819
X5.5884Y-3.2299
X5.5884Y-3.978
X6.0215Y-2.4819
X6.0215Y-3.2299
X6.0215Y-3.978
T2
X1.912Y-4.9897
X2.1258Y-4.9663
X2.6048Y-4.639
X2.616Y-2.1994
X2.616Y-2.9474
X2.616Y-3.6955
X2.8128Y-2.286
X2.8128Y-3.0341
X2.8128Y-3.7821
X2.8173Y-4.6717
X3.364Y-2.0124
X3.364Y-2.7604
X3.364Y-3.5085
X3.364Y-4.4809
X3.5609Y-2.099
X3.5609Y-2.847
X3.5609Y-3.5951
X3.5609Y-4.5675
X4.112Y-1.7693
X4.112Y-2.5173
X4.112Y-3.2654
X4.3089Y-1.8559
X4.3089Y-2.6039
X4.3089Y-3.352
X4.8601Y-2.0124
X4.8601Y-2.7604
X4.8601Y-3.5085
X5.0569Y-2.099
X5.0569Y-2.847
X5.0569Y-3.5951
X5.6081Y-2.6295
X5.6081Y-3.3776
X5.6081Y-4.1256
X5.8049Y-2.7161
X5.8049Y-3.4642
X5.8049Y-4.2122
T3
X2.0087Y-4.7634
X2.7567Y-4.4455
X2.8128Y-2.0518
X2.8128Y-2.7998
X2.8128Y-3.5478
X3.5609Y-1.8648
X3.5609Y-2.6128
X3.5609Y-3.3608
X3.5609Y-4.3333
X4.3089Y-1.6217
X4.3089Y-2.3697
X4.3089Y-3.1177
X5.0569Y-1.8648
X5.0569Y-2.6128
X5.0569Y-3.3608
X5.8049Y-2.4819
X5.8049Y-3.2299
X5.8049Y-3.978
M30
