%TF.GenerationSoftware,KiCad,Pcbnew,8.0.5*%
%TF.CreationDate,2024-12-10T18:52:19+08:00*%
%TF.ProjectId,pcb-right,7063622d-7269-4676-9874-2e6b69636164,0.32*%
%TF.SameCoordinates,Original*%
%TF.FileFunction,Legend,Top*%
%TF.FilePolarity,Positive*%
%FSLAX46Y46*%
G04 Gerber Fmt 4.6, Leading zero omitted, Abs format (unit mm)*
G04 Created by KiCad (PCBNEW 8.0.5) date 2024-12-10 18:52:19*
%MOMM*%
%LPD*%
G01*
G04 APERTURE LIST*
G04 Aperture macros list*
%AMRoundRect*
0 Rectangle with rounded corners*
0 $1 Rounding radius*
0 $2 $3 $4 $5 $6 $7 $8 $9 X,Y pos of 4 corners*
0 Add a 4 corners polygon primitive as box body*
4,1,4,$2,$3,$4,$5,$6,$7,$8,$9,$2,$3,0*
0 Add four circle primitives for the rounded corners*
1,1,$1+$1,$2,$3*
1,1,$1+$1,$4,$5*
1,1,$1+$1,$6,$7*
1,1,$1+$1,$8,$9*
0 Add four rect primitives between the rounded corners*
20,1,$1+$1,$2,$3,$4,$5,0*
20,1,$1+$1,$4,$5,$6,$7,0*
20,1,$1+$1,$6,$7,$8,$9,0*
20,1,$1+$1,$8,$9,$2,$3,0*%
G04 Aperture macros list end*
%ADD10C,0.000000*%
%ADD11C,0.150000*%
%ADD12C,0.250000*%
%ADD13C,0.120000*%
%ADD14C,1.701800*%
%ADD15C,3.000000*%
%ADD16C,3.429000*%
%ADD17C,3.800000*%
%ADD18C,2.100000*%
%ADD19RoundRect,0.250000X-1.500000X0.250000X-1.500000X-0.250000X1.500000X-0.250000X1.500000X0.250000X0*%
%ADD20RoundRect,0.250001X-1.449999X0.499999X-1.449999X-0.499999X1.449999X-0.499999X1.449999X0.499999X0*%
%ADD21O,1.800000X2.750000*%
%ADD22C,1.397000*%
G04 APERTURE END LIST*
D10*
G36*
X134995625Y-109733750D02*
G01*
X134717813Y-109733750D01*
X134717813Y-109455937D01*
X134995625Y-109455937D01*
X134995625Y-109733750D01*
G37*
G36*
X129439375Y-108622500D02*
G01*
X129161563Y-108622500D01*
X129161563Y-108344687D01*
X129439375Y-108344687D01*
X129439375Y-108622500D01*
G37*
G36*
X129439375Y-110011562D02*
G01*
X129161563Y-110011562D01*
X129161563Y-109733750D01*
X129439375Y-109733750D01*
X129439375Y-110011562D01*
G37*
G36*
X131106251Y-112789687D02*
G01*
X130828438Y-112789687D01*
X130828438Y-112511875D01*
X131106251Y-112511875D01*
X131106251Y-112789687D01*
G37*
G36*
X132217500Y-108900312D02*
G01*
X131939688Y-108900312D01*
X131939688Y-108622500D01*
X132217500Y-108622500D01*
X132217500Y-108900312D01*
G37*
G36*
X130550625Y-110567188D02*
G01*
X130272813Y-110567188D01*
X130272813Y-110289375D01*
X130550625Y-110289375D01*
X130550625Y-110567188D01*
G37*
G36*
X130550625Y-113345312D02*
G01*
X130272813Y-113345312D01*
X130272813Y-113067500D01*
X130550625Y-113067500D01*
X130550625Y-113345312D01*
G37*
D11*
X104122187Y-113416874D02*
X126078437Y-113416874D01*
D10*
G36*
X133884375Y-109733750D02*
G01*
X133606563Y-109733750D01*
X133606563Y-109455937D01*
X133884375Y-109455937D01*
X133884375Y-109733750D01*
G37*
G36*
X129717188Y-110567188D02*
G01*
X129439375Y-110567188D01*
X129439375Y-110289375D01*
X129717188Y-110289375D01*
X129717188Y-110567188D01*
G37*
G36*
X130550625Y-108344687D02*
G01*
X130272813Y-108344687D01*
X130272813Y-108066875D01*
X130550625Y-108066875D01*
X130550625Y-108344687D01*
G37*
G36*
X131384063Y-107511250D02*
G01*
X131106251Y-107511250D01*
X131106251Y-107233437D01*
X131384063Y-107233437D01*
X131384063Y-107511250D01*
G37*
G36*
X131384063Y-110011562D02*
G01*
X131106251Y-110011562D01*
X131106251Y-109733750D01*
X131384063Y-109733750D01*
X131384063Y-110011562D01*
G37*
G36*
X130272813Y-112789687D02*
G01*
X129995000Y-112789687D01*
X129995000Y-112511875D01*
X130272813Y-112511875D01*
X130272813Y-112789687D01*
G37*
G36*
X134995625Y-113900937D02*
G01*
X134717813Y-113900937D01*
X134717813Y-113623125D01*
X134995625Y-113623125D01*
X134995625Y-113900937D01*
G37*
G36*
X129717188Y-113345312D02*
G01*
X129439375Y-113345312D01*
X129439375Y-113067500D01*
X129717188Y-113067500D01*
X129717188Y-113345312D01*
G37*
G36*
X67270017Y-37526801D02*
G01*
X66912180Y-37526801D01*
X65644416Y-34275595D01*
X66002253Y-34275595D01*
X67270017Y-37526801D01*
G37*
G36*
X129717188Y-109733750D02*
G01*
X129439375Y-109733750D01*
X129439375Y-109455937D01*
X129717188Y-109455937D01*
X129717188Y-109733750D01*
G37*
G36*
X130550625Y-111400625D02*
G01*
X130272813Y-111400625D01*
X130272813Y-111122812D01*
X130550625Y-111122812D01*
X130550625Y-111400625D01*
G37*
G36*
X133328750Y-112789687D02*
G01*
X133050938Y-112789687D01*
X133050938Y-112511875D01*
X133328750Y-112511875D01*
X133328750Y-112789687D01*
G37*
G36*
X128883750Y-108344687D02*
G01*
X126939063Y-108344687D01*
X126939063Y-108052984D01*
X127230766Y-108052984D01*
X128592047Y-108052984D01*
X128592047Y-106691703D01*
X127230766Y-106691703D01*
X127230766Y-108052984D01*
X126939063Y-108052984D01*
X126939063Y-106691703D01*
X126939063Y-106400000D01*
X128883750Y-106400000D01*
X128883750Y-108344687D01*
G37*
G36*
X131661875Y-107789062D02*
G01*
X131384063Y-107789062D01*
X131384063Y-107511250D01*
X131661875Y-107511250D01*
X131661875Y-107789062D01*
G37*
G36*
X131661875Y-111400625D02*
G01*
X131384063Y-111400625D01*
X131384063Y-111122812D01*
X131661875Y-111122812D01*
X131661875Y-111400625D01*
G37*
G36*
X131106251Y-114178750D02*
G01*
X130828438Y-114178750D01*
X130828438Y-113900937D01*
X131106251Y-113900937D01*
X131106251Y-114178750D01*
G37*
G36*
X131939688Y-112234062D02*
G01*
X131661875Y-112234062D01*
X131661875Y-111956250D01*
X131939688Y-111956250D01*
X131939688Y-112234062D01*
G37*
G36*
X130272813Y-107511250D02*
G01*
X129995000Y-107511250D01*
X129995000Y-107233437D01*
X130272813Y-107233437D01*
X130272813Y-107511250D01*
G37*
G36*
X129161563Y-108900312D02*
G01*
X128883750Y-108900312D01*
X128883750Y-108622500D01*
X129161563Y-108622500D01*
X129161563Y-108900312D01*
G37*
G36*
X132495313Y-109733750D02*
G01*
X132217500Y-109733750D01*
X132217500Y-109455937D01*
X132495313Y-109455937D01*
X132495313Y-109733750D01*
G37*
G36*
X130272813Y-113345312D02*
G01*
X129995000Y-113345312D01*
X129995000Y-113067500D01*
X130272813Y-113067500D01*
X130272813Y-113345312D01*
G37*
G36*
X128605938Y-111956250D02*
G01*
X128328125Y-111956250D01*
X128328125Y-111678437D01*
X128605938Y-111678437D01*
X128605938Y-111956250D01*
G37*
G36*
X133606563Y-113345312D02*
G01*
X133328750Y-113345312D01*
X133328750Y-113067500D01*
X133606563Y-113067500D01*
X133606563Y-113345312D01*
G37*
G36*
X134440000Y-109455937D02*
G01*
X134162188Y-109455937D01*
X134162188Y-109178125D01*
X134440000Y-109178125D01*
X134440000Y-109455937D01*
G37*
G36*
X131661875Y-109455937D02*
G01*
X131384063Y-109455937D01*
X131384063Y-109178125D01*
X131661875Y-109178125D01*
X131661875Y-109455937D01*
G37*
G36*
X131939688Y-107789062D02*
G01*
X131661875Y-107789062D01*
X131661875Y-107511250D01*
X131939688Y-107511250D01*
X131939688Y-107789062D01*
G37*
D11*
X104122187Y-113416874D02*
X104122187Y-101416874D01*
D10*
G36*
X131661875Y-114456562D02*
G01*
X131384063Y-114456562D01*
X131384063Y-114178750D01*
X131661875Y-114178750D01*
X131661875Y-114456562D01*
G37*
G36*
X129717188Y-108622500D02*
G01*
X129439375Y-108622500D01*
X129439375Y-108344687D01*
X129717188Y-108344687D01*
X129717188Y-108622500D01*
G37*
G36*
X134717813Y-108900312D02*
G01*
X134440000Y-108900312D01*
X134440000Y-108622500D01*
X134717813Y-108622500D01*
X134717813Y-108900312D01*
G37*
G36*
X128883750Y-108900312D02*
G01*
X128605938Y-108900312D01*
X128605938Y-108622500D01*
X128883750Y-108622500D01*
X128883750Y-108900312D01*
G37*
G36*
X127216875Y-110845000D02*
G01*
X126939063Y-110845000D01*
X126939063Y-110567188D01*
X127216875Y-110567188D01*
X127216875Y-110845000D01*
G37*
G36*
X133606563Y-111956250D02*
G01*
X133328750Y-111956250D01*
X133328750Y-111678437D01*
X133606563Y-111678437D01*
X133606563Y-111956250D01*
G37*
G36*
X130272813Y-112511875D02*
G01*
X129995000Y-112511875D01*
X129995000Y-112234062D01*
X130272813Y-112234062D01*
X130272813Y-112511875D01*
G37*
G36*
X129439375Y-108344687D02*
G01*
X129161563Y-108344687D01*
X129161563Y-108066875D01*
X129439375Y-108066875D01*
X129439375Y-108344687D01*
G37*
G36*
X129439375Y-113900937D02*
G01*
X129161563Y-113900937D01*
X129161563Y-113623125D01*
X129439375Y-113623125D01*
X129439375Y-113900937D01*
G37*
G36*
X133050938Y-113623125D02*
G01*
X132773125Y-113623125D01*
X132773125Y-113345312D01*
X133050938Y-113345312D01*
X133050938Y-113623125D01*
G37*
G36*
X129995000Y-107233437D02*
G01*
X129717188Y-107233437D01*
X129717188Y-106955625D01*
X129995000Y-106955625D01*
X129995000Y-107233437D01*
G37*
G36*
X131384063Y-108622500D02*
G01*
X131106251Y-108622500D01*
X131106251Y-108344687D01*
X131384063Y-108344687D01*
X131384063Y-108622500D01*
G37*
G36*
X133884375Y-111956250D02*
G01*
X133606563Y-111956250D01*
X133606563Y-111678437D01*
X133884375Y-111678437D01*
X133884375Y-111956250D01*
G37*
G36*
X127216875Y-109178125D02*
G01*
X126939063Y-109178125D01*
X126939063Y-108900312D01*
X127216875Y-108900312D01*
X127216875Y-109178125D01*
G37*
G36*
X131939688Y-107511250D02*
G01*
X131661875Y-107511250D01*
X131661875Y-107233437D01*
X131939688Y-107233437D01*
X131939688Y-107511250D01*
G37*
G36*
X130272813Y-107233437D02*
G01*
X129995000Y-107233437D01*
X129995000Y-106955625D01*
X130272813Y-106955625D01*
X130272813Y-107233437D01*
G37*
G36*
X132217500Y-112511875D02*
G01*
X131939688Y-112511875D01*
X131939688Y-112234062D01*
X132217500Y-112234062D01*
X132217500Y-112511875D01*
G37*
G36*
X59387885Y-91828558D02*
G01*
X59385706Y-91842367D01*
X59383861Y-91855840D01*
X59382351Y-91868979D01*
X59381175Y-91881782D01*
X59380335Y-91894249D01*
X59379830Y-91906381D01*
X59379662Y-91918178D01*
X59380256Y-91950381D01*
X59382039Y-91981689D01*
X59385010Y-92012103D01*
X59389169Y-92041623D01*
X59394516Y-92070248D01*
X59401051Y-92097978D01*
X59408775Y-92124815D01*
X59417686Y-92150756D01*
X59427785Y-92175804D01*
X59439072Y-92199956D01*
X59451547Y-92223214D01*
X59465209Y-92245578D01*
X59480059Y-92267047D01*
X59496096Y-92287621D01*
X59513321Y-92307301D01*
X59531733Y-92326086D01*
X59551267Y-92343850D01*
X59571850Y-92360469D01*
X59593480Y-92375941D01*
X59616159Y-92390267D01*
X59639885Y-92403447D01*
X59664660Y-92415481D01*
X59690483Y-92426369D01*
X59717354Y-92436111D01*
X59745274Y-92444706D01*
X59774242Y-92452156D01*
X59804258Y-92458459D01*
X59835322Y-92463617D01*
X59867435Y-92467628D01*
X59900597Y-92470493D01*
X59934807Y-92472212D01*
X59970065Y-92472785D01*
X60896791Y-92472785D01*
X60896791Y-92920055D01*
X58986081Y-92920055D01*
X58986081Y-92494257D01*
X59265173Y-92494257D01*
X59246681Y-92481894D01*
X59228776Y-92468958D01*
X59211459Y-92455450D01*
X59194728Y-92441368D01*
X59178585Y-92426713D01*
X59163028Y-92411485D01*
X59148059Y-92395683D01*
X59133676Y-92379309D01*
X59119881Y-92362362D01*
X59106673Y-92344842D01*
X59094051Y-92326749D01*
X59082017Y-92308082D01*
X59070570Y-92288843D01*
X59059710Y-92269030D01*
X59049437Y-92248645D01*
X59039750Y-92227686D01*
X59030651Y-92206155D01*
X59022139Y-92184050D01*
X59014214Y-92161372D01*
X59006876Y-92138122D01*
X59000125Y-92114298D01*
X58993962Y-92089901D01*
X58983395Y-92039388D01*
X58975176Y-91986583D01*
X58969306Y-91931486D01*
X58965784Y-91874096D01*
X58964610Y-91814415D01*
X59390398Y-91814415D01*
X59387885Y-91828558D01*
G37*
G36*
X134440000Y-107789062D02*
G01*
X133606563Y-107789062D01*
X133606563Y-106955625D01*
X134440000Y-106955625D01*
X134440000Y-107789062D01*
G37*
G36*
X128328125Y-111400625D02*
G01*
X128050313Y-111400625D01*
X128050313Y-111122812D01*
X128328125Y-111122812D01*
X128328125Y-111400625D01*
G37*
G36*
X129717188Y-108900312D02*
G01*
X129439375Y-108900312D01*
X129439375Y-108622500D01*
X129717188Y-108622500D01*
X129717188Y-108900312D01*
G37*
G36*
X133328750Y-111678437D02*
G01*
X133050938Y-111678437D01*
X133050938Y-111400625D01*
X133328750Y-111400625D01*
X133328750Y-111678437D01*
G37*
G36*
X133050938Y-109733750D02*
G01*
X132773125Y-109733750D01*
X132773125Y-109455937D01*
X133050938Y-109455937D01*
X133050938Y-109733750D01*
G37*
G36*
X130550625Y-108622500D02*
G01*
X130272813Y-108622500D01*
X130272813Y-108344687D01*
X130550625Y-108344687D01*
X130550625Y-108622500D01*
G37*
G36*
X133884375Y-112789687D02*
G01*
X133606563Y-112789687D01*
X133606563Y-112511875D01*
X133884375Y-112511875D01*
X133884375Y-112789687D01*
G37*
G36*
X132773125Y-112511875D02*
G01*
X132495313Y-112511875D01*
X132495313Y-112234062D01*
X132773125Y-112234062D01*
X132773125Y-112511875D01*
G37*
G36*
X129995000Y-112234062D02*
G01*
X129717188Y-112234062D01*
X129717188Y-111956250D01*
X129995000Y-111956250D01*
X129995000Y-112234062D01*
G37*
G36*
X130550625Y-106955625D02*
G01*
X130272813Y-106955625D01*
X130272813Y-106677812D01*
X130550625Y-106677812D01*
X130550625Y-106955625D01*
G37*
G36*
X127772500Y-111122812D02*
G01*
X127494688Y-111122812D01*
X127494688Y-110845000D01*
X127772500Y-110845000D01*
X127772500Y-111122812D01*
G37*
G36*
X131939688Y-113623125D02*
G01*
X131661875Y-113623125D01*
X131661875Y-113345312D01*
X131939688Y-113345312D01*
X131939688Y-113623125D01*
G37*
G36*
X131106251Y-111678437D02*
G01*
X130828438Y-111678437D01*
X130828438Y-111400625D01*
X131106251Y-111400625D01*
X131106251Y-111678437D01*
G37*
G36*
X130828438Y-106677812D02*
G01*
X130550625Y-106677812D01*
X130550625Y-106400000D01*
X130828438Y-106400000D01*
X130828438Y-106677812D01*
G37*
G36*
X133328750Y-108900312D02*
G01*
X133050938Y-108900312D01*
X133050938Y-108622500D01*
X133328750Y-108622500D01*
X133328750Y-108900312D01*
G37*
G36*
X129717188Y-113067500D02*
G01*
X129439375Y-113067500D01*
X129439375Y-112789687D01*
X129717188Y-112789687D01*
X129717188Y-113067500D01*
G37*
G36*
X131661875Y-113623125D02*
G01*
X131384063Y-113623125D01*
X131384063Y-113345312D01*
X131661875Y-113345312D01*
X131661875Y-113623125D01*
G37*
G36*
X129717188Y-112511875D02*
G01*
X129439375Y-112511875D01*
X129439375Y-112234062D01*
X129717188Y-112234062D01*
X129717188Y-112511875D01*
G37*
G36*
X131661875Y-108344687D02*
G01*
X131384063Y-108344687D01*
X131384063Y-108066875D01*
X131661875Y-108066875D01*
X131661875Y-108344687D01*
G37*
G36*
X134162188Y-113623125D02*
G01*
X133884375Y-113623125D01*
X133884375Y-113345312D01*
X134162188Y-113345312D01*
X134162188Y-113623125D01*
G37*
G36*
X132495313Y-108066875D02*
G01*
X132217500Y-108066875D01*
X132217500Y-107789062D01*
X132495313Y-107789062D01*
X132495313Y-108066875D01*
G37*
G36*
X128328125Y-111122812D02*
G01*
X128050313Y-111122812D01*
X128050313Y-110845000D01*
X128328125Y-110845000D01*
X128328125Y-111122812D01*
G37*
G36*
X130550625Y-114456562D02*
G01*
X130272813Y-114456562D01*
X130272813Y-114178750D01*
X130550625Y-114178750D01*
X130550625Y-114456562D01*
G37*
G36*
X131384063Y-113623125D02*
G01*
X131106251Y-113623125D01*
X131106251Y-113345312D01*
X131384063Y-113345312D01*
X131384063Y-113623125D01*
G37*
G36*
X134717813Y-109455937D02*
G01*
X134440000Y-109455937D01*
X134440000Y-109178125D01*
X134717813Y-109178125D01*
X134717813Y-109455937D01*
G37*
G36*
X128605938Y-110567188D02*
G01*
X128328125Y-110567188D01*
X128328125Y-110289375D01*
X128605938Y-110289375D01*
X128605938Y-110567188D01*
G37*
G36*
X134162188Y-111400625D02*
G01*
X133884375Y-111400625D01*
X133884375Y-111122812D01*
X134162188Y-111122812D01*
X134162188Y-111400625D01*
G37*
G36*
X132495313Y-111122812D02*
G01*
X132217500Y-111122812D01*
X132217500Y-110845000D01*
X132495313Y-110845000D01*
X132495313Y-111122812D01*
G37*
G36*
X131939688Y-106955625D02*
G01*
X131661875Y-106955625D01*
X131661875Y-106677812D01*
X131939688Y-106677812D01*
X131939688Y-106955625D01*
G37*
D11*
X104122187Y-101416874D02*
X134122187Y-101416874D01*
D10*
G36*
X133328750Y-109733750D02*
G01*
X133050938Y-109733750D01*
X133050938Y-109455937D01*
X133328750Y-109455937D01*
X133328750Y-109733750D01*
G37*
G36*
X132217500Y-110845000D02*
G01*
X131939688Y-110845000D01*
X131939688Y-110567188D01*
X132217500Y-110567188D01*
X132217500Y-110845000D01*
G37*
G36*
X129161563Y-111678437D02*
G01*
X128883750Y-111678437D01*
X128883750Y-111400625D01*
X129161563Y-111400625D01*
X129161563Y-111678437D01*
G37*
G36*
X128883750Y-112234062D02*
G01*
X128605938Y-112234062D01*
X128605938Y-111956250D01*
X128883750Y-111956250D01*
X128883750Y-112234062D01*
G37*
G36*
X131939688Y-106677812D02*
G01*
X131661875Y-106677812D01*
X131661875Y-106400000D01*
X131939688Y-106400000D01*
X131939688Y-106677812D01*
G37*
G36*
X134440000Y-110289375D02*
G01*
X134162188Y-110289375D01*
X134162188Y-110011562D01*
X134440000Y-110011562D01*
X134440000Y-110289375D01*
G37*
G36*
X131106251Y-110289375D02*
G01*
X130828438Y-110289375D01*
X130828438Y-110011562D01*
X131106251Y-110011562D01*
X131106251Y-110289375D01*
G37*
G36*
X131939688Y-108622500D02*
G01*
X131661875Y-108622500D01*
X131661875Y-108344687D01*
X131939688Y-108344687D01*
X131939688Y-108622500D01*
G37*
G36*
X127216875Y-110289375D02*
G01*
X126939063Y-110289375D01*
X126939063Y-110011562D01*
X127216875Y-110011562D01*
X127216875Y-110289375D01*
G37*
G36*
X133050938Y-114178750D02*
G01*
X132773125Y-114178750D01*
X132773125Y-113900937D01*
X133050938Y-113900937D01*
X133050938Y-114178750D01*
G37*
G36*
X134717813Y-113345312D02*
G01*
X134440000Y-113345312D01*
X134440000Y-113067500D01*
X134717813Y-113067500D01*
X134717813Y-113345312D01*
G37*
G36*
X127216875Y-111122812D02*
G01*
X126939063Y-111122812D01*
X126939063Y-110845000D01*
X127216875Y-110845000D01*
X127216875Y-111122812D01*
G37*
G36*
X131939688Y-111956250D02*
G01*
X131661875Y-111956250D01*
X131661875Y-111678437D01*
X131939688Y-111678437D01*
X131939688Y-111956250D01*
G37*
G36*
X130550625Y-108066875D02*
G01*
X130272813Y-108066875D01*
X130272813Y-107789062D01*
X130550625Y-107789062D01*
X130550625Y-108066875D01*
G37*
G36*
X130828438Y-113067500D02*
G01*
X130550625Y-113067500D01*
X130550625Y-112789687D01*
X130828438Y-112789687D01*
X130828438Y-113067500D01*
G37*
G36*
X132495313Y-114456562D02*
G01*
X132217500Y-114456562D01*
X132217500Y-114178750D01*
X132495313Y-114178750D01*
X132495313Y-114456562D01*
G37*
G36*
X128883750Y-109455937D02*
G01*
X128605938Y-109455937D01*
X128605938Y-109178125D01*
X128883750Y-109178125D01*
X128883750Y-109455937D01*
G37*
G36*
X127216875Y-111678437D02*
G01*
X126939063Y-111678437D01*
X126939063Y-111400625D01*
X127216875Y-111400625D01*
X127216875Y-111678437D01*
G37*
G36*
X132495313Y-107511250D02*
G01*
X132217500Y-107511250D01*
X132217500Y-107233437D01*
X132495313Y-107233437D01*
X132495313Y-107511250D01*
G37*
G36*
X128050313Y-111956250D02*
G01*
X127772500Y-111956250D01*
X127772500Y-111678437D01*
X128050313Y-111678437D01*
X128050313Y-111956250D01*
G37*
G36*
X134162188Y-114178750D02*
G01*
X133884375Y-114178750D01*
X133884375Y-113900937D01*
X134162188Y-113900937D01*
X134162188Y-114178750D01*
G37*
G36*
X127772500Y-110567188D02*
G01*
X127494688Y-110567188D01*
X127494688Y-110289375D01*
X127772500Y-110289375D01*
X127772500Y-110567188D01*
G37*
G36*
X133050938Y-112234062D02*
G01*
X132773125Y-112234062D01*
X132773125Y-111956250D01*
X133050938Y-111956250D01*
X133050938Y-112234062D01*
G37*
G36*
X134162188Y-112234062D02*
G01*
X133884375Y-112234062D01*
X133884375Y-111956250D01*
X134162188Y-111956250D01*
X134162188Y-112234062D01*
G37*
G36*
X131384063Y-109178125D02*
G01*
X131106251Y-109178125D01*
X131106251Y-108900312D01*
X131384063Y-108900312D01*
X131384063Y-109178125D01*
G37*
G36*
X128050313Y-108900312D02*
G01*
X127772500Y-108900312D01*
X127772500Y-108622500D01*
X128050313Y-108622500D01*
X128050313Y-108900312D01*
G37*
G36*
X132495313Y-107789062D02*
G01*
X132217500Y-107789062D01*
X132217500Y-107511250D01*
X132495313Y-107511250D01*
X132495313Y-107789062D01*
G37*
G36*
X129717188Y-107511250D02*
G01*
X129439375Y-107511250D01*
X129439375Y-107233437D01*
X129717188Y-107233437D01*
X129717188Y-107511250D01*
G37*
G36*
X128328125Y-110289375D02*
G01*
X128050313Y-110289375D01*
X128050313Y-110011562D01*
X128328125Y-110011562D01*
X128328125Y-110289375D01*
G37*
G36*
X131939688Y-110011562D02*
G01*
X131661875Y-110011562D01*
X131661875Y-109733750D01*
X131939688Y-109733750D01*
X131939688Y-110011562D01*
G37*
G36*
X132773125Y-114178750D02*
G01*
X132495313Y-114178750D01*
X132495313Y-113900937D01*
X132773125Y-113900937D01*
X132773125Y-114178750D01*
G37*
G36*
X129439375Y-112789687D02*
G01*
X129161563Y-112789687D01*
X129161563Y-112511875D01*
X129439375Y-112511875D01*
X129439375Y-112789687D01*
G37*
G36*
X131106251Y-107511250D02*
G01*
X130828438Y-107511250D01*
X130828438Y-107233437D01*
X131106251Y-107233437D01*
X131106251Y-107511250D01*
G37*
G36*
X134162188Y-112511875D02*
G01*
X133884375Y-112511875D01*
X133884375Y-112234062D01*
X134162188Y-112234062D01*
X134162188Y-112511875D01*
G37*
G36*
X128328125Y-107789062D02*
G01*
X127494688Y-107789062D01*
X127494688Y-106955625D01*
X128328125Y-106955625D01*
X128328125Y-107789062D01*
G37*
G36*
X129995000Y-112511875D02*
G01*
X129717188Y-112511875D01*
X129717188Y-112234062D01*
X129995000Y-112234062D01*
X129995000Y-112511875D01*
G37*
G36*
X131939688Y-112511875D02*
G01*
X131661875Y-112511875D01*
X131661875Y-112234062D01*
X131939688Y-112234062D01*
X131939688Y-112511875D01*
G37*
G36*
X133884375Y-112511875D02*
G01*
X133606563Y-112511875D01*
X133606563Y-112234062D01*
X133884375Y-112234062D01*
X133884375Y-112511875D01*
G37*
G36*
X60896791Y-96129639D02*
G01*
X60077410Y-96791591D01*
X60392274Y-97124358D01*
X60896791Y-97124358D01*
X60896791Y-97571624D01*
X58241824Y-97571624D01*
X58241824Y-97124358D01*
X59844814Y-97124358D01*
X58986081Y-96197622D01*
X58986081Y-95660901D01*
X59787583Y-96458827D01*
X60896791Y-95585760D01*
X60896791Y-96129639D01*
G37*
G36*
X129439375Y-114456562D02*
G01*
X129161563Y-114456562D01*
X129161563Y-114178750D01*
X129439375Y-114178750D01*
X129439375Y-114456562D01*
G37*
G36*
X133050938Y-110845000D02*
G01*
X132773125Y-110845000D01*
X132773125Y-110567188D01*
X133050938Y-110567188D01*
X133050938Y-110845000D01*
G37*
G36*
X127216875Y-108900312D02*
G01*
X126939063Y-108900312D01*
X126939063Y-108622500D01*
X127216875Y-108622500D01*
X127216875Y-108900312D01*
G37*
G36*
X60896791Y-93932667D02*
G01*
X60649907Y-93932667D01*
X60666637Y-93946735D01*
X60682836Y-93961208D01*
X60698504Y-93976087D01*
X60713641Y-93991371D01*
X60728247Y-94007060D01*
X60742322Y-94023155D01*
X60755866Y-94039655D01*
X60768879Y-94056560D01*
X60781361Y-94073871D01*
X60793312Y-94091586D01*
X60804732Y-94109708D01*
X60815620Y-94128234D01*
X60825977Y-94147166D01*
X60835803Y-94166503D01*
X60845098Y-94186246D01*
X60853861Y-94206394D01*
X60862093Y-94226877D01*
X60869794Y-94247626D01*
X60876964Y-94268640D01*
X60883603Y-94289920D01*
X60889710Y-94311466D01*
X60895287Y-94333277D01*
X60900332Y-94355353D01*
X60904846Y-94377695D01*
X60908830Y-94400303D01*
X60912282Y-94423176D01*
X60915203Y-94446315D01*
X60917593Y-94469719D01*
X60919452Y-94493389D01*
X60920779Y-94517325D01*
X60921576Y-94541527D01*
X60921842Y-94565994D01*
X60921366Y-94600650D01*
X60919941Y-94634845D01*
X60917565Y-94668579D01*
X60914238Y-94701852D01*
X60909961Y-94734663D01*
X60904734Y-94767013D01*
X60898556Y-94798902D01*
X60891428Y-94830329D01*
X60883350Y-94861295D01*
X60874322Y-94891800D01*
X60864343Y-94921844D01*
X60853414Y-94951426D01*
X60841534Y-94980547D01*
X60828705Y-95009207D01*
X60814925Y-95037406D01*
X60800195Y-95065143D01*
X60784594Y-95092272D01*
X60768211Y-95118647D01*
X60751046Y-95144267D01*
X60733098Y-95169132D01*
X60714368Y-95193243D01*
X60694856Y-95216599D01*
X60674560Y-95239200D01*
X60653483Y-95261046D01*
X60631622Y-95282138D01*
X60608979Y-95302475D01*
X60585553Y-95322057D01*
X60561344Y-95340884D01*
X60536351Y-95358957D01*
X60510576Y-95376275D01*
X60484018Y-95392838D01*
X60456676Y-95408646D01*
X60428668Y-95423594D01*
X60400101Y-95437578D01*
X60370974Y-95450597D01*
X60341288Y-95462652D01*
X60311043Y-95473743D01*
X60280239Y-95483869D01*
X60248875Y-95493032D01*
X60216952Y-95501229D01*
X60184470Y-95508462D01*
X60151429Y-95514731D01*
X60117828Y-95520036D01*
X60083668Y-95524376D01*
X60048949Y-95527751D01*
X60013671Y-95530162D01*
X59977833Y-95531609D01*
X59941436Y-95532091D01*
X59905047Y-95531609D01*
X59869230Y-95530162D01*
X59833987Y-95527751D01*
X59799318Y-95524376D01*
X59765221Y-95520036D01*
X59731698Y-95514731D01*
X59698748Y-95508462D01*
X59666371Y-95501229D01*
X59634567Y-95493032D01*
X59603336Y-95483869D01*
X59572678Y-95473743D01*
X59542593Y-95462652D01*
X59513080Y-95450597D01*
X59484141Y-95437578D01*
X59455774Y-95423594D01*
X59427979Y-95408646D01*
X59400858Y-95392838D01*
X59374505Y-95376275D01*
X59348921Y-95358957D01*
X59324105Y-95340884D01*
X59300058Y-95322057D01*
X59276779Y-95302475D01*
X59254269Y-95282138D01*
X59232528Y-95261046D01*
X59211555Y-95239200D01*
X59191351Y-95216599D01*
X59171915Y-95193243D01*
X59153249Y-95169132D01*
X59135351Y-95144267D01*
X59118221Y-95118647D01*
X59101861Y-95092272D01*
X59086269Y-95065143D01*
X59071537Y-95037406D01*
X59057755Y-95009207D01*
X59044924Y-94980547D01*
X59033043Y-94951426D01*
X59022113Y-94921844D01*
X59012133Y-94891800D01*
X59003103Y-94861295D01*
X58995025Y-94830329D01*
X58987896Y-94798902D01*
X58981718Y-94767013D01*
X58976490Y-94734663D01*
X58972213Y-94701852D01*
X58968887Y-94668579D01*
X58966511Y-94634845D01*
X58965085Y-94600650D01*
X58964610Y-94565994D01*
X58964861Y-94542855D01*
X58965616Y-94519953D01*
X58965841Y-94515900D01*
X59343889Y-94515900D01*
X59344532Y-94546419D01*
X59346461Y-94576254D01*
X59349676Y-94605403D01*
X59354176Y-94633867D01*
X59359963Y-94661647D01*
X59367035Y-94688741D01*
X59375394Y-94715151D01*
X59385038Y-94740875D01*
X59395968Y-94765915D01*
X59408184Y-94790270D01*
X59421685Y-94813940D01*
X59436472Y-94836926D01*
X59452545Y-94859226D01*
X59469904Y-94880842D01*
X59488548Y-94901773D01*
X59508478Y-94922019D01*
X59529461Y-94941300D01*
X59551253Y-94959337D01*
X59573855Y-94976130D01*
X59597268Y-94991680D01*
X59621490Y-95005985D01*
X59646523Y-95019046D01*
X59672366Y-95030864D01*
X59699019Y-95041437D01*
X59726483Y-95050767D01*
X59754758Y-95058852D01*
X59783843Y-95065694D01*
X59813739Y-95071292D01*
X59844447Y-95075646D01*
X59875965Y-95078756D01*
X59908295Y-95080622D01*
X59941436Y-95081243D01*
X59974576Y-95080622D01*
X60006904Y-95078756D01*
X60038422Y-95075646D01*
X60069129Y-95071292D01*
X60099026Y-95065694D01*
X60128112Y-95058852D01*
X60156387Y-95050767D01*
X60183852Y-95041437D01*
X60210506Y-95030864D01*
X60236349Y-95019046D01*
X60261382Y-95005985D01*
X60285603Y-94991680D01*
X60309014Y-94976130D01*
X60331614Y-94959337D01*
X60353403Y-94941300D01*
X60374381Y-94922019D01*
X60394316Y-94901773D01*
X60412964Y-94880842D01*
X60430325Y-94859226D01*
X60446400Y-94836926D01*
X60461189Y-94813940D01*
X60474692Y-94790270D01*
X60486908Y-94765915D01*
X60497838Y-94740875D01*
X60507482Y-94715151D01*
X60515840Y-94688741D01*
X60522912Y-94661647D01*
X60528698Y-94633867D01*
X60533198Y-94605403D01*
X60536412Y-94576254D01*
X60538341Y-94546419D01*
X60538984Y-94515900D01*
X60538341Y-94485374D01*
X60536412Y-94455519D01*
X60533198Y-94426335D01*
X60528698Y-94397821D01*
X60522912Y-94369979D01*
X60515840Y-94342808D01*
X60507482Y-94316308D01*
X60497838Y-94290479D01*
X60486908Y-94265320D01*
X60474692Y-94240833D01*
X60461189Y-94217016D01*
X60446400Y-94193870D01*
X60430325Y-94171396D01*
X60412964Y-94149591D01*
X60394316Y-94128458D01*
X60374381Y-94107996D01*
X60353403Y-94088497D01*
X60331614Y-94070257D01*
X60309014Y-94053274D01*
X60285603Y-94037550D01*
X60261382Y-94023083D01*
X60236349Y-94009874D01*
X60210506Y-93997924D01*
X60183852Y-93987231D01*
X60156387Y-93977796D01*
X60128112Y-93969619D01*
X60099026Y-93962700D01*
X60069129Y-93957039D01*
X60038422Y-93952636D01*
X60006904Y-93949491D01*
X59974576Y-93947604D01*
X59941436Y-93946975D01*
X59908295Y-93947604D01*
X59875965Y-93949491D01*
X59844447Y-93952636D01*
X59813739Y-93957039D01*
X59783843Y-93962700D01*
X59754758Y-93969619D01*
X59726483Y-93977796D01*
X59699019Y-93987231D01*
X59672366Y-93997924D01*
X59646523Y-94009874D01*
X59621490Y-94023083D01*
X59597268Y-94037550D01*
X59573855Y-94053274D01*
X59551253Y-94070257D01*
X59529461Y-94088497D01*
X59508478Y-94107996D01*
X59488548Y-94128458D01*
X59469904Y-94149591D01*
X59452545Y-94171396D01*
X59436472Y-94193870D01*
X59421685Y-94217016D01*
X59408184Y-94240833D01*
X59395968Y-94265320D01*
X59385038Y-94290479D01*
X59375394Y-94316308D01*
X59367035Y-94342808D01*
X59359963Y-94369979D01*
X59354176Y-94397821D01*
X59349676Y-94426335D01*
X59346461Y-94455519D01*
X59344532Y-94485374D01*
X59343889Y-94515900D01*
X58965841Y-94515900D01*
X58966874Y-94497289D01*
X58968635Y-94474863D01*
X58970900Y-94452674D01*
X58973667Y-94430723D01*
X58976938Y-94409010D01*
X58980712Y-94387534D01*
X58984989Y-94366296D01*
X58989769Y-94345295D01*
X58995051Y-94324533D01*
X59000837Y-94304007D01*
X59007127Y-94283720D01*
X59013919Y-94263670D01*
X59021214Y-94243858D01*
X59029011Y-94224284D01*
X59037301Y-94204988D01*
X59046065Y-94186014D01*
X59055305Y-94167361D01*
X59065019Y-94149030D01*
X59075209Y-94131021D01*
X59085874Y-94113332D01*
X59097014Y-94095965D01*
X59108629Y-94078920D01*
X59120719Y-94062196D01*
X59133284Y-94045794D01*
X59146324Y-94029713D01*
X59159839Y-94013954D01*
X59173830Y-93998516D01*
X59188295Y-93983400D01*
X59203235Y-93968605D01*
X59218651Y-93954132D01*
X58986081Y-93954132D01*
X58986081Y-93506866D01*
X60896791Y-93506866D01*
X60896791Y-93932667D01*
G37*
G36*
X128883750Y-110011562D02*
G01*
X128605938Y-110011562D01*
X128605938Y-109733750D01*
X128883750Y-109733750D01*
X128883750Y-110011562D01*
G37*
G36*
X130550625Y-109178125D02*
G01*
X130272813Y-109178125D01*
X130272813Y-108900312D01*
X130550625Y-108900312D01*
X130550625Y-109178125D01*
G37*
G36*
X131106251Y-114456562D02*
G01*
X130828438Y-114456562D01*
X130828438Y-114178750D01*
X131106251Y-114178750D01*
X131106251Y-114456562D01*
G37*
G36*
X133606563Y-113623125D02*
G01*
X133328750Y-113623125D01*
X133328750Y-113345312D01*
X133606563Y-113345312D01*
X133606563Y-113623125D01*
G37*
G36*
X131661875Y-111678437D02*
G01*
X131384063Y-111678437D01*
X131384063Y-111400625D01*
X131661875Y-111400625D01*
X131661875Y-111678437D01*
G37*
G36*
X130550625Y-109455937D02*
G01*
X130272813Y-109455937D01*
X130272813Y-109178125D01*
X130550625Y-109178125D01*
X130550625Y-109455937D01*
G37*
G36*
X129995000Y-111122812D02*
G01*
X129717188Y-111122812D01*
X129717188Y-110845000D01*
X129995000Y-110845000D01*
X129995000Y-111122812D01*
G37*
G36*
X132773125Y-112789687D02*
G01*
X132495313Y-112789687D01*
X132495313Y-112511875D01*
X132773125Y-112511875D01*
X132773125Y-112789687D01*
G37*
G36*
X132217500Y-112234062D02*
G01*
X131939688Y-112234062D01*
X131939688Y-111956250D01*
X132217500Y-111956250D01*
X132217500Y-112234062D01*
G37*
G36*
X129439375Y-113067500D02*
G01*
X129161563Y-113067500D01*
X129161563Y-112789687D01*
X129439375Y-112789687D01*
X129439375Y-113067500D01*
G37*
G36*
X130272813Y-107789062D02*
G01*
X129995000Y-107789062D01*
X129995000Y-107511250D01*
X130272813Y-107511250D01*
X130272813Y-107789062D01*
G37*
G36*
X132773125Y-111678437D02*
G01*
X132495313Y-111678437D01*
X132495313Y-111400625D01*
X132773125Y-111400625D01*
X132773125Y-111678437D01*
G37*
G36*
X128050313Y-111400625D02*
G01*
X127772500Y-111400625D01*
X127772500Y-111122812D01*
X128050313Y-111122812D01*
X128050313Y-111400625D01*
G37*
G36*
X127494688Y-109455937D02*
G01*
X127216875Y-109455937D01*
X127216875Y-109178125D01*
X127494688Y-109178125D01*
X127494688Y-109455937D01*
G37*
G36*
X131939688Y-111678437D02*
G01*
X131661875Y-111678437D01*
X131661875Y-111400625D01*
X131939688Y-111400625D01*
X131939688Y-111678437D01*
G37*
G36*
X131661875Y-108066875D02*
G01*
X131384063Y-108066875D01*
X131384063Y-107789062D01*
X131661875Y-107789062D01*
X131661875Y-108066875D01*
G37*
G36*
X127216875Y-110011562D02*
G01*
X126939063Y-110011562D01*
X126939063Y-109733750D01*
X127216875Y-109733750D01*
X127216875Y-110011562D01*
G37*
G36*
X131939688Y-109455937D02*
G01*
X131661875Y-109455937D01*
X131661875Y-109178125D01*
X131939688Y-109178125D01*
X131939688Y-109455937D01*
G37*
G36*
X130550625Y-107789062D02*
G01*
X130272813Y-107789062D01*
X130272813Y-107511250D01*
X130550625Y-107511250D01*
X130550625Y-107789062D01*
G37*
G36*
X64198856Y-37526801D02*
G01*
X63841019Y-37526801D01*
X65108784Y-34275595D01*
X65466620Y-34275595D01*
X64198856Y-37526801D01*
G37*
G36*
X131661875Y-107233437D02*
G01*
X131384063Y-107233437D01*
X131384063Y-106955625D01*
X131661875Y-106955625D01*
X131661875Y-107233437D01*
G37*
G36*
X129439375Y-111678437D02*
G01*
X129161563Y-111678437D01*
X129161563Y-111400625D01*
X129439375Y-111400625D01*
X129439375Y-111678437D01*
G37*
G36*
X133884375Y-112234062D02*
G01*
X133606563Y-112234062D01*
X133606563Y-111956250D01*
X133884375Y-111956250D01*
X133884375Y-112234062D01*
G37*
G36*
X131939688Y-108900312D02*
G01*
X131661875Y-108900312D01*
X131661875Y-108622500D01*
X131939688Y-108622500D01*
X131939688Y-108900312D01*
G37*
G36*
X128605938Y-109733750D02*
G01*
X128328125Y-109733750D01*
X128328125Y-109455937D01*
X128605938Y-109455937D01*
X128605938Y-109733750D01*
G37*
G36*
X134717813Y-114456562D02*
G01*
X134440000Y-114456562D01*
X134440000Y-114178750D01*
X134717813Y-114178750D01*
X134717813Y-114456562D01*
G37*
G36*
X134717813Y-111122812D02*
G01*
X134440000Y-111122812D01*
X134440000Y-110845000D01*
X134717813Y-110845000D01*
X134717813Y-111122812D01*
G37*
G36*
X130828438Y-111956250D02*
G01*
X130550625Y-111956250D01*
X130550625Y-111678437D01*
X130828438Y-111678437D01*
X130828438Y-111956250D01*
G37*
G36*
X133884375Y-109178125D02*
G01*
X133606563Y-109178125D01*
X133606563Y-108900312D01*
X133884375Y-108900312D01*
X133884375Y-109178125D01*
G37*
G36*
X132495313Y-112789687D02*
G01*
X132217500Y-112789687D01*
X132217500Y-112511875D01*
X132495313Y-112511875D01*
X132495313Y-112789687D01*
G37*
G36*
X130272813Y-113067500D02*
G01*
X129995000Y-113067500D01*
X129995000Y-112789687D01*
X130272813Y-112789687D01*
X130272813Y-113067500D01*
G37*
G36*
X129717188Y-110845000D02*
G01*
X129439375Y-110845000D01*
X129439375Y-110567188D01*
X129717188Y-110567188D01*
X129717188Y-110845000D01*
G37*
G36*
X132217500Y-108066875D02*
G01*
X131939688Y-108066875D01*
X131939688Y-107789062D01*
X132217500Y-107789062D01*
X132217500Y-108066875D01*
G37*
G36*
X128050313Y-109178125D02*
G01*
X127772500Y-109178125D01*
X127772500Y-108900312D01*
X128050313Y-108900312D01*
X128050313Y-109178125D01*
G37*
G36*
X131661875Y-112789687D02*
G01*
X131384063Y-112789687D01*
X131384063Y-112511875D01*
X131661875Y-112511875D01*
X131661875Y-112789687D01*
G37*
G36*
X133328750Y-113345312D02*
G01*
X133050938Y-113345312D01*
X133050938Y-113067500D01*
X133328750Y-113067500D01*
X133328750Y-113345312D01*
G37*
G36*
X131939688Y-111400625D02*
G01*
X131661875Y-111400625D01*
X131661875Y-111122812D01*
X131939688Y-111122812D01*
X131939688Y-111400625D01*
G37*
G36*
X130828438Y-106955625D02*
G01*
X130550625Y-106955625D01*
X130550625Y-106677812D01*
X130828438Y-106677812D01*
X130828438Y-106955625D01*
G37*
G36*
X129161563Y-111400625D02*
G01*
X128883750Y-111400625D01*
X128883750Y-111122812D01*
X129161563Y-111122812D01*
X129161563Y-111400625D01*
G37*
G36*
X134162188Y-108900312D02*
G01*
X133884375Y-108900312D01*
X133884375Y-108622500D01*
X134162188Y-108622500D01*
X134162188Y-108900312D01*
G37*
G36*
X134440000Y-112511875D02*
G01*
X134162188Y-112511875D01*
X134162188Y-112234062D01*
X134440000Y-112234062D01*
X134440000Y-112511875D01*
G37*
G36*
X129995000Y-111956250D02*
G01*
X129717188Y-111956250D01*
X129717188Y-111678437D01*
X129995000Y-111678437D01*
X129995000Y-111956250D01*
G37*
G36*
X132495313Y-109178125D02*
G01*
X132217500Y-109178125D01*
X132217500Y-108900312D01*
X132495313Y-108900312D01*
X132495313Y-109178125D01*
G37*
G36*
X127772500Y-112234062D02*
G01*
X127494688Y-112234062D01*
X127494688Y-111956250D01*
X127772500Y-111956250D01*
X127772500Y-112234062D01*
G37*
G36*
X132773125Y-108066875D02*
G01*
X132495313Y-108066875D01*
X132495313Y-107789062D01*
X132773125Y-107789062D01*
X132773125Y-108066875D01*
G37*
G36*
X129717188Y-114456562D02*
G01*
X129439375Y-114456562D01*
X129439375Y-114178750D01*
X129717188Y-114178750D01*
X129717188Y-114456562D01*
G37*
G36*
X134995625Y-108344687D02*
G01*
X133050938Y-108344687D01*
X133050938Y-108052984D01*
X133342641Y-108052984D01*
X134703922Y-108052984D01*
X134703922Y-106691703D01*
X133342641Y-106691703D01*
X133342641Y-108052984D01*
X133050938Y-108052984D01*
X133050938Y-106691703D01*
X133050938Y-106400000D01*
X134995625Y-106400000D01*
X134995625Y-108344687D01*
G37*
G36*
X131106251Y-111400625D02*
G01*
X130828438Y-111400625D01*
X130828438Y-111122812D01*
X131106251Y-111122812D01*
X131106251Y-111400625D01*
G37*
G36*
X129161563Y-109455937D02*
G01*
X128883750Y-109455937D01*
X128883750Y-109178125D01*
X129161563Y-109178125D01*
X129161563Y-109455937D01*
G37*
G36*
X129995000Y-108066875D02*
G01*
X129717188Y-108066875D01*
X129717188Y-107789062D01*
X129995000Y-107789062D01*
X129995000Y-108066875D01*
G37*
G36*
X134440000Y-110011562D02*
G01*
X134162188Y-110011562D01*
X134162188Y-109733750D01*
X134440000Y-109733750D01*
X134440000Y-110011562D01*
G37*
G36*
X128050313Y-111122812D02*
G01*
X127772500Y-111122812D01*
X127772500Y-110845000D01*
X128050313Y-110845000D01*
X128050313Y-111122812D01*
G37*
G36*
X129717188Y-113900937D02*
G01*
X129439375Y-113900937D01*
X129439375Y-113623125D01*
X129717188Y-113623125D01*
X129717188Y-113900937D01*
G37*
G36*
X131661875Y-110845000D02*
G01*
X131384063Y-110845000D01*
X131384063Y-110567188D01*
X131661875Y-110567188D01*
X131661875Y-110845000D01*
G37*
G36*
X133884375Y-113067500D02*
G01*
X133606563Y-113067500D01*
X133606563Y-112789687D01*
X133884375Y-112789687D01*
X133884375Y-113067500D01*
G37*
G36*
X131384063Y-106677812D02*
G01*
X131106251Y-106677812D01*
X131106251Y-106400000D01*
X131384063Y-106400000D01*
X131384063Y-106677812D01*
G37*
G36*
X130272813Y-111400625D02*
G01*
X129995000Y-111400625D01*
X129995000Y-111122812D01*
X130272813Y-111122812D01*
X130272813Y-111400625D01*
G37*
G36*
X128328125Y-109178125D02*
G01*
X128050313Y-109178125D01*
X128050313Y-108900312D01*
X128328125Y-108900312D01*
X128328125Y-109178125D01*
G37*
G36*
X132773125Y-113900937D02*
G01*
X132495313Y-113900937D01*
X132495313Y-113623125D01*
X132773125Y-113623125D01*
X132773125Y-113900937D01*
G37*
G36*
X131661875Y-112511875D02*
G01*
X131384063Y-112511875D01*
X131384063Y-112234062D01*
X131661875Y-112234062D01*
X131661875Y-112511875D01*
G37*
G36*
X131106251Y-110011562D02*
G01*
X130828438Y-110011562D01*
X130828438Y-109733750D01*
X131106251Y-109733750D01*
X131106251Y-110011562D01*
G37*
G36*
X133884375Y-113345312D02*
G01*
X133606563Y-113345312D01*
X133606563Y-113067500D01*
X133884375Y-113067500D01*
X133884375Y-113345312D01*
G37*
G36*
X133050938Y-113345312D02*
G01*
X132773125Y-113345312D01*
X132773125Y-113067500D01*
X133050938Y-113067500D01*
X133050938Y-113345312D01*
G37*
G36*
X129995000Y-110011562D02*
G01*
X129717188Y-110011562D01*
X129717188Y-109733750D01*
X129995000Y-109733750D01*
X129995000Y-110011562D01*
G37*
G36*
X134717813Y-114178750D02*
G01*
X134440000Y-114178750D01*
X134440000Y-113900937D01*
X134717813Y-113900937D01*
X134717813Y-114178750D01*
G37*
G36*
X132773125Y-106677812D02*
G01*
X132495313Y-106677812D01*
X132495313Y-106400000D01*
X132773125Y-106400000D01*
X132773125Y-106677812D01*
G37*
G36*
X131106251Y-113900937D02*
G01*
X130828438Y-113900937D01*
X130828438Y-113623125D01*
X131106251Y-113623125D01*
X131106251Y-113900937D01*
G37*
G36*
X130550625Y-109733750D02*
G01*
X130272813Y-109733750D01*
X130272813Y-109455937D01*
X130550625Y-109455937D01*
X130550625Y-109733750D01*
G37*
G36*
X132217500Y-109455937D02*
G01*
X131939688Y-109455937D01*
X131939688Y-109178125D01*
X132217500Y-109178125D01*
X132217500Y-109455937D01*
G37*
G36*
X133606563Y-111678437D02*
G01*
X133328750Y-111678437D01*
X133328750Y-111400625D01*
X133606563Y-111400625D01*
X133606563Y-111678437D01*
G37*
G36*
X134162188Y-113067500D02*
G01*
X133884375Y-113067500D01*
X133884375Y-112789687D01*
X134162188Y-112789687D01*
X134162188Y-113067500D01*
G37*
G36*
X132773125Y-109178125D02*
G01*
X132495313Y-109178125D01*
X132495313Y-108900312D01*
X132773125Y-108900312D01*
X132773125Y-109178125D01*
G37*
G36*
X131661875Y-112234062D02*
G01*
X131384063Y-112234062D01*
X131384063Y-111956250D01*
X131661875Y-111956250D01*
X131661875Y-112234062D01*
G37*
G36*
X129161563Y-109178125D02*
G01*
X128883750Y-109178125D01*
X128883750Y-108900312D01*
X129161563Y-108900312D01*
X129161563Y-109178125D01*
G37*
G36*
X127772500Y-108900312D02*
G01*
X127494688Y-108900312D01*
X127494688Y-108622500D01*
X127772500Y-108622500D01*
X127772500Y-108900312D01*
G37*
G36*
X134995625Y-113067500D02*
G01*
X134717813Y-113067500D01*
X134717813Y-112789687D01*
X134995625Y-112789687D01*
X134995625Y-113067500D01*
G37*
G36*
X128328125Y-110845000D02*
G01*
X128050313Y-110845000D01*
X128050313Y-110567188D01*
X128328125Y-110567188D01*
X128328125Y-110845000D01*
G37*
G36*
X134440000Y-111400625D02*
G01*
X134162188Y-111400625D01*
X134162188Y-111122812D01*
X134440000Y-111122812D01*
X134440000Y-111400625D01*
G37*
G36*
X129995000Y-109733750D02*
G01*
X129717188Y-109733750D01*
X129717188Y-109455937D01*
X129995000Y-109455937D01*
X129995000Y-109733750D01*
G37*
G36*
X128050313Y-110845000D02*
G01*
X127772500Y-110845000D01*
X127772500Y-110567188D01*
X128050313Y-110567188D01*
X128050313Y-110845000D01*
G37*
G36*
X132773125Y-108622500D02*
G01*
X132495313Y-108622500D01*
X132495313Y-108344687D01*
X132773125Y-108344687D01*
X132773125Y-108622500D01*
G37*
G36*
X128883750Y-110567188D02*
G01*
X128605938Y-110567188D01*
X128605938Y-110289375D01*
X128883750Y-110289375D01*
X128883750Y-110567188D01*
G37*
G36*
X128883750Y-111122812D02*
G01*
X128605938Y-111122812D01*
X128605938Y-110845000D01*
X128883750Y-110845000D01*
X128883750Y-111122812D01*
G37*
G36*
X132217500Y-108344687D02*
G01*
X131939688Y-108344687D01*
X131939688Y-108066875D01*
X132217500Y-108066875D01*
X132217500Y-108344687D01*
G37*
G36*
X131106251Y-111956250D02*
G01*
X130828438Y-111956250D01*
X130828438Y-111678437D01*
X131106251Y-111678437D01*
X131106251Y-111956250D01*
G37*
G36*
X131106251Y-111122812D02*
G01*
X130828438Y-111122812D01*
X130828438Y-110845000D01*
X131106251Y-110845000D01*
X131106251Y-111122812D01*
G37*
G36*
X131106251Y-106677812D02*
G01*
X130828438Y-106677812D01*
X130828438Y-106400000D01*
X131106251Y-106400000D01*
X131106251Y-106677812D01*
G37*
G36*
X130828438Y-109455937D02*
G01*
X130550625Y-109455937D01*
X130550625Y-109178125D01*
X130828438Y-109178125D01*
X130828438Y-109455937D01*
G37*
G36*
X131661875Y-108622500D02*
G01*
X131384063Y-108622500D01*
X131384063Y-108344687D01*
X131661875Y-108344687D01*
X131661875Y-108622500D01*
G37*
G36*
X129995000Y-111678437D02*
G01*
X129717188Y-111678437D01*
X129717188Y-111400625D01*
X129995000Y-111400625D01*
X129995000Y-111678437D01*
G37*
G36*
X131106251Y-107789062D02*
G01*
X130828438Y-107789062D01*
X130828438Y-107511250D01*
X131106251Y-107511250D01*
X131106251Y-107789062D01*
G37*
G36*
X134440000Y-111678437D02*
G01*
X134162188Y-111678437D01*
X134162188Y-111400625D01*
X134440000Y-111400625D01*
X134440000Y-111678437D01*
G37*
G36*
X60896791Y-88687125D02*
G01*
X59859142Y-88687125D01*
X59828315Y-88687559D01*
X59798453Y-88688859D01*
X59769555Y-88691025D01*
X59741622Y-88694059D01*
X59714654Y-88697958D01*
X59688649Y-88702725D01*
X59663610Y-88708358D01*
X59639535Y-88714858D01*
X59616424Y-88722224D01*
X59594278Y-88730457D01*
X59573096Y-88739556D01*
X59552879Y-88749522D01*
X59533627Y-88760355D01*
X59515340Y-88772054D01*
X59498017Y-88784619D01*
X59481658Y-88798051D01*
X59466276Y-88812294D01*
X59451886Y-88827291D01*
X59438488Y-88843043D01*
X59426083Y-88859549D01*
X59414670Y-88876811D01*
X59404249Y-88894827D01*
X59394821Y-88913598D01*
X59386385Y-88933123D01*
X59378941Y-88953404D01*
X59372490Y-88974439D01*
X59367031Y-88996229D01*
X59362565Y-89018774D01*
X59359091Y-89042074D01*
X59356610Y-89066128D01*
X59355121Y-89090938D01*
X59354625Y-89116502D01*
X59355205Y-89144330D01*
X59356945Y-89171460D01*
X59359845Y-89197890D01*
X59363905Y-89223622D01*
X59369125Y-89248656D01*
X59375505Y-89272990D01*
X59383045Y-89296625D01*
X59391744Y-89319562D01*
X59401604Y-89341800D01*
X59412624Y-89363339D01*
X59424804Y-89384178D01*
X59438144Y-89404319D01*
X59452644Y-89423761D01*
X59468304Y-89442505D01*
X59485124Y-89460549D01*
X59503104Y-89477894D01*
X59522165Y-89494359D01*
X59542217Y-89509762D01*
X59563262Y-89524102D01*
X59585299Y-89537380D01*
X59608327Y-89549596D01*
X59632348Y-89560750D01*
X59657361Y-89570841D01*
X59683366Y-89579870D01*
X59710363Y-89587837D01*
X59738352Y-89594741D01*
X59767333Y-89600583D01*
X59797307Y-89605363D01*
X59828272Y-89609081D01*
X59860230Y-89611737D01*
X59893180Y-89613330D01*
X59927122Y-89613861D01*
X60896791Y-89613861D01*
X60896791Y-90061127D01*
X59859142Y-90061127D01*
X59828315Y-90061560D01*
X59798453Y-90062860D01*
X59769555Y-90065027D01*
X59741622Y-90068060D01*
X59714654Y-90071960D01*
X59688649Y-90076726D01*
X59663610Y-90082360D01*
X59639535Y-90088859D01*
X59616424Y-90096226D01*
X59594278Y-90104459D01*
X59573096Y-90113558D01*
X59552879Y-90123524D01*
X59533627Y-90134357D01*
X59515340Y-90146056D01*
X59498017Y-90158621D01*
X59481658Y-90172054D01*
X59466276Y-90186295D01*
X59451886Y-90201292D01*
X59438488Y-90217043D01*
X59426083Y-90233550D01*
X59414670Y-90250811D01*
X59404249Y-90268827D01*
X59394821Y-90287598D01*
X59386385Y-90307124D01*
X59378941Y-90327405D01*
X59372490Y-90348440D01*
X59367031Y-90370230D01*
X59362565Y-90392775D01*
X59359091Y-90416075D01*
X59356610Y-90440130D01*
X59355121Y-90464939D01*
X59354625Y-90490503D01*
X59355198Y-90518757D01*
X59356917Y-90546271D01*
X59359782Y-90573044D01*
X59363793Y-90599076D01*
X59368950Y-90624368D01*
X59375254Y-90648919D01*
X59382703Y-90672729D01*
X59391299Y-90695798D01*
X59401040Y-90718127D01*
X59411928Y-90739714D01*
X59423962Y-90760561D01*
X59437141Y-90780668D01*
X59451467Y-90800033D01*
X59466939Y-90818658D01*
X59483557Y-90836542D01*
X59501321Y-90853685D01*
X59520178Y-90869934D01*
X59540068Y-90885134D01*
X59560993Y-90899286D01*
X59582952Y-90912389D01*
X59605944Y-90924444D01*
X59629971Y-90935451D01*
X59655032Y-90945410D01*
X59681128Y-90954320D01*
X59708257Y-90962182D01*
X59736421Y-90968995D01*
X59765619Y-90974760D01*
X59795851Y-90979477D01*
X59827117Y-90983146D01*
X59859418Y-90985767D01*
X59892753Y-90987339D01*
X59927122Y-90987863D01*
X60896791Y-90987863D01*
X60896791Y-91435129D01*
X58986081Y-91435129D01*
X58986081Y-91009335D01*
X59229387Y-91009335D01*
X59213523Y-90995706D01*
X59198135Y-90981659D01*
X59183222Y-90967193D01*
X59168784Y-90952307D01*
X59154822Y-90937002D01*
X59141335Y-90921277D01*
X59128323Y-90905134D01*
X59115786Y-90888571D01*
X59103724Y-90871588D01*
X59092137Y-90854187D01*
X59081025Y-90836366D01*
X59070389Y-90818126D01*
X59060227Y-90799467D01*
X59050540Y-90780388D01*
X59041327Y-90760890D01*
X59032590Y-90740972D01*
X59024358Y-90720705D01*
X59016657Y-90700159D01*
X59009487Y-90679333D01*
X59002849Y-90658228D01*
X58996741Y-90636843D01*
X58991165Y-90615179D01*
X58986119Y-90593235D01*
X58981605Y-90571011D01*
X58977622Y-90548509D01*
X58974169Y-90525726D01*
X58971248Y-90502664D01*
X58968858Y-90479323D01*
X58967000Y-90455702D01*
X58965672Y-90431802D01*
X58964875Y-90407621D01*
X58964610Y-90383162D01*
X58964924Y-90356515D01*
X58965867Y-90330245D01*
X58967439Y-90304352D01*
X58969639Y-90278837D01*
X58972469Y-90253699D01*
X58975927Y-90228938D01*
X58980015Y-90204555D01*
X58984731Y-90180549D01*
X58990077Y-90156921D01*
X58996052Y-90133670D01*
X59002657Y-90110796D01*
X59009890Y-90088300D01*
X59017754Y-90066181D01*
X59026247Y-90044440D01*
X59035369Y-90023076D01*
X59045122Y-90002090D01*
X59055485Y-89981565D01*
X59066449Y-89961585D01*
X59078015Y-89942150D01*
X59090181Y-89923260D01*
X59102949Y-89904915D01*
X59116319Y-89887115D01*
X59130289Y-89869861D01*
X59144860Y-89853151D01*
X59160033Y-89836986D01*
X59175806Y-89821367D01*
X59192181Y-89806292D01*
X59209156Y-89791763D01*
X59226732Y-89777779D01*
X59244909Y-89764339D01*
X59263687Y-89751445D01*
X59283066Y-89739096D01*
X59264539Y-89724071D01*
X59246529Y-89708515D01*
X59229036Y-89692428D01*
X59212060Y-89675809D01*
X59195601Y-89658660D01*
X59179659Y-89640979D01*
X59164235Y-89622767D01*
X59149327Y-89604024D01*
X59134937Y-89584750D01*
X59121063Y-89564944D01*
X59107707Y-89544608D01*
X59094869Y-89523740D01*
X59082547Y-89502341D01*
X59070743Y-89480411D01*
X59059457Y-89457950D01*
X59048687Y-89434957D01*
X59038505Y-89411546D01*
X59028980Y-89387827D01*
X59020112Y-89363801D01*
X59011902Y-89339467D01*
X59004348Y-89314825D01*
X58997451Y-89289876D01*
X58991211Y-89264619D01*
X58985627Y-89239055D01*
X58980701Y-89213183D01*
X58976432Y-89187004D01*
X58972820Y-89160517D01*
X58969864Y-89133723D01*
X58967565Y-89106621D01*
X58965923Y-89079212D01*
X58964938Y-89051495D01*
X58964610Y-89023471D01*
X58965427Y-88978884D01*
X58967880Y-88935472D01*
X58971969Y-88893233D01*
X58977693Y-88852169D01*
X58985052Y-88812278D01*
X58994046Y-88773562D01*
X59004675Y-88736020D01*
X59016940Y-88699651D01*
X59030840Y-88664457D01*
X59046375Y-88630437D01*
X59063546Y-88597590D01*
X59082351Y-88565918D01*
X59102792Y-88535420D01*
X59124868Y-88506096D01*
X59148579Y-88477946D01*
X59173925Y-88450970D01*
X59200909Y-88425407D01*
X59229528Y-88401492D01*
X59259782Y-88379227D01*
X59291672Y-88358610D01*
X59325197Y-88339643D01*
X59360357Y-88322326D01*
X59397152Y-88306657D01*
X59435582Y-88292638D01*
X59475648Y-88280268D01*
X59517348Y-88269547D01*
X59560683Y-88260476D01*
X59605654Y-88253054D01*
X59652259Y-88247281D01*
X59700499Y-88243158D01*
X59750374Y-88240684D01*
X59801884Y-88239859D01*
X60896791Y-88239859D01*
X60896791Y-88687125D01*
G37*
G36*
X130550625Y-113623125D02*
G01*
X130272813Y-113623125D01*
X130272813Y-113345312D01*
X130550625Y-113345312D01*
X130550625Y-113623125D01*
G37*
G36*
X130272813Y-114178750D02*
G01*
X129995000Y-114178750D01*
X129995000Y-113900937D01*
X130272813Y-113900937D01*
X130272813Y-114178750D01*
G37*
G36*
X132773125Y-108344687D02*
G01*
X132495313Y-108344687D01*
X132495313Y-108066875D01*
X132773125Y-108066875D01*
X132773125Y-108344687D01*
G37*
G36*
X133606563Y-114178750D02*
G01*
X133328750Y-114178750D01*
X133328750Y-113900937D01*
X133606563Y-113900937D01*
X133606563Y-114178750D01*
G37*
G36*
X133050938Y-109455937D02*
G01*
X132773125Y-109455937D01*
X132773125Y-109178125D01*
X133050938Y-109178125D01*
X133050938Y-109455937D01*
G37*
G36*
X132217500Y-107789062D02*
G01*
X131939688Y-107789062D01*
X131939688Y-107511250D01*
X132217500Y-107511250D01*
X132217500Y-107789062D01*
G37*
G36*
X129717188Y-113623125D02*
G01*
X129439375Y-113623125D01*
X129439375Y-113345312D01*
X129717188Y-113345312D01*
X129717188Y-113623125D01*
G37*
G36*
X130828438Y-112234062D02*
G01*
X130550625Y-112234062D01*
X130550625Y-111956250D01*
X130828438Y-111956250D01*
X130828438Y-112234062D01*
G37*
G36*
X133328750Y-109178125D02*
G01*
X133050938Y-109178125D01*
X133050938Y-108900312D01*
X133328750Y-108900312D01*
X133328750Y-109178125D01*
G37*
G36*
X129717188Y-109178125D02*
G01*
X129439375Y-109178125D01*
X129439375Y-108900312D01*
X129717188Y-108900312D01*
X129717188Y-109178125D01*
G37*
G36*
X134440000Y-110567188D02*
G01*
X134162188Y-110567188D01*
X134162188Y-110289375D01*
X134440000Y-110289375D01*
X134440000Y-110567188D01*
G37*
G36*
X131661875Y-109733750D02*
G01*
X131384063Y-109733750D01*
X131384063Y-109455937D01*
X131661875Y-109455937D01*
X131661875Y-109733750D01*
G37*
G36*
X133606563Y-112234062D02*
G01*
X133328750Y-112234062D01*
X133328750Y-111956250D01*
X133606563Y-111956250D01*
X133606563Y-112234062D01*
G37*
G36*
X65047524Y-37168712D02*
G01*
X64907892Y-37526812D01*
X64730018Y-37526812D01*
X64869671Y-37168671D01*
X65047524Y-37168712D01*
G37*
G36*
X128328125Y-113900937D02*
G01*
X127494688Y-113900937D01*
X127494688Y-113067500D01*
X128328125Y-113067500D01*
X128328125Y-113900937D01*
G37*
G36*
X132217500Y-109178125D02*
G01*
X131939688Y-109178125D01*
X131939688Y-108900312D01*
X132217500Y-108900312D01*
X132217500Y-109178125D01*
G37*
G36*
X127494688Y-111122812D02*
G01*
X127216875Y-111122812D01*
X127216875Y-110845000D01*
X127494688Y-110845000D01*
X127494688Y-111122812D01*
G37*
G36*
X133606563Y-109455937D02*
G01*
X133328750Y-109455937D01*
X133328750Y-109178125D01*
X133606563Y-109178125D01*
X133606563Y-109455937D01*
G37*
G36*
X130550625Y-110011562D02*
G01*
X130272813Y-110011562D01*
X130272813Y-109733750D01*
X130550625Y-109733750D01*
X130550625Y-110011562D01*
G37*
G36*
X131384063Y-111122812D02*
G01*
X131106251Y-111122812D01*
X131106251Y-110845000D01*
X131384063Y-110845000D01*
X131384063Y-111122812D01*
G37*
G36*
X131384063Y-111678437D02*
G01*
X131106251Y-111678437D01*
X131106251Y-111400625D01*
X131384063Y-111400625D01*
X131384063Y-111678437D01*
G37*
G36*
X134440000Y-111956250D02*
G01*
X134162188Y-111956250D01*
X134162188Y-111678437D01*
X134440000Y-111678437D01*
X134440000Y-111956250D01*
G37*
G36*
X132773125Y-110567188D02*
G01*
X132495313Y-110567188D01*
X132495313Y-110289375D01*
X132773125Y-110289375D01*
X132773125Y-110567188D01*
G37*
G36*
X134995625Y-109178125D02*
G01*
X134717813Y-109178125D01*
X134717813Y-108900312D01*
X134995625Y-108900312D01*
X134995625Y-109178125D01*
G37*
G36*
X130272813Y-113900937D02*
G01*
X129995000Y-113900937D01*
X129995000Y-113623125D01*
X130272813Y-113623125D01*
X130272813Y-113900937D01*
G37*
G36*
X131384063Y-110567188D02*
G01*
X131106251Y-110567188D01*
X131106251Y-110289375D01*
X131384063Y-110289375D01*
X131384063Y-110567188D01*
G37*
G36*
X131384063Y-108066875D02*
G01*
X131106251Y-108066875D01*
X131106251Y-107789062D01*
X131384063Y-107789062D01*
X131384063Y-108066875D01*
G37*
G36*
X132217500Y-114456562D02*
G01*
X131939688Y-114456562D01*
X131939688Y-114178750D01*
X132217500Y-114178750D01*
X132217500Y-114456562D01*
G37*
G36*
X131661875Y-113900937D02*
G01*
X131384063Y-113900937D01*
X131384063Y-113623125D01*
X131661875Y-113623125D01*
X131661875Y-113900937D01*
G37*
G36*
X127494688Y-110289375D02*
G01*
X127216875Y-110289375D01*
X127216875Y-110011562D01*
X127494688Y-110011562D01*
X127494688Y-110289375D01*
G37*
G36*
X132495313Y-106677812D02*
G01*
X132217500Y-106677812D01*
X132217500Y-106400000D01*
X132495313Y-106400000D01*
X132495313Y-106677812D01*
G37*
G36*
X131939688Y-113345312D02*
G01*
X131661875Y-113345312D01*
X131661875Y-113067500D01*
X131939688Y-113067500D01*
X131939688Y-113345312D01*
G37*
G36*
X131384063Y-108900312D02*
G01*
X131106251Y-108900312D01*
X131106251Y-108622500D01*
X131384063Y-108622500D01*
X131384063Y-108900312D01*
G37*
G36*
X133328750Y-114456562D02*
G01*
X133050938Y-114456562D01*
X133050938Y-114178750D01*
X133328750Y-114178750D01*
X133328750Y-114456562D01*
G37*
G36*
X128883750Y-111678437D02*
G01*
X128605938Y-111678437D01*
X128605938Y-111400625D01*
X128883750Y-111400625D01*
X128883750Y-111678437D01*
G37*
G36*
X133328750Y-111956250D02*
G01*
X133050938Y-111956250D01*
X133050938Y-111678437D01*
X133328750Y-111678437D01*
X133328750Y-111956250D01*
G37*
G36*
X65807041Y-36510799D02*
G01*
X65128430Y-36510799D01*
X64730019Y-37526799D01*
X64374419Y-37526799D01*
X65285625Y-35190000D01*
X65807041Y-36510799D01*
G37*
G36*
X134995625Y-110289375D02*
G01*
X134717813Y-110289375D01*
X134717813Y-110011562D01*
X134995625Y-110011562D01*
X134995625Y-110289375D01*
G37*
G36*
X134995625Y-110567188D02*
G01*
X134717813Y-110567188D01*
X134717813Y-110289375D01*
X134995625Y-110289375D01*
X134995625Y-110567188D01*
G37*
G36*
X133328750Y-110567188D02*
G01*
X133050938Y-110567188D01*
X133050938Y-110289375D01*
X133328750Y-110289375D01*
X133328750Y-110567188D01*
G37*
G36*
X127494688Y-112234062D02*
G01*
X127216875Y-112234062D01*
X127216875Y-111956250D01*
X127494688Y-111956250D01*
X127494688Y-112234062D01*
G37*
G36*
X132217500Y-113067500D02*
G01*
X131939688Y-113067500D01*
X131939688Y-112789687D01*
X132217500Y-112789687D01*
X132217500Y-113067500D01*
G37*
G36*
X127772500Y-110011562D02*
G01*
X127494688Y-110011562D01*
X127494688Y-109733750D01*
X127772500Y-109733750D01*
X127772500Y-110011562D01*
G37*
G36*
X131106251Y-112234062D02*
G01*
X130828438Y-112234062D01*
X130828438Y-111956250D01*
X131106251Y-111956250D01*
X131106251Y-112234062D01*
G37*
G36*
X130550625Y-112511875D02*
G01*
X130272813Y-112511875D01*
X130272813Y-112234062D01*
X130550625Y-112234062D01*
X130550625Y-112511875D01*
G37*
G36*
X134717813Y-112511875D02*
G01*
X134440000Y-112511875D01*
X134440000Y-112234062D01*
X134717813Y-112234062D01*
X134717813Y-112511875D01*
G37*
G36*
X132773125Y-110845000D02*
G01*
X132495313Y-110845000D01*
X132495313Y-110567188D01*
X132773125Y-110567188D01*
X132773125Y-110845000D01*
G37*
G36*
X130550625Y-106677812D02*
G01*
X130272813Y-106677812D01*
X130272813Y-106400000D01*
X130550625Y-106400000D01*
X130550625Y-106677812D01*
G37*
G36*
X134995625Y-108900312D02*
G01*
X134717813Y-108900312D01*
X134717813Y-108622500D01*
X134995625Y-108622500D01*
X134995625Y-108900312D01*
G37*
G36*
X133606563Y-109178125D02*
G01*
X133328750Y-109178125D01*
X133328750Y-108900312D01*
X133606563Y-108900312D01*
X133606563Y-109178125D01*
G37*
G36*
X129439375Y-112511875D02*
G01*
X129161563Y-112511875D01*
X129161563Y-112234062D01*
X129439375Y-112234062D01*
X129439375Y-112511875D01*
G37*
G36*
X133328750Y-112234062D02*
G01*
X133050938Y-112234062D01*
X133050938Y-111956250D01*
X133328750Y-111956250D01*
X133328750Y-112234062D01*
G37*
G36*
X129995000Y-107511250D02*
G01*
X129717188Y-107511250D01*
X129717188Y-107233437D01*
X129995000Y-107233437D01*
X129995000Y-107511250D01*
G37*
G36*
X134440000Y-113345312D02*
G01*
X134162188Y-113345312D01*
X134162188Y-113067500D01*
X134440000Y-113067500D01*
X134440000Y-113345312D01*
G37*
G36*
X134717813Y-110289375D02*
G01*
X134440000Y-110289375D01*
X134440000Y-110011562D01*
X134717813Y-110011562D01*
X134717813Y-110289375D01*
G37*
G36*
X130828438Y-110567188D02*
G01*
X130550625Y-110567188D01*
X130550625Y-110289375D01*
X130828438Y-110289375D01*
X130828438Y-110567188D01*
G37*
G36*
X132773125Y-114456562D02*
G01*
X132495313Y-114456562D01*
X132495313Y-114178750D01*
X132773125Y-114178750D01*
X132773125Y-114456562D01*
G37*
G36*
X133606563Y-110845000D02*
G01*
X133328750Y-110845000D01*
X133328750Y-110567188D01*
X133606563Y-110567188D01*
X133606563Y-110845000D01*
G37*
G36*
X132217500Y-111956250D02*
G01*
X131939688Y-111956250D01*
X131939688Y-111678437D01*
X132217500Y-111678437D01*
X132217500Y-111956250D01*
G37*
G36*
X128050313Y-111678437D02*
G01*
X127772500Y-111678437D01*
X127772500Y-111400625D01*
X128050313Y-111400625D01*
X128050313Y-111678437D01*
G37*
G36*
X131106251Y-113067500D02*
G01*
X130828438Y-113067500D01*
X130828438Y-112789687D01*
X131106251Y-112789687D01*
X131106251Y-113067500D01*
G37*
G36*
X130272813Y-108900312D02*
G01*
X129995000Y-108900312D01*
X129995000Y-108622500D01*
X130272813Y-108622500D01*
X130272813Y-108900312D01*
G37*
G36*
X132217500Y-108622500D02*
G01*
X131939688Y-108622500D01*
X131939688Y-108344687D01*
X132217500Y-108344687D01*
X132217500Y-108622500D01*
G37*
G36*
X132217500Y-107233437D02*
G01*
X131939688Y-107233437D01*
X131939688Y-106955625D01*
X132217500Y-106955625D01*
X132217500Y-107233437D01*
G37*
G36*
X132773125Y-106955625D02*
G01*
X132495313Y-106955625D01*
X132495313Y-106677812D01*
X132773125Y-106677812D01*
X132773125Y-106955625D01*
G37*
G36*
X134162188Y-111122812D02*
G01*
X133884375Y-111122812D01*
X133884375Y-110845000D01*
X134162188Y-110845000D01*
X134162188Y-111122812D01*
G37*
G36*
X131106251Y-110845000D02*
G01*
X130828438Y-110845000D01*
X130828438Y-110567188D01*
X131106251Y-110567188D01*
X131106251Y-110845000D01*
G37*
G36*
X131661875Y-106955625D02*
G01*
X131384063Y-106955625D01*
X131384063Y-106677812D01*
X131661875Y-106677812D01*
X131661875Y-106955625D01*
G37*
G36*
X133884375Y-111678437D02*
G01*
X133606563Y-111678437D01*
X133606563Y-111400625D01*
X133884375Y-111400625D01*
X133884375Y-111678437D01*
G37*
G36*
X132495313Y-107233437D02*
G01*
X132217500Y-107233437D01*
X132217500Y-106955625D01*
X132495313Y-106955625D01*
X132495313Y-107233437D01*
G37*
G36*
X133884375Y-110845000D02*
G01*
X133606563Y-110845000D01*
X133606563Y-110567188D01*
X133884375Y-110567188D01*
X133884375Y-110845000D01*
G37*
G36*
X133328750Y-110289375D02*
G01*
X133050938Y-110289375D01*
X133050938Y-110011562D01*
X133328750Y-110011562D01*
X133328750Y-110289375D01*
G37*
G36*
X132495313Y-110567188D02*
G01*
X132217500Y-110567188D01*
X132217500Y-110289375D01*
X132495313Y-110289375D01*
X132495313Y-110567188D01*
G37*
G36*
X132495313Y-108900312D02*
G01*
X132217500Y-108900312D01*
X132217500Y-108622500D01*
X132495313Y-108622500D01*
X132495313Y-108900312D01*
G37*
G36*
X133884375Y-113623125D02*
G01*
X133606563Y-113623125D01*
X133606563Y-113345312D01*
X133884375Y-113345312D01*
X133884375Y-113623125D01*
G37*
G36*
X131661875Y-110289375D02*
G01*
X131384063Y-110289375D01*
X131384063Y-110011562D01*
X131661875Y-110011562D01*
X131661875Y-110289375D01*
G37*
G36*
X132773125Y-113345312D02*
G01*
X132495313Y-113345312D01*
X132495313Y-113067500D01*
X132773125Y-113067500D01*
X132773125Y-113345312D01*
G37*
G36*
X134717813Y-110567188D02*
G01*
X134440000Y-110567188D01*
X134440000Y-110289375D01*
X134717813Y-110289375D01*
X134717813Y-110567188D01*
G37*
G36*
X134162188Y-112789687D02*
G01*
X133884375Y-112789687D01*
X133884375Y-112511875D01*
X134162188Y-112511875D01*
X134162188Y-112789687D01*
G37*
G36*
X129161563Y-110289375D02*
G01*
X128883750Y-110289375D01*
X128883750Y-110011562D01*
X129161563Y-110011562D01*
X129161563Y-110289375D01*
G37*
G36*
X129439375Y-106677812D02*
G01*
X129161563Y-106677812D01*
X129161563Y-106400000D01*
X129439375Y-106400000D01*
X129439375Y-106677812D01*
G37*
G36*
X133884375Y-111122812D02*
G01*
X133606563Y-111122812D01*
X133606563Y-110845000D01*
X133884375Y-110845000D01*
X133884375Y-111122812D01*
G37*
G36*
X129717188Y-107233437D02*
G01*
X129439375Y-107233437D01*
X129439375Y-106955625D01*
X129717188Y-106955625D01*
X129717188Y-107233437D01*
G37*
G36*
X128605938Y-110289375D02*
G01*
X128328125Y-110289375D01*
X128328125Y-110011562D01*
X128605938Y-110011562D01*
X128605938Y-110289375D01*
G37*
G36*
X128328125Y-109455937D02*
G01*
X128050313Y-109455937D01*
X128050313Y-109178125D01*
X128328125Y-109178125D01*
X128328125Y-109455937D01*
G37*
G36*
X133606563Y-113900937D02*
G01*
X133328750Y-113900937D01*
X133328750Y-113623125D01*
X133606563Y-113623125D01*
X133606563Y-113900937D01*
G37*
G36*
X129439375Y-113623125D02*
G01*
X129161563Y-113623125D01*
X129161563Y-113345312D01*
X129439375Y-113345312D01*
X129439375Y-113623125D01*
G37*
G36*
X134717813Y-110845000D02*
G01*
X134440000Y-110845000D01*
X134440000Y-110567188D01*
X134717813Y-110567188D01*
X134717813Y-110845000D01*
G37*
G36*
X127772500Y-111956250D02*
G01*
X127494688Y-111956250D01*
X127494688Y-111678437D01*
X127772500Y-111678437D01*
X127772500Y-111956250D01*
G37*
G36*
X132773125Y-113067500D02*
G01*
X132495313Y-113067500D01*
X132495313Y-112789687D01*
X132773125Y-112789687D01*
X132773125Y-113067500D01*
G37*
G36*
X60896791Y-86207483D02*
G01*
X60649907Y-86207483D01*
X60666637Y-86221551D01*
X60682836Y-86236024D01*
X60698504Y-86250903D01*
X60713641Y-86266187D01*
X60728247Y-86281877D01*
X60742322Y-86297971D01*
X60755866Y-86314471D01*
X60768879Y-86331376D01*
X60781361Y-86348687D01*
X60793312Y-86366403D01*
X60804732Y-86384524D01*
X60815620Y-86403051D01*
X60825977Y-86421983D01*
X60835803Y-86441320D01*
X60845098Y-86461062D01*
X60853861Y-86481210D01*
X60862093Y-86501694D01*
X60869794Y-86522443D01*
X60876964Y-86543457D01*
X60883603Y-86564738D01*
X60889710Y-86586283D01*
X60895287Y-86608095D01*
X60900332Y-86630172D01*
X60904846Y-86652514D01*
X60908830Y-86675122D01*
X60912282Y-86697995D01*
X60915203Y-86721134D01*
X60917593Y-86744539D01*
X60919452Y-86768208D01*
X60920779Y-86792144D01*
X60921576Y-86816344D01*
X60921842Y-86840810D01*
X60921366Y-86875467D01*
X60919941Y-86909662D01*
X60917565Y-86943396D01*
X60914238Y-86976669D01*
X60909961Y-87009480D01*
X60904734Y-87041830D01*
X60898556Y-87073719D01*
X60891428Y-87105147D01*
X60883350Y-87136113D01*
X60874322Y-87166618D01*
X60864343Y-87196662D01*
X60853414Y-87226245D01*
X60841534Y-87255366D01*
X60828705Y-87284026D01*
X60814925Y-87312225D01*
X60800195Y-87339963D01*
X60784594Y-87367092D01*
X60768211Y-87393466D01*
X60751046Y-87419085D01*
X60733098Y-87443950D01*
X60714368Y-87468060D01*
X60694856Y-87491416D01*
X60674560Y-87514017D01*
X60653483Y-87535863D01*
X60631622Y-87556955D01*
X60608979Y-87577291D01*
X60585553Y-87596873D01*
X60561344Y-87615701D01*
X60536351Y-87633773D01*
X60510576Y-87651091D01*
X60484018Y-87667654D01*
X60456676Y-87683462D01*
X60428668Y-87698411D01*
X60400101Y-87712395D01*
X60370974Y-87725415D01*
X60341288Y-87737470D01*
X60311043Y-87748561D01*
X60280239Y-87758687D01*
X60248875Y-87767849D01*
X60216952Y-87776047D01*
X60184470Y-87783280D01*
X60151429Y-87789548D01*
X60117828Y-87794853D01*
X60083668Y-87799192D01*
X60048949Y-87802568D01*
X60013671Y-87804979D01*
X59977833Y-87806425D01*
X59941436Y-87806908D01*
X59905047Y-87806425D01*
X59869230Y-87804979D01*
X59833987Y-87802568D01*
X59799318Y-87799192D01*
X59765221Y-87794853D01*
X59731698Y-87789548D01*
X59698748Y-87783280D01*
X59666371Y-87776047D01*
X59634567Y-87767849D01*
X59603336Y-87758687D01*
X59572678Y-87748561D01*
X59542593Y-87737470D01*
X59513080Y-87725415D01*
X59484141Y-87712395D01*
X59455774Y-87698411D01*
X59427979Y-87683462D01*
X59400858Y-87667654D01*
X59374505Y-87651091D01*
X59348921Y-87633773D01*
X59324105Y-87615701D01*
X59300058Y-87596873D01*
X59276779Y-87577291D01*
X59254269Y-87556955D01*
X59232528Y-87535863D01*
X59211555Y-87514017D01*
X59191351Y-87491416D01*
X59171915Y-87468060D01*
X59153249Y-87443950D01*
X59135351Y-87419085D01*
X59118221Y-87393466D01*
X59101861Y-87367092D01*
X59086269Y-87339963D01*
X59071537Y-87312225D01*
X59057755Y-87284026D01*
X59044924Y-87255366D01*
X59033043Y-87226245D01*
X59022113Y-87196662D01*
X59012133Y-87166618D01*
X59003103Y-87136113D01*
X58995025Y-87105147D01*
X58987896Y-87073719D01*
X58981718Y-87041830D01*
X58976490Y-87009480D01*
X58972213Y-86976669D01*
X58968887Y-86943396D01*
X58966511Y-86909662D01*
X58965085Y-86875467D01*
X58964610Y-86840810D01*
X58964861Y-86817671D01*
X58965616Y-86794770D01*
X58965841Y-86790717D01*
X59343889Y-86790717D01*
X59344532Y-86821236D01*
X59346461Y-86851070D01*
X59349676Y-86880220D01*
X59354176Y-86908685D01*
X59359963Y-86936464D01*
X59367035Y-86963559D01*
X59375394Y-86989969D01*
X59385038Y-87015694D01*
X59395968Y-87040734D01*
X59408184Y-87065089D01*
X59421685Y-87088760D01*
X59436472Y-87111745D01*
X59452545Y-87134045D01*
X59469904Y-87155660D01*
X59488548Y-87176590D01*
X59508478Y-87196835D01*
X59529461Y-87216117D01*
X59551253Y-87234155D01*
X59573855Y-87250949D01*
X59597268Y-87266498D01*
X59621490Y-87280804D01*
X59646523Y-87293866D01*
X59672366Y-87305684D01*
X59699019Y-87316258D01*
X59726483Y-87325588D01*
X59754758Y-87333674D01*
X59783843Y-87340516D01*
X59813739Y-87346114D01*
X59844447Y-87350468D01*
X59875965Y-87353578D01*
X59908295Y-87355444D01*
X59941436Y-87356066D01*
X59974576Y-87355444D01*
X60006904Y-87353578D01*
X60038422Y-87350468D01*
X60069129Y-87346114D01*
X60099026Y-87340516D01*
X60128112Y-87333674D01*
X60156387Y-87325588D01*
X60183852Y-87316258D01*
X60210506Y-87305684D01*
X60236349Y-87293866D01*
X60261382Y-87280804D01*
X60285603Y-87266498D01*
X60309014Y-87250949D01*
X60331614Y-87234155D01*
X60353403Y-87216117D01*
X60374381Y-87196835D01*
X60394316Y-87176590D01*
X60412964Y-87155660D01*
X60430325Y-87134045D01*
X60446400Y-87111745D01*
X60461189Y-87088760D01*
X60474692Y-87065089D01*
X60486908Y-87040734D01*
X60497838Y-87015694D01*
X60507482Y-86989969D01*
X60515840Y-86963559D01*
X60522912Y-86936464D01*
X60528698Y-86908685D01*
X60533198Y-86880220D01*
X60536412Y-86851070D01*
X60538341Y-86821236D01*
X60538984Y-86790717D01*
X60538341Y-86760191D01*
X60536412Y-86730336D01*
X60533198Y-86701152D01*
X60528698Y-86672639D01*
X60522912Y-86644797D01*
X60515840Y-86617626D01*
X60507482Y-86591126D01*
X60497838Y-86565296D01*
X60486908Y-86540138D01*
X60474692Y-86515650D01*
X60461189Y-86491833D01*
X60446400Y-86468687D01*
X60430325Y-86446212D01*
X60412964Y-86424408D01*
X60394316Y-86403274D01*
X60374381Y-86382812D01*
X60353403Y-86363314D01*
X60331614Y-86345073D01*
X60309014Y-86328091D01*
X60285603Y-86312367D01*
X60261382Y-86297901D01*
X60236349Y-86284693D01*
X60210506Y-86272743D01*
X60183852Y-86262051D01*
X60156387Y-86252616D01*
X60128112Y-86244440D01*
X60099026Y-86237521D01*
X60069129Y-86231861D01*
X60038422Y-86227458D01*
X60006904Y-86224314D01*
X59974576Y-86222427D01*
X59941436Y-86221798D01*
X59908295Y-86222427D01*
X59875965Y-86224314D01*
X59844447Y-86227458D01*
X59813739Y-86231861D01*
X59783843Y-86237521D01*
X59754758Y-86244440D01*
X59726483Y-86252616D01*
X59699019Y-86262051D01*
X59672366Y-86272743D01*
X59646523Y-86284693D01*
X59621490Y-86297901D01*
X59597268Y-86312367D01*
X59573855Y-86328091D01*
X59551253Y-86345073D01*
X59529461Y-86363314D01*
X59508478Y-86382812D01*
X59488548Y-86403274D01*
X59469904Y-86424408D01*
X59452545Y-86446212D01*
X59436472Y-86468687D01*
X59421685Y-86491833D01*
X59408184Y-86515650D01*
X59395968Y-86540138D01*
X59385038Y-86565296D01*
X59375394Y-86591126D01*
X59367035Y-86617626D01*
X59359963Y-86644797D01*
X59354176Y-86672639D01*
X59349676Y-86701152D01*
X59346461Y-86730336D01*
X59344532Y-86760191D01*
X59343889Y-86790717D01*
X58965841Y-86790717D01*
X58966874Y-86772106D01*
X58968635Y-86749680D01*
X58970900Y-86727492D01*
X58973667Y-86705541D01*
X58976938Y-86683828D01*
X58980712Y-86662352D01*
X58984989Y-86641115D01*
X58989769Y-86620114D01*
X58995051Y-86599352D01*
X59000837Y-86578826D01*
X59007127Y-86558538D01*
X59013919Y-86538488D01*
X59021214Y-86518675D01*
X59029011Y-86499100D01*
X59037301Y-86479805D01*
X59046065Y-86460831D01*
X59055305Y-86442179D01*
X59065019Y-86423849D01*
X59075209Y-86405839D01*
X59085874Y-86388152D01*
X59097014Y-86370785D01*
X59108629Y-86353740D01*
X59120719Y-86337016D01*
X59133284Y-86320614D01*
X59146324Y-86304533D01*
X59159839Y-86288773D01*
X59173830Y-86273335D01*
X59188295Y-86258218D01*
X59203235Y-86243422D01*
X59218651Y-86228948D01*
X58986081Y-86228948D01*
X58986081Y-85781683D01*
X60896791Y-85781683D01*
X60896791Y-86207483D01*
G37*
G36*
X134717813Y-111400625D02*
G01*
X134440000Y-111400625D01*
X134440000Y-111122812D01*
X134717813Y-111122812D01*
X134717813Y-111400625D01*
G37*
G36*
X128605938Y-112234062D02*
G01*
X128328125Y-112234062D01*
X128328125Y-111956250D01*
X128605938Y-111956250D01*
X128605938Y-112234062D01*
G37*
G36*
X130828438Y-111678437D02*
G01*
X130550625Y-111678437D01*
X130550625Y-111400625D01*
X130828438Y-111400625D01*
X130828438Y-111678437D01*
G37*
G36*
X132773125Y-112234062D02*
G01*
X132495313Y-112234062D01*
X132495313Y-111956250D01*
X132773125Y-111956250D01*
X132773125Y-112234062D01*
G37*
G36*
X132495313Y-113623125D02*
G01*
X132217500Y-113623125D01*
X132217500Y-113345312D01*
X132495313Y-113345312D01*
X132495313Y-113623125D01*
G37*
G36*
X131106251Y-109178125D02*
G01*
X130828438Y-109178125D01*
X130828438Y-108900312D01*
X131106251Y-108900312D01*
X131106251Y-109178125D01*
G37*
G36*
X132495313Y-108622500D02*
G01*
X132217500Y-108622500D01*
X132217500Y-108344687D01*
X132495313Y-108344687D01*
X132495313Y-108622500D01*
G37*
G36*
X129439375Y-107511250D02*
G01*
X129161563Y-107511250D01*
X129161563Y-107233437D01*
X129439375Y-107233437D01*
X129439375Y-107511250D01*
G37*
G36*
X134995625Y-112511875D02*
G01*
X134717813Y-112511875D01*
X134717813Y-112234062D01*
X134995625Y-112234062D01*
X134995625Y-112511875D01*
G37*
G36*
X128883750Y-114456562D02*
G01*
X126939063Y-114456562D01*
X126939063Y-114164859D01*
X127230766Y-114164859D01*
X128592047Y-114164859D01*
X128592047Y-112803578D01*
X127230766Y-112803578D01*
X127230766Y-114164859D01*
X126939063Y-114164859D01*
X126939063Y-112803578D01*
X126939063Y-112511875D01*
X128883750Y-112511875D01*
X128883750Y-114456562D01*
G37*
G36*
X130272813Y-109733750D02*
G01*
X129995000Y-109733750D01*
X129995000Y-109455937D01*
X130272813Y-109455937D01*
X130272813Y-109733750D01*
G37*
D11*
X134122187Y-101416874D02*
X134122187Y-105691874D01*
D10*
G36*
X133328750Y-110845000D02*
G01*
X133050938Y-110845000D01*
X133050938Y-110567188D01*
X133328750Y-110567188D01*
X133328750Y-110845000D01*
G37*
G36*
X134162188Y-110011562D02*
G01*
X133884375Y-110011562D01*
X133884375Y-109733750D01*
X134162188Y-109733750D01*
X134162188Y-110011562D01*
G37*
G36*
X132495313Y-110289375D02*
G01*
X132217500Y-110289375D01*
X132217500Y-110011562D01*
X132495313Y-110011562D01*
X132495313Y-110289375D01*
G37*
G36*
X133050938Y-114456562D02*
G01*
X132773125Y-114456562D01*
X132773125Y-114178750D01*
X133050938Y-114178750D01*
X133050938Y-114456562D01*
G37*
G36*
X130550625Y-112234062D02*
G01*
X130272813Y-112234062D01*
X130272813Y-111956250D01*
X130550625Y-111956250D01*
X130550625Y-112234062D01*
G37*
G36*
X134717813Y-112789687D02*
G01*
X134440000Y-112789687D01*
X134440000Y-112511875D01*
X134717813Y-112511875D01*
X134717813Y-112789687D01*
G37*
G36*
X129717188Y-112234062D02*
G01*
X129439375Y-112234062D01*
X129439375Y-111956250D01*
X129717188Y-111956250D01*
X129717188Y-112234062D01*
G37*
G36*
X66736617Y-37526801D02*
G01*
X66378780Y-37526801D01*
X65111016Y-34275595D01*
X65468853Y-34275595D01*
X66736617Y-37526801D01*
G37*
G36*
X130828438Y-109178125D02*
G01*
X130550625Y-109178125D01*
X130550625Y-108900312D01*
X130828438Y-108900312D01*
X130828438Y-109178125D01*
G37*
G36*
X131106251Y-108344687D02*
G01*
X130828438Y-108344687D01*
X130828438Y-108066875D01*
X131106251Y-108066875D01*
X131106251Y-108344687D01*
G37*
G36*
X130828438Y-108900312D02*
G01*
X130550625Y-108900312D01*
X130550625Y-108622500D01*
X130828438Y-108622500D01*
X130828438Y-108900312D01*
G37*
G36*
X131661875Y-110567188D02*
G01*
X131384063Y-110567188D01*
X131384063Y-110289375D01*
X131661875Y-110289375D01*
X131661875Y-110567188D01*
G37*
G36*
X134440000Y-112234062D02*
G01*
X134162188Y-112234062D01*
X134162188Y-111956250D01*
X134440000Y-111956250D01*
X134440000Y-112234062D01*
G37*
G36*
X134440000Y-113900937D02*
G01*
X134162188Y-113900937D01*
X134162188Y-113623125D01*
X134440000Y-113623125D01*
X134440000Y-113900937D01*
G37*
G36*
X129161563Y-109733750D02*
G01*
X128883750Y-109733750D01*
X128883750Y-109455937D01*
X129161563Y-109455937D01*
X129161563Y-109733750D01*
G37*
G36*
X132495313Y-110845000D02*
G01*
X132217500Y-110845000D01*
X132217500Y-110567188D01*
X132495313Y-110567188D01*
X132495313Y-110845000D01*
G37*
G36*
X132773125Y-111122812D02*
G01*
X132495313Y-111122812D01*
X132495313Y-110845000D01*
X132773125Y-110845000D01*
X132773125Y-111122812D01*
G37*
G36*
X129439375Y-106955625D02*
G01*
X129161563Y-106955625D01*
X129161563Y-106677812D01*
X129439375Y-106677812D01*
X129439375Y-106955625D01*
G37*
G36*
X129995000Y-114456562D02*
G01*
X129717188Y-114456562D01*
X129717188Y-114178750D01*
X129995000Y-114178750D01*
X129995000Y-114456562D01*
G37*
G36*
X128328125Y-110567188D02*
G01*
X128050313Y-110567188D01*
X128050313Y-110289375D01*
X128328125Y-110289375D01*
X128328125Y-110567188D01*
G37*
G36*
X128605938Y-111678437D02*
G01*
X128328125Y-111678437D01*
X128328125Y-111400625D01*
X128605938Y-111400625D01*
X128605938Y-111678437D01*
G37*
G36*
X129995000Y-108344687D02*
G01*
X129717188Y-108344687D01*
X129717188Y-108066875D01*
X129995000Y-108066875D01*
X129995000Y-108344687D01*
G37*
G36*
X129717188Y-106677812D02*
G01*
X129439375Y-106677812D01*
X129439375Y-106400000D01*
X129717188Y-106400000D01*
X129717188Y-106677812D01*
G37*
G36*
X66914403Y-37526812D02*
G01*
X66736530Y-37526812D01*
X66596897Y-37168712D01*
X66774750Y-37168671D01*
X66914403Y-37526812D01*
G37*
G36*
X133606563Y-111400625D02*
G01*
X133328750Y-111400625D01*
X133328750Y-111122812D01*
X133606563Y-111122812D01*
X133606563Y-111400625D01*
G37*
G36*
X129161563Y-111122812D02*
G01*
X128883750Y-111122812D01*
X128883750Y-110845000D01*
X129161563Y-110845000D01*
X129161563Y-111122812D01*
G37*
G36*
X129717188Y-111122812D02*
G01*
X129439375Y-111122812D01*
X129439375Y-110845000D01*
X129717188Y-110845000D01*
X129717188Y-111122812D01*
G37*
G36*
X128605938Y-108900312D02*
G01*
X128328125Y-108900312D01*
X128328125Y-108622500D01*
X128605938Y-108622500D01*
X128605938Y-108900312D01*
G37*
G36*
X134995625Y-113623125D02*
G01*
X134717813Y-113623125D01*
X134717813Y-113345312D01*
X134995625Y-113345312D01*
X134995625Y-113623125D01*
G37*
G36*
X129439375Y-109455937D02*
G01*
X129161563Y-109455937D01*
X129161563Y-109178125D01*
X129439375Y-109178125D01*
X129439375Y-109455937D01*
G37*
G36*
X127494688Y-109733750D02*
G01*
X127216875Y-109733750D01*
X127216875Y-109455937D01*
X127494688Y-109455937D01*
X127494688Y-109733750D01*
G37*
G36*
X130828438Y-108066875D02*
G01*
X130550625Y-108066875D01*
X130550625Y-107789062D01*
X130828438Y-107789062D01*
X130828438Y-108066875D01*
G37*
D12*
G36*
X146888658Y-46479921D02*
G01*
X146938220Y-46494214D01*
X146981390Y-46518150D01*
X147019065Y-46553321D01*
X147029505Y-46566282D01*
X147055311Y-46608918D01*
X147074752Y-46656880D01*
X147077325Y-46664955D01*
X147088510Y-46713190D01*
X147094320Y-46762649D01*
X147096001Y-46811730D01*
X147094533Y-46857684D01*
X147088750Y-46909179D01*
X147077439Y-46959497D01*
X147069782Y-46982452D01*
X147048421Y-47028182D01*
X147020530Y-47068429D01*
X146983161Y-47103906D01*
X146939930Y-47128757D01*
X146892791Y-47143229D01*
X146843210Y-47148053D01*
X146793568Y-47143290D01*
X146746246Y-47129002D01*
X146703198Y-47104699D01*
X146665890Y-47069895D01*
X146655526Y-47056805D01*
X146629934Y-47014062D01*
X146610691Y-46966336D01*
X146609399Y-46962326D01*
X146597891Y-46914782D01*
X146591737Y-46866100D01*
X146589686Y-46812219D01*
X146589707Y-46806729D01*
X146592226Y-46754111D01*
X146598942Y-46705645D01*
X146611179Y-46657124D01*
X146616812Y-46640791D01*
X146637860Y-46594032D01*
X146667355Y-46552100D01*
X146703716Y-46518959D01*
X146748688Y-46493726D01*
X146794545Y-46480354D01*
X146843210Y-46475896D01*
X146888658Y-46479921D01*
G37*
G36*
X153334832Y-46872927D02*
G01*
X153381347Y-46889155D01*
X153401680Y-46896208D01*
X153447292Y-46914068D01*
X153461259Y-46920048D01*
X153507936Y-46942683D01*
X153548897Y-46971221D01*
X153564869Y-46995332D01*
X153573566Y-47044494D01*
X153573329Y-47053179D01*
X153558423Y-47101158D01*
X153555500Y-47105005D01*
X153518611Y-47137550D01*
X153514554Y-47140007D01*
X153467809Y-47157334D01*
X153465969Y-47157724D01*
X153416273Y-47163684D01*
X153377057Y-47161104D01*
X153325503Y-47147560D01*
X153282673Y-47122407D01*
X153262782Y-47102874D01*
X153238804Y-47059343D01*
X153231626Y-47010788D01*
X153235536Y-46974575D01*
X153255317Y-46927013D01*
X153273910Y-46900566D01*
X153308562Y-46863510D01*
X153334832Y-46872927D01*
G37*
G36*
X153413513Y-46460382D02*
G01*
X153465305Y-46467775D01*
X153512017Y-46490307D01*
X153540943Y-46523032D01*
X153552317Y-46571151D01*
X153551216Y-46593738D01*
X153538395Y-46641981D01*
X153524339Y-46666449D01*
X153493210Y-46706706D01*
X153459630Y-46696127D01*
X153412366Y-46680327D01*
X153406260Y-46678161D01*
X153359853Y-46660544D01*
X153327382Y-46645431D01*
X153284627Y-46616580D01*
X153273528Y-46602824D01*
X153261668Y-46555031D01*
X153274613Y-46513510D01*
X153307585Y-46483712D01*
X153354724Y-46466371D01*
X153356341Y-46465995D01*
X153405283Y-46460265D01*
X153413513Y-46460382D01*
G37*
G36*
X155445484Y-46484987D02*
G01*
X155486608Y-46512261D01*
X155514075Y-46552833D01*
X155516314Y-46557743D01*
X155531667Y-46604378D01*
X155541369Y-46655903D01*
X155546914Y-46708030D01*
X155549579Y-46757084D01*
X155550467Y-46811242D01*
X155549887Y-46854545D01*
X155546842Y-46913590D01*
X155541186Y-46965542D01*
X155531289Y-47017189D01*
X155513343Y-47069406D01*
X155485632Y-47110880D01*
X155444736Y-47138759D01*
X155392931Y-47148053D01*
X155341265Y-47138759D01*
X155300451Y-47110880D01*
X155272763Y-47069406D01*
X155256521Y-47023870D01*
X155246116Y-46973833D01*
X155240025Y-46923372D01*
X155236545Y-46865922D01*
X155235638Y-46812707D01*
X155236527Y-46758127D01*
X155239192Y-46708723D01*
X155244737Y-46656270D01*
X155254439Y-46604494D01*
X155272031Y-46552833D01*
X155299475Y-46512261D01*
X155340517Y-46484987D01*
X155392931Y-46475896D01*
X155445484Y-46484987D01*
G37*
G36*
X145826915Y-46929211D02*
G01*
X145575345Y-46929211D01*
X145701130Y-46563824D01*
X145826915Y-46929211D01*
G37*
G36*
X149431390Y-46491871D02*
G01*
X149480544Y-46493970D01*
X149493607Y-46495086D01*
X149543070Y-46506671D01*
X149560931Y-46515067D01*
X149597292Y-46548681D01*
X149604238Y-46562541D01*
X149613168Y-46612184D01*
X149612560Y-46629650D01*
X149600467Y-46678862D01*
X149595181Y-46687967D01*
X149560167Y-46724047D01*
X149536629Y-46737854D01*
X149488849Y-46751402D01*
X149483455Y-46752112D01*
X149434469Y-46756142D01*
X149383091Y-46757264D01*
X149302003Y-46757264D01*
X149302003Y-46491528D01*
X149397502Y-46491528D01*
X149431390Y-46491871D01*
G37*
G36*
X154451375Y-46897948D02*
G01*
X154153887Y-46897948D01*
X154451375Y-46528408D01*
X154451375Y-46897948D01*
G37*
G36*
X155941204Y-47460631D02*
G01*
X143217233Y-47460631D01*
X143217233Y-47320000D01*
X143342233Y-47320000D01*
X143633370Y-47320000D01*
X143858074Y-46985631D01*
X144078381Y-47320000D01*
X144383440Y-47320000D01*
X144020740Y-46798053D01*
X144242413Y-46491528D01*
X144478939Y-46491528D01*
X144646490Y-46491528D01*
X144646490Y-47132421D01*
X144478939Y-47132421D01*
X144478939Y-47320000D01*
X145077823Y-47320000D01*
X145175031Y-47320000D01*
X145440768Y-47320000D01*
X145511598Y-47116789D01*
X145890663Y-47116789D01*
X145961493Y-47320000D01*
X146234068Y-47320000D01*
X146045359Y-46812219D01*
X146315645Y-46812219D01*
X146317832Y-46870814D01*
X146324392Y-46926311D01*
X146335326Y-46978708D01*
X146350633Y-47028007D01*
X146370314Y-47074207D01*
X146394368Y-47117308D01*
X146422796Y-47157311D01*
X146455597Y-47194214D01*
X146492309Y-47227359D01*
X146532350Y-47256084D01*
X146575718Y-47280390D01*
X146622414Y-47300277D01*
X146672438Y-47315744D01*
X146725790Y-47326793D01*
X146782470Y-47333421D01*
X146842477Y-47335631D01*
X146902653Y-47333421D01*
X146959470Y-47326793D01*
X147012928Y-47315744D01*
X147063029Y-47300277D01*
X147109771Y-47280390D01*
X147153154Y-47256084D01*
X147193179Y-47227359D01*
X147229846Y-47194214D01*
X147262705Y-47157311D01*
X147291182Y-47117308D01*
X147315278Y-47074207D01*
X147334993Y-47028007D01*
X147350327Y-46978708D01*
X147361280Y-46926311D01*
X147367851Y-46870814D01*
X147370042Y-46812219D01*
X147367840Y-46753234D01*
X147361234Y-46697424D01*
X147350224Y-46644790D01*
X147334810Y-46595331D01*
X147317136Y-46554054D01*
X148029253Y-46554054D01*
X148029253Y-47320000D01*
X148276671Y-47320000D01*
X148276671Y-46772163D01*
X148306255Y-46755882D01*
X148351898Y-46736992D01*
X148371330Y-46731679D01*
X148420286Y-46726001D01*
X148445278Y-46726928D01*
X148494047Y-46737725D01*
X148498925Y-46740043D01*
X148534347Y-46774849D01*
X148542144Y-46794805D01*
X148550712Y-46843482D01*
X148554218Y-46887041D01*
X148555597Y-46936538D01*
X148555597Y-47320000D01*
X148804236Y-47320000D01*
X148804236Y-46814905D01*
X148803615Y-46788247D01*
X148800509Y-46757264D01*
X149039442Y-46757264D01*
X149039442Y-47320000D01*
X149302003Y-47320000D01*
X149302003Y-46944842D01*
X149423636Y-46944842D01*
X149702561Y-47320000D01*
X150024717Y-47320000D01*
X150134627Y-47320000D01*
X150397188Y-47320000D01*
X150397188Y-47054263D01*
X151027334Y-47054263D01*
X151027334Y-47275303D01*
X151067802Y-47290429D01*
X151115659Y-47304573D01*
X151165576Y-47316580D01*
X151216400Y-47325493D01*
X151266638Y-47331080D01*
X151321638Y-47334469D01*
X151373671Y-47335631D01*
X151412248Y-47334764D01*
X151461172Y-47330909D01*
X151512783Y-47322887D01*
X151560761Y-47310963D01*
X151570945Y-47307776D01*
X151619665Y-47288752D01*
X151664712Y-47264575D01*
X151706085Y-47235247D01*
X151739005Y-47203443D01*
X151769102Y-47164106D01*
X151780138Y-47143656D01*
X152036301Y-47143656D01*
X152036301Y-47320000D01*
X152839372Y-47320000D01*
X152839372Y-47116789D01*
X152379951Y-47116789D01*
X152387233Y-47111641D01*
X152427655Y-47082118D01*
X152469832Y-47050600D01*
X152477737Y-47044641D01*
X152480736Y-47042295D01*
X152971752Y-47042295D01*
X152972141Y-47057496D01*
X152979634Y-47108713D01*
X152996664Y-47156845D01*
X153005188Y-47173080D01*
X153036096Y-47215048D01*
X153074089Y-47249413D01*
X153113846Y-47275210D01*
X153160241Y-47296850D01*
X153208179Y-47312916D01*
X153245198Y-47321767D01*
X153297327Y-47329952D01*
X153347947Y-47334211D01*
X153402596Y-47335631D01*
X153463612Y-47333562D01*
X153520419Y-47327354D01*
X153573016Y-47317009D01*
X153621403Y-47302525D01*
X153673911Y-47279681D01*
X153720356Y-47250879D01*
X153747490Y-47228935D01*
X153786268Y-47186897D01*
X153813968Y-47140231D01*
X153830587Y-47088937D01*
X153836127Y-47033014D01*
X153835926Y-47021661D01*
X153828880Y-46967756D01*
X153811768Y-46918621D01*
X153794915Y-46891109D01*
X153956050Y-46891109D01*
X153956050Y-46897948D01*
X153956050Y-47085526D01*
X154451375Y-47085526D01*
X154451375Y-47320000D01*
X154703433Y-47320000D01*
X154703433Y-47085526D01*
X154842896Y-47085526D01*
X154842896Y-46897948D01*
X154703433Y-46897948D01*
X154703433Y-46811974D01*
X154969902Y-46811974D01*
X154969906Y-46812707D01*
X154969991Y-46827739D01*
X154971699Y-46881155D01*
X154975581Y-46931837D01*
X154982679Y-46986410D01*
X154992617Y-47037411D01*
X154998734Y-47061457D01*
X155015708Y-47111906D01*
X155037125Y-47157293D01*
X155066134Y-47201786D01*
X155072514Y-47209934D01*
X155108048Y-47246895D01*
X155149641Y-47277558D01*
X155197292Y-47301926D01*
X155234381Y-47315059D01*
X155286807Y-47327205D01*
X155337885Y-47333524D01*
X155393175Y-47335631D01*
X155435650Y-47334455D01*
X155488224Y-47329226D01*
X155541822Y-47318345D01*
X155589546Y-47302170D01*
X155599387Y-47297862D01*
X155645211Y-47272574D01*
X155685406Y-47241038D01*
X155719972Y-47203251D01*
X155734822Y-47182295D01*
X155760658Y-47135088D01*
X155779506Y-47086564D01*
X155792756Y-47038632D01*
X155796947Y-47019576D01*
X155806106Y-46966472D01*
X155811716Y-46917276D01*
X155815082Y-46865533D01*
X155816204Y-46811242D01*
X155816115Y-46795483D01*
X155814407Y-46742177D01*
X155810525Y-46691746D01*
X155803427Y-46637631D01*
X155793489Y-46587271D01*
X155787383Y-46563511D01*
X155770519Y-46513566D01*
X155749327Y-46468491D01*
X155720705Y-46424117D01*
X155714241Y-46415791D01*
X155678516Y-46378115D01*
X155637114Y-46347022D01*
X155590035Y-46322512D01*
X155547872Y-46307552D01*
X155494820Y-46295831D01*
X155442666Y-46289954D01*
X155393175Y-46288318D01*
X155351976Y-46289485D01*
X155300517Y-46294676D01*
X155247370Y-46305478D01*
X155199246Y-46321535D01*
X155189257Y-46325786D01*
X155142803Y-46350935D01*
X155102169Y-46382573D01*
X155067355Y-46420697D01*
X155052147Y-46442338D01*
X155028139Y-46484958D01*
X155008458Y-46532292D01*
X154993105Y-46584340D01*
X154988959Y-46602734D01*
X154979895Y-46654765D01*
X154974343Y-46703849D01*
X154971013Y-46756252D01*
X154969902Y-46811974D01*
X154703433Y-46811974D01*
X154703433Y-46303949D01*
X154435010Y-46303949D01*
X153956050Y-46891109D01*
X153794915Y-46891109D01*
X153784592Y-46874256D01*
X153759380Y-46846096D01*
X153719135Y-46813806D01*
X153675965Y-46788802D01*
X153625834Y-46767278D01*
X153625834Y-46763126D01*
X153637338Y-46758206D01*
X153684432Y-46734436D01*
X153727785Y-46704898D01*
X153764564Y-46668604D01*
X153784439Y-46639676D01*
X153803604Y-46592679D01*
X153809993Y-46541353D01*
X153809888Y-46534208D01*
X153801492Y-46480296D01*
X153779663Y-46432153D01*
X153744400Y-46389781D01*
X153702526Y-46357438D01*
X153666933Y-46337526D01*
X153618917Y-46318086D01*
X153565113Y-46303505D01*
X153515855Y-46295068D01*
X153462578Y-46290005D01*
X153405283Y-46288318D01*
X153361216Y-46289505D01*
X153309105Y-46294326D01*
X153260299Y-46302857D01*
X153206091Y-46317989D01*
X153156640Y-46338463D01*
X153111947Y-46364277D01*
X153091825Y-46378900D01*
X153052570Y-46415974D01*
X153024091Y-46457185D01*
X153004739Y-46509350D01*
X152999824Y-46555031D01*
X152999351Y-46559427D01*
X153003430Y-46607918D01*
X153017338Y-46656905D01*
X153041116Y-46701332D01*
X153046553Y-46708884D01*
X153083069Y-46747518D01*
X153125984Y-46778382D01*
X153172519Y-46802693D01*
X153172519Y-46806845D01*
X153139542Y-46820865D01*
X153093425Y-46844786D01*
X153051325Y-46873886D01*
X153016692Y-46908939D01*
X152994968Y-46942989D01*
X152977062Y-46992597D01*
X152975118Y-47010788D01*
X152971752Y-47042295D01*
X152480736Y-47042295D01*
X152517174Y-47013791D01*
X152556467Y-46981176D01*
X152595618Y-46946796D01*
X152607874Y-46935491D01*
X152647614Y-46896251D01*
X152682446Y-46857526D01*
X152716243Y-46813898D01*
X152743629Y-46770942D01*
X152757561Y-46744001D01*
X152776687Y-46694366D01*
X152788163Y-46643262D01*
X152791989Y-46590690D01*
X152789520Y-46547109D01*
X152780040Y-46499047D01*
X152759995Y-46448813D01*
X152730272Y-46404867D01*
X152690872Y-46367208D01*
X152657119Y-46344481D01*
X152610729Y-46322293D01*
X152557915Y-46305652D01*
X152508997Y-46296022D01*
X152455619Y-46290244D01*
X152397781Y-46288318D01*
X152367943Y-46288848D01*
X152314266Y-46292478D01*
X152260627Y-46299547D01*
X152207027Y-46310055D01*
X152162407Y-46320924D01*
X152110476Y-46335869D01*
X152063168Y-46353531D01*
X152063168Y-46585317D01*
X152085150Y-46585317D01*
X152123504Y-46561103D01*
X152167897Y-46537773D01*
X152214599Y-46517906D01*
X152244844Y-46507628D01*
X152295225Y-46495881D01*
X152347711Y-46491528D01*
X152382790Y-46493293D01*
X152434115Y-46504530D01*
X152477160Y-46528408D01*
X152490107Y-46540621D01*
X152514683Y-46582936D01*
X152522100Y-46632944D01*
X152521242Y-46650541D01*
X152509701Y-46700256D01*
X152486929Y-46747006D01*
X152474840Y-46765508D01*
X152443613Y-46805445D01*
X152407474Y-46844733D01*
X152368960Y-46882316D01*
X152338811Y-46909717D01*
X152299384Y-46943572D01*
X152259438Y-46976358D01*
X152220705Y-47007124D01*
X152197628Y-47025072D01*
X152157261Y-47055875D01*
X152116918Y-47085907D01*
X152076598Y-47115167D01*
X152036301Y-47143656D01*
X151780138Y-47143656D01*
X151792791Y-47120209D01*
X151808634Y-47077156D01*
X151819283Y-47027319D01*
X151822833Y-46974884D01*
X151822799Y-46969145D01*
X151818677Y-46915106D01*
X151807686Y-46867173D01*
X151787662Y-46821500D01*
X151768474Y-46792481D01*
X151733223Y-46754619D01*
X151690209Y-46723558D01*
X151668294Y-46711759D01*
X151623004Y-46693009D01*
X151575904Y-46679351D01*
X151528234Y-46670312D01*
X151476234Y-46665025D01*
X151425206Y-46663475D01*
X151417230Y-46663505D01*
X151367564Y-46664696D01*
X151363548Y-46664819D01*
X151313831Y-46666894D01*
X151313831Y-46507159D01*
X151793280Y-46507159D01*
X151793280Y-46303949D01*
X151065925Y-46303949D01*
X151065925Y-46882316D01*
X151096211Y-46882316D01*
X151145363Y-46871348D01*
X151195373Y-46861556D01*
X151213206Y-46858530D01*
X151264470Y-46852787D01*
X151313831Y-46851053D01*
X151358894Y-46852763D01*
X151408597Y-46857892D01*
X151451433Y-46866681D01*
X151497990Y-46886224D01*
X151504195Y-46890098D01*
X151539511Y-46925547D01*
X151544990Y-46934958D01*
X151555631Y-46983677D01*
X151555211Y-46999182D01*
X151543664Y-47047913D01*
X151541319Y-47051801D01*
X151508248Y-47088946D01*
X151475927Y-47108745D01*
X151428137Y-47123140D01*
X151385301Y-47129484D01*
X151334347Y-47132421D01*
X151289678Y-47130250D01*
X151240321Y-47122849D01*
X151190733Y-47110195D01*
X151146631Y-47095078D01*
X151100267Y-47075969D01*
X151056155Y-47054263D01*
X151027334Y-47054263D01*
X150397188Y-47054263D01*
X150397188Y-46897948D01*
X150833405Y-46897948D01*
X150833405Y-46694738D01*
X150397188Y-46694738D01*
X150397188Y-46507159D01*
X150867599Y-46507159D01*
X150867599Y-46303949D01*
X150134627Y-46303949D01*
X150134627Y-47320000D01*
X150024717Y-47320000D01*
X149683266Y-46882316D01*
X149718231Y-46863898D01*
X149759935Y-46836749D01*
X149800138Y-46802666D01*
X149833231Y-46764836D01*
X149853692Y-46731872D01*
X149872615Y-46683686D01*
X149882461Y-46635372D01*
X149885743Y-46581898D01*
X149883621Y-46542834D01*
X149872482Y-46490707D01*
X149851793Y-46446343D01*
X149835795Y-46423686D01*
X149800006Y-46386694D01*
X149759958Y-46358415D01*
X149734663Y-46344613D01*
X149685578Y-46325118D01*
X149637837Y-46314207D01*
X149629585Y-46312965D01*
X149580619Y-46307566D01*
X149530845Y-46304761D01*
X149481765Y-46303949D01*
X149039442Y-46303949D01*
X149039442Y-46757264D01*
X148800509Y-46757264D01*
X148798652Y-46738742D01*
X148786589Y-46687411D01*
X148764531Y-46637219D01*
X148733650Y-46596064D01*
X148729200Y-46591556D01*
X148689774Y-46560644D01*
X148643540Y-46538891D01*
X148590497Y-46526297D01*
X148538500Y-46522791D01*
X148502214Y-46524516D01*
X148450935Y-46533572D01*
X148403433Y-46550390D01*
X148361016Y-46572222D01*
X148317386Y-46599768D01*
X148276671Y-46629769D01*
X148276671Y-46554054D01*
X148029253Y-46554054D01*
X147317136Y-46554054D01*
X147314992Y-46549047D01*
X147290770Y-46505938D01*
X147262144Y-46466004D01*
X147229114Y-46429246D01*
X147192298Y-46396216D01*
X147152192Y-46367590D01*
X147108797Y-46343368D01*
X147062113Y-46323550D01*
X147012138Y-46308136D01*
X146958874Y-46297126D01*
X146902321Y-46290520D01*
X146842477Y-46288318D01*
X146782470Y-46290520D01*
X146725790Y-46297126D01*
X146672438Y-46308136D01*
X146622414Y-46323550D01*
X146575718Y-46343368D01*
X146532350Y-46367590D01*
X146492309Y-46396216D01*
X146455597Y-46429246D01*
X146422796Y-46466004D01*
X146394368Y-46505938D01*
X146370314Y-46549047D01*
X146350633Y-46595331D01*
X146335326Y-46644790D01*
X146324392Y-46697424D01*
X146317832Y-46753234D01*
X146315645Y-46812219D01*
X146045359Y-46812219D01*
X145856469Y-46303949D01*
X145552631Y-46303949D01*
X145320262Y-46929211D01*
X145175031Y-47320000D01*
X145077823Y-47320000D01*
X145077823Y-47132421D01*
X144910272Y-47132421D01*
X144910272Y-46491528D01*
X145077823Y-46491528D01*
X145077823Y-46303949D01*
X144478939Y-46303949D01*
X144478939Y-46491528D01*
X144242413Y-46491528D01*
X144378067Y-46303949D01*
X144085952Y-46303949D01*
X143866867Y-46620488D01*
X143653887Y-46303949D01*
X143349560Y-46303949D01*
X143704934Y-46808311D01*
X143342233Y-47320000D01*
X143217233Y-47320000D01*
X143217233Y-46163318D01*
X155941204Y-46163318D01*
X155941204Y-47460631D01*
G37*
D11*
G36*
X74822499Y-38412371D02*
G01*
X74871653Y-38414470D01*
X74884716Y-38415586D01*
X74934179Y-38427171D01*
X74952039Y-38435567D01*
X74988401Y-38469181D01*
X74995346Y-38483041D01*
X75004277Y-38532684D01*
X75003669Y-38550150D01*
X74991576Y-38599362D01*
X74986289Y-38608467D01*
X74951276Y-38644547D01*
X74927737Y-38658354D01*
X74879957Y-38671902D01*
X74874564Y-38672612D01*
X74825578Y-38676642D01*
X74774200Y-38677764D01*
X74693111Y-38677764D01*
X74693111Y-38412028D01*
X74788610Y-38412028D01*
X74822499Y-38412371D01*
G37*
G36*
X77431787Y-39367242D02*
G01*
X74319439Y-39367242D01*
X74319439Y-38677764D01*
X74430550Y-38677764D01*
X74430550Y-39240500D01*
X74693111Y-39240500D01*
X74693111Y-38865342D01*
X74814744Y-38865342D01*
X75093670Y-39240500D01*
X75415826Y-39240500D01*
X75171932Y-38927869D01*
X75470292Y-38927869D01*
X75470292Y-39176264D01*
X75496312Y-39186810D01*
X75544651Y-39204320D01*
X75594921Y-39219937D01*
X75647124Y-39233661D01*
X75659066Y-39236382D01*
X75709372Y-39245510D01*
X75763739Y-39251830D01*
X75814641Y-39255056D01*
X75868652Y-39256131D01*
X75909061Y-39255311D01*
X75960428Y-39251666D01*
X76020602Y-39243011D01*
X76076291Y-39229799D01*
X76127496Y-39212032D01*
X76174217Y-39189709D01*
X76216454Y-39162830D01*
X76231981Y-39150948D01*
X76272553Y-39112669D01*
X76304109Y-39070440D01*
X76326649Y-39024261D01*
X76340173Y-38974132D01*
X76344681Y-38920053D01*
X76343807Y-38894530D01*
X76335450Y-38841567D01*
X76318245Y-38794787D01*
X76288750Y-38750060D01*
X76256937Y-38719041D01*
X76211952Y-38688232D01*
X76163790Y-38664479D01*
X76115337Y-38646501D01*
X76104186Y-38643002D01*
X76053964Y-38628603D01*
X76003474Y-38616703D01*
X75993727Y-38614638D01*
X75943831Y-38604184D01*
X75895519Y-38594233D01*
X75874884Y-38589779D01*
X75823284Y-38575732D01*
X75778526Y-38555398D01*
X75763650Y-38541840D01*
X75747752Y-38493849D01*
X75766803Y-38447443D01*
X75770487Y-38443732D01*
X75812965Y-38417157D01*
X75826320Y-38412283D01*
X75875735Y-38400793D01*
X75892115Y-38398869D01*
X75941436Y-38396396D01*
X75970574Y-38397165D01*
X76022540Y-38402427D01*
X76073889Y-38412673D01*
X76124619Y-38427904D01*
X76141181Y-38433901D01*
X76187931Y-38453515D01*
X76234709Y-38478163D01*
X76276049Y-38505817D01*
X76304137Y-38505817D01*
X76304137Y-38427659D01*
X76417954Y-38427659D01*
X76737424Y-38427659D01*
X76737424Y-39240500D01*
X77001206Y-39240500D01*
X77001206Y-38427659D01*
X77320676Y-38427659D01*
X77320676Y-38224449D01*
X76417954Y-38224449D01*
X76417954Y-38427659D01*
X76304137Y-38427659D01*
X76304137Y-38275740D01*
X76285708Y-38268688D01*
X76235996Y-38252392D01*
X76186810Y-38239358D01*
X76133411Y-38227869D01*
X76084028Y-38219534D01*
X76034310Y-38213580D01*
X75984255Y-38210008D01*
X75933865Y-38208818D01*
X75908993Y-38209167D01*
X75849310Y-38213095D01*
X75793192Y-38221389D01*
X75740641Y-38234047D01*
X75691655Y-38251070D01*
X75646235Y-38272458D01*
X75604381Y-38298211D01*
X75588883Y-38309557D01*
X75548389Y-38346036D01*
X75516893Y-38386173D01*
X75494396Y-38429968D01*
X75480897Y-38477421D01*
X75476398Y-38528532D01*
X75477781Y-38560587D01*
X75487244Y-38614050D01*
X75505671Y-38662064D01*
X75533062Y-38704631D01*
X75536675Y-38709029D01*
X75575562Y-38746037D01*
X75619762Y-38775041D01*
X75665875Y-38797414D01*
X75718931Y-38816982D01*
X75740281Y-38823628D01*
X75788481Y-38836497D01*
X75839343Y-38847269D01*
X75863208Y-38851734D01*
X75913384Y-38861879D01*
X75961464Y-38872670D01*
X76001721Y-38885042D01*
X76044751Y-38909795D01*
X76055886Y-38920711D01*
X76073328Y-38966948D01*
X76073022Y-38975591D01*
X76053788Y-39020925D01*
X76047420Y-39026424D01*
X76003963Y-39050967D01*
X75988927Y-39055900D01*
X75939971Y-39064645D01*
X75925849Y-39065973D01*
X75876956Y-39068553D01*
X75835656Y-39066811D01*
X75781457Y-39059454D01*
X75732242Y-39048082D01*
X75682051Y-39032160D01*
X75632698Y-39011995D01*
X75585758Y-38987891D01*
X75541229Y-38959849D01*
X75499113Y-38927869D01*
X75470292Y-38927869D01*
X75171932Y-38927869D01*
X75074374Y-38802816D01*
X75109339Y-38784398D01*
X75151044Y-38757249D01*
X75191246Y-38723166D01*
X75224339Y-38685336D01*
X75244801Y-38652372D01*
X75263724Y-38604186D01*
X75273570Y-38555872D01*
X75276852Y-38502398D01*
X75274730Y-38463334D01*
X75263590Y-38411207D01*
X75242902Y-38366843D01*
X75226904Y-38344186D01*
X75191115Y-38307194D01*
X75151067Y-38278915D01*
X75125772Y-38265113D01*
X75076687Y-38245618D01*
X75028945Y-38234707D01*
X75020693Y-38233465D01*
X74971727Y-38228066D01*
X74921953Y-38225261D01*
X74872874Y-38224449D01*
X74430550Y-38224449D01*
X74430550Y-38677764D01*
X74319439Y-38677764D01*
X74319439Y-38097707D01*
X77431787Y-38097707D01*
X77431787Y-39367242D01*
G37*
G36*
X104717292Y-93882323D02*
G01*
X104767675Y-93882523D01*
X104819581Y-93883049D01*
X104854117Y-93884476D01*
X104904822Y-93892330D01*
X104928152Y-93900636D01*
X104968814Y-93931165D01*
X104981148Y-93955828D01*
X104987865Y-94004926D01*
X104986888Y-94022603D01*
X104972233Y-94069406D01*
X104958624Y-94087250D01*
X104915813Y-94114103D01*
X104876139Y-94126360D01*
X104827153Y-94131688D01*
X104824084Y-94131733D01*
X104772990Y-94132189D01*
X104719533Y-94132375D01*
X104667906Y-94132421D01*
X104648611Y-94132421D01*
X104648611Y-93882316D01*
X104706253Y-93882316D01*
X104717292Y-93882323D01*
G37*
G36*
X104692155Y-93491547D02*
G01*
X104742278Y-93491833D01*
X104793936Y-93492749D01*
X104816995Y-93494091D01*
X104865743Y-93504717D01*
X104875341Y-93508937D01*
X104910684Y-93543063D01*
X104912222Y-93546269D01*
X104923384Y-93594354D01*
X104923116Y-93604614D01*
X104912394Y-93653217D01*
X104905356Y-93665230D01*
X104865743Y-93694494D01*
X104846086Y-93701428D01*
X104796378Y-93708415D01*
X104790810Y-93708652D01*
X104741046Y-93709995D01*
X104689888Y-93710369D01*
X104648611Y-93710369D01*
X104648611Y-93491528D01*
X104673280Y-93491528D01*
X104692155Y-93491547D01*
G37*
G36*
X105989993Y-93929211D02*
G01*
X105738423Y-93929211D01*
X105864208Y-93563824D01*
X105989993Y-93929211D01*
G37*
G36*
X108549883Y-94431111D02*
G01*
X104274939Y-94431111D01*
X104274939Y-93710369D01*
X104386050Y-93710369D01*
X104386050Y-94132421D01*
X104386050Y-94320000D01*
X104832770Y-94320000D01*
X105338109Y-94320000D01*
X105603845Y-94320000D01*
X105674675Y-94116789D01*
X106053740Y-94116789D01*
X106124571Y-94320000D01*
X106397146Y-94320000D01*
X106095066Y-93507159D01*
X106435980Y-93507159D01*
X106755450Y-93507159D01*
X106755450Y-94320000D01*
X107019232Y-94320000D01*
X107019232Y-93960474D01*
X107914627Y-93960474D01*
X108438772Y-93960474D01*
X108438772Y-93772896D01*
X107914627Y-93772896D01*
X107914627Y-93960474D01*
X107019232Y-93960474D01*
X107019232Y-93507159D01*
X107338702Y-93507159D01*
X107338702Y-93303949D01*
X106435980Y-93303949D01*
X106435980Y-93507159D01*
X106095066Y-93507159D01*
X106019546Y-93303949D01*
X105715708Y-93303949D01*
X105483339Y-93929211D01*
X105338109Y-94320000D01*
X104832770Y-94320000D01*
X104866556Y-94319540D01*
X104916695Y-94316896D01*
X104967335Y-94311110D01*
X105016441Y-94301193D01*
X105060586Y-94286782D01*
X105106391Y-94265144D01*
X105149309Y-94237445D01*
X105168120Y-94222479D01*
X105203456Y-94185397D01*
X105231375Y-94141946D01*
X105244518Y-94112149D01*
X105257192Y-94063789D01*
X105261417Y-94011032D01*
X105260899Y-93992464D01*
X105253139Y-93940908D01*
X105233595Y-93890919D01*
X105202554Y-93848611D01*
X105183216Y-93830332D01*
X105138422Y-93799964D01*
X105091133Y-93779689D01*
X105043552Y-93767278D01*
X105043552Y-93761905D01*
X105081119Y-93742074D01*
X105120107Y-93712484D01*
X105153950Y-93673489D01*
X105172958Y-93640106D01*
X105188626Y-93591328D01*
X105193273Y-93542330D01*
X105192826Y-93526496D01*
X105184231Y-93474624D01*
X105164696Y-93428269D01*
X105155103Y-93413187D01*
X105120375Y-93376162D01*
X105077746Y-93348646D01*
X105060161Y-93340351D01*
X105014162Y-93323306D01*
X104964173Y-93312254D01*
X104935894Y-93309018D01*
X104884508Y-93305774D01*
X104834091Y-93304347D01*
X104783189Y-93303949D01*
X104386050Y-93303949D01*
X104386050Y-93710369D01*
X104274939Y-93710369D01*
X104274939Y-93192838D01*
X108549883Y-93192838D01*
X108549883Y-94431111D01*
G37*
G36*
X104447292Y-96932323D02*
G01*
X104497675Y-96932523D01*
X104549581Y-96933049D01*
X104584117Y-96934476D01*
X104634822Y-96942330D01*
X104658152Y-96950636D01*
X104698814Y-96981165D01*
X104711148Y-97005828D01*
X104717865Y-97054926D01*
X104716888Y-97072603D01*
X104702233Y-97119406D01*
X104688624Y-97137250D01*
X104645813Y-97164103D01*
X104606139Y-97176360D01*
X104557153Y-97181688D01*
X104554084Y-97181733D01*
X104502990Y-97182189D01*
X104449533Y-97182375D01*
X104397906Y-97182421D01*
X104378611Y-97182421D01*
X104378611Y-96932316D01*
X104436253Y-96932316D01*
X104447292Y-96932323D01*
G37*
G36*
X104422155Y-96541547D02*
G01*
X104472278Y-96541833D01*
X104523936Y-96542749D01*
X104546995Y-96544091D01*
X104595743Y-96554717D01*
X104605341Y-96558937D01*
X104640684Y-96593063D01*
X104642222Y-96596269D01*
X104653384Y-96644354D01*
X104653116Y-96654614D01*
X104642394Y-96703217D01*
X104635356Y-96715230D01*
X104595743Y-96744494D01*
X104576086Y-96751428D01*
X104526378Y-96758415D01*
X104520810Y-96758652D01*
X104471046Y-96759995D01*
X104419888Y-96760369D01*
X104378611Y-96760369D01*
X104378611Y-96541528D01*
X104403280Y-96541528D01*
X104422155Y-96541547D01*
G37*
G36*
X105719993Y-96979211D02*
G01*
X105468423Y-96979211D01*
X105594208Y-96613824D01*
X105719993Y-96979211D01*
G37*
G36*
X108750539Y-97481111D02*
G01*
X104004939Y-97481111D01*
X104004939Y-96760369D01*
X104116050Y-96760369D01*
X104116050Y-97182421D01*
X104116050Y-97370000D01*
X104562770Y-97370000D01*
X105068109Y-97370000D01*
X105333845Y-97370000D01*
X105404675Y-97166789D01*
X105783740Y-97166789D01*
X105854571Y-97370000D01*
X106127146Y-97370000D01*
X105825066Y-96557159D01*
X106165980Y-96557159D01*
X106485450Y-96557159D01*
X106485450Y-97370000D01*
X106749232Y-97370000D01*
X106749232Y-96822896D01*
X107718876Y-96822896D01*
X107718876Y-97010474D01*
X108084996Y-97010474D01*
X108084996Y-97370000D01*
X108273308Y-97370000D01*
X108273308Y-97010474D01*
X108639428Y-97010474D01*
X108639428Y-96822896D01*
X108273308Y-96822896D01*
X108273308Y-96463370D01*
X108084996Y-96463370D01*
X108084996Y-96822896D01*
X107718876Y-96822896D01*
X106749232Y-96822896D01*
X106749232Y-96557159D01*
X107068702Y-96557159D01*
X107068702Y-96353949D01*
X106165980Y-96353949D01*
X106165980Y-96557159D01*
X105825066Y-96557159D01*
X105749546Y-96353949D01*
X105445708Y-96353949D01*
X105213339Y-96979211D01*
X105068109Y-97370000D01*
X104562770Y-97370000D01*
X104596556Y-97369540D01*
X104646695Y-97366896D01*
X104697335Y-97361110D01*
X104746441Y-97351193D01*
X104790586Y-97336782D01*
X104836391Y-97315144D01*
X104879309Y-97287445D01*
X104898120Y-97272479D01*
X104933456Y-97235397D01*
X104961375Y-97191946D01*
X104974518Y-97162149D01*
X104987192Y-97113789D01*
X104991417Y-97061032D01*
X104990899Y-97042464D01*
X104983139Y-96990908D01*
X104963595Y-96940919D01*
X104932554Y-96898611D01*
X104913216Y-96880332D01*
X104868422Y-96849964D01*
X104821133Y-96829689D01*
X104773552Y-96817278D01*
X104773552Y-96811905D01*
X104811119Y-96792074D01*
X104850107Y-96762484D01*
X104883950Y-96723489D01*
X104902958Y-96690106D01*
X104918626Y-96641328D01*
X104923273Y-96592330D01*
X104922826Y-96576496D01*
X104914231Y-96524624D01*
X104894696Y-96478269D01*
X104885103Y-96463187D01*
X104850375Y-96426162D01*
X104807746Y-96398646D01*
X104790161Y-96390351D01*
X104744162Y-96373306D01*
X104694173Y-96362254D01*
X104665894Y-96359018D01*
X104614508Y-96355774D01*
X104564091Y-96354347D01*
X104513189Y-96353949D01*
X104116050Y-96353949D01*
X104116050Y-96760369D01*
X104004939Y-96760369D01*
X104004939Y-96242838D01*
X108750539Y-96242838D01*
X108750539Y-97481111D01*
G37*
G36*
X104833229Y-102330447D02*
G01*
X104883612Y-102330647D01*
X104935518Y-102331173D01*
X104970054Y-102332600D01*
X105020759Y-102340454D01*
X105044089Y-102348760D01*
X105084751Y-102379289D01*
X105097085Y-102403952D01*
X105103802Y-102453050D01*
X105102825Y-102470727D01*
X105088170Y-102517530D01*
X105074561Y-102535374D01*
X105031750Y-102562227D01*
X104992076Y-102574484D01*
X104943090Y-102579812D01*
X104940021Y-102579857D01*
X104888927Y-102580313D01*
X104835470Y-102580499D01*
X104783843Y-102580545D01*
X104764548Y-102580545D01*
X104764548Y-102330440D01*
X104822190Y-102330440D01*
X104833229Y-102330447D01*
G37*
G36*
X104808092Y-101939671D02*
G01*
X104858215Y-101939957D01*
X104909873Y-101940873D01*
X104932932Y-101942215D01*
X104981680Y-101952841D01*
X104991278Y-101957061D01*
X105026621Y-101991187D01*
X105028159Y-101994393D01*
X105039321Y-102042478D01*
X105039053Y-102052738D01*
X105028331Y-102101341D01*
X105021293Y-102113354D01*
X104981680Y-102142618D01*
X104962023Y-102149552D01*
X104912315Y-102156539D01*
X104906747Y-102156776D01*
X104856983Y-102158119D01*
X104805825Y-102158493D01*
X104764548Y-102158493D01*
X104764548Y-101939652D01*
X104789217Y-101939652D01*
X104808092Y-101939671D01*
G37*
G36*
X106105930Y-102377335D02*
G01*
X105854360Y-102377335D01*
X105980145Y-102011948D01*
X106105930Y-102377335D01*
G37*
G36*
X109909707Y-101939995D02*
G01*
X109958861Y-101942094D01*
X109971924Y-101943210D01*
X110021387Y-101954795D01*
X110039247Y-101963191D01*
X110075609Y-101996805D01*
X110082555Y-102010665D01*
X110091485Y-102060308D01*
X110090877Y-102077774D01*
X110078784Y-102126986D01*
X110073498Y-102136091D01*
X110038484Y-102172171D01*
X110014945Y-102185978D01*
X109967165Y-102199526D01*
X109961772Y-102200236D01*
X109912786Y-102204266D01*
X109861408Y-102205388D01*
X109780319Y-102205388D01*
X109780319Y-101939652D01*
X109875818Y-101939652D01*
X109909707Y-101939995D01*
G37*
G36*
X111624089Y-102879235D02*
G01*
X104390876Y-102879235D01*
X104390876Y-102158493D01*
X104501987Y-102158493D01*
X104501987Y-102580545D01*
X104501987Y-102768124D01*
X104948707Y-102768124D01*
X105454046Y-102768124D01*
X105719782Y-102768124D01*
X105790612Y-102564913D01*
X106169677Y-102564913D01*
X106240508Y-102768124D01*
X106513083Y-102768124D01*
X106211003Y-101955283D01*
X106551917Y-101955283D01*
X106871387Y-101955283D01*
X106871387Y-102768124D01*
X107135169Y-102768124D01*
X107135169Y-101955283D01*
X107454639Y-101955283D01*
X107505441Y-101955283D01*
X107824911Y-101955283D01*
X107824911Y-102768124D01*
X108088693Y-102768124D01*
X108561303Y-102768124D01*
X109301115Y-102768124D01*
X109301115Y-102564913D01*
X108823864Y-102564913D01*
X108823864Y-102330440D01*
X109266921Y-102330440D01*
X109266921Y-102205388D01*
X109517758Y-102205388D01*
X109517758Y-102768124D01*
X109780319Y-102768124D01*
X109780319Y-102392966D01*
X109901952Y-102392966D01*
X110180878Y-102768124D01*
X110503034Y-102768124D01*
X110161582Y-102330440D01*
X110196547Y-102312022D01*
X110238252Y-102284873D01*
X110278455Y-102250790D01*
X110311548Y-102212960D01*
X110332009Y-102179996D01*
X110350932Y-102131810D01*
X110360778Y-102083496D01*
X110364060Y-102030022D01*
X110361938Y-101990958D01*
X110350798Y-101938831D01*
X110330110Y-101894467D01*
X110314112Y-101871810D01*
X110278323Y-101834818D01*
X110238275Y-101806539D01*
X110212980Y-101792737D01*
X110163895Y-101773242D01*
X110116153Y-101762331D01*
X110107901Y-101761089D01*
X110058935Y-101755690D01*
X110009161Y-101752885D01*
X109960082Y-101752073D01*
X110488624Y-101752073D01*
X110872085Y-102387349D01*
X110872085Y-102768124D01*
X111135867Y-102768124D01*
X111135867Y-102375137D01*
X111512978Y-101752073D01*
X111223062Y-101752073D01*
X111009349Y-102145060D01*
X110788065Y-101752073D01*
X110488624Y-101752073D01*
X109960082Y-101752073D01*
X109517758Y-101752073D01*
X109517758Y-102205388D01*
X109266921Y-102205388D01*
X109266921Y-102127230D01*
X108823864Y-102127230D01*
X108823864Y-101955283D01*
X109301115Y-101955283D01*
X109301115Y-101752073D01*
X108561303Y-101752073D01*
X108561303Y-102768124D01*
X108088693Y-102768124D01*
X108088693Y-101955283D01*
X108408163Y-101955283D01*
X108408163Y-101752073D01*
X107505441Y-101752073D01*
X107505441Y-101955283D01*
X107454639Y-101955283D01*
X107454639Y-101752073D01*
X106551917Y-101752073D01*
X106551917Y-101955283D01*
X106211003Y-101955283D01*
X106135483Y-101752073D01*
X105831645Y-101752073D01*
X105599276Y-102377335D01*
X105454046Y-102768124D01*
X104948707Y-102768124D01*
X104982493Y-102767664D01*
X105032632Y-102765020D01*
X105083272Y-102759234D01*
X105132378Y-102749317D01*
X105176523Y-102734906D01*
X105222328Y-102713268D01*
X105265246Y-102685569D01*
X105284057Y-102670603D01*
X105319393Y-102633521D01*
X105347312Y-102590070D01*
X105360455Y-102560273D01*
X105373129Y-102511913D01*
X105377354Y-102459156D01*
X105376836Y-102440588D01*
X105369076Y-102389032D01*
X105349532Y-102339043D01*
X105318491Y-102296735D01*
X105299153Y-102278456D01*
X105254359Y-102248088D01*
X105207070Y-102227813D01*
X105159489Y-102215402D01*
X105159489Y-102210029D01*
X105197056Y-102190198D01*
X105236044Y-102160608D01*
X105269887Y-102121613D01*
X105288895Y-102088230D01*
X105304563Y-102039452D01*
X105309210Y-101990454D01*
X105308763Y-101974620D01*
X105300168Y-101922748D01*
X105280633Y-101876393D01*
X105271040Y-101861311D01*
X105236312Y-101824286D01*
X105193683Y-101796770D01*
X105176098Y-101788475D01*
X105130099Y-101771430D01*
X105080110Y-101760378D01*
X105051831Y-101757142D01*
X105000445Y-101753898D01*
X104950028Y-101752471D01*
X104899126Y-101752073D01*
X104501987Y-101752073D01*
X104501987Y-102158493D01*
X104390876Y-102158493D01*
X104390876Y-101640962D01*
X111624089Y-101640962D01*
X111624089Y-102879235D01*
G37*
%TO.C,SWR2*%
X83445625Y-41365000D02*
X83445625Y-40365000D01*
X83445625Y-54365000D02*
X83445625Y-53365000D01*
X83445625Y-54365000D02*
X84445625Y-54365000D01*
X84445625Y-40365000D02*
X83445625Y-40365000D01*
X96445625Y-54365000D02*
X97445625Y-54365000D01*
X97445625Y-40365000D02*
X96445625Y-40365000D01*
X97445625Y-40365000D02*
X97445625Y-41365000D01*
X97445625Y-53365000D02*
X97445625Y-54365000D01*
%TO.C,SWR10*%
X140445625Y-76040000D02*
X140445625Y-75040000D01*
X140445625Y-89040000D02*
X140445625Y-88040000D01*
X140445625Y-89040000D02*
X141445625Y-89040000D01*
X141445625Y-75040000D02*
X140445625Y-75040000D01*
X153445625Y-89040000D02*
X154445625Y-89040000D01*
X154445625Y-75040000D02*
X153445625Y-75040000D01*
X154445625Y-75040000D02*
X154445625Y-76040000D01*
X154445625Y-88040000D02*
X154445625Y-89040000D01*
%TO.C,SWR7*%
X83445625Y-60365000D02*
X83445625Y-59365000D01*
X83445625Y-73365000D02*
X83445625Y-72365000D01*
X83445625Y-73365000D02*
X84445625Y-73365000D01*
X84445625Y-59365000D02*
X83445625Y-59365000D01*
X96445625Y-73365000D02*
X97445625Y-73365000D01*
X97445625Y-59365000D02*
X96445625Y-59365000D01*
X97445625Y-59365000D02*
X97445625Y-60365000D01*
X97445625Y-72365000D02*
X97445625Y-73365000D01*
%TO.C,SWR18*%
X83445625Y-104065000D02*
X83445625Y-103065000D01*
X83445625Y-117065000D02*
X83445625Y-116065000D01*
X83445625Y-117065000D02*
X84445625Y-117065000D01*
X84445625Y-103065000D02*
X83445625Y-103065000D01*
X96445625Y-117065000D02*
X97445625Y-117065000D01*
X97445625Y-103065000D02*
X96445625Y-103065000D01*
X97445625Y-103065000D02*
X97445625Y-104065000D01*
X97445625Y-116065000D02*
X97445625Y-117065000D01*
%TO.C,SWR4*%
X121445625Y-41365000D02*
X121445625Y-40365000D01*
X121445625Y-54365000D02*
X121445625Y-53365000D01*
X121445625Y-54365000D02*
X122445625Y-54365000D01*
X122445625Y-40365000D02*
X121445625Y-40365000D01*
X134445625Y-54365000D02*
X135445625Y-54365000D01*
X135445625Y-40365000D02*
X134445625Y-40365000D01*
X135445625Y-40365000D02*
X135445625Y-41365000D01*
X135445625Y-53365000D02*
X135445625Y-54365000D01*
%TO.C,SWR6*%
X64445625Y-65115000D02*
X64445625Y-64115000D01*
X64445625Y-78115000D02*
X64445625Y-77115000D01*
X64445625Y-78115000D02*
X65445625Y-78115000D01*
X65445625Y-64115000D02*
X64445625Y-64115000D01*
X77445625Y-78115000D02*
X78445625Y-78115000D01*
X78445625Y-64115000D02*
X77445625Y-64115000D01*
X78445625Y-64115000D02*
X78445625Y-65115000D01*
X78445625Y-77115000D02*
X78445625Y-78115000D01*
%TO.C,SWR13*%
X102445625Y-73190000D02*
X102445625Y-72190000D01*
X102445625Y-86190000D02*
X102445625Y-85190000D01*
X102445625Y-86190000D02*
X103445625Y-86190000D01*
X103445625Y-72190000D02*
X102445625Y-72190000D01*
X115445625Y-86190000D02*
X116445625Y-86190000D01*
X116445625Y-72190000D02*
X115445625Y-72190000D01*
X116445625Y-72190000D02*
X116445625Y-73190000D01*
X116445625Y-85190000D02*
X116445625Y-86190000D01*
%TO.C,SWR9*%
X121445625Y-60365000D02*
X121445625Y-59365000D01*
X121445625Y-73365000D02*
X121445625Y-72365000D01*
X121445625Y-73365000D02*
X122445625Y-73365000D01*
X122445625Y-59365000D02*
X121445625Y-59365000D01*
X134445625Y-73365000D02*
X135445625Y-73365000D01*
X135445625Y-59365000D02*
X134445625Y-59365000D01*
X135445625Y-59365000D02*
X135445625Y-60365000D01*
X135445625Y-72365000D02*
X135445625Y-73365000D01*
%TO.C,SWR17*%
X61706230Y-108931178D02*
X61447411Y-107965253D01*
X65070878Y-121488214D02*
X64812058Y-120522288D01*
X65070878Y-121488214D02*
X66036803Y-121229395D01*
X62413337Y-107706433D02*
X61447411Y-107965253D01*
X77627913Y-118123567D02*
X78593839Y-117864747D01*
X74970372Y-104341786D02*
X74004447Y-104600605D01*
X74970372Y-104341786D02*
X75229192Y-105307712D01*
X78335020Y-116898822D02*
X78593839Y-117864747D01*
%TO.C,SWR12*%
X83445625Y-79365000D02*
X83445625Y-78365000D01*
X83445625Y-92365000D02*
X83445625Y-91365000D01*
X83445625Y-92365000D02*
X84445625Y-92365000D01*
X84445625Y-78365000D02*
X83445625Y-78365000D01*
X96445625Y-92365000D02*
X97445625Y-92365000D01*
X97445625Y-78365000D02*
X96445625Y-78365000D01*
X97445625Y-78365000D02*
X97445625Y-79365000D01*
X97445625Y-91365000D02*
X97445625Y-92365000D01*
D13*
%TO.C,RSW2*%
X71817625Y-33595250D02*
X79617625Y-33595250D01*
X71817625Y-37275250D02*
X71817625Y-33595250D01*
X73467625Y-37895250D02*
X77967625Y-37895250D01*
X74467625Y-32345250D02*
X76967625Y-32345250D01*
X74467625Y-33595250D02*
X74467625Y-32345250D01*
X76967625Y-33595250D02*
X76967625Y-32345250D01*
X79617625Y-37275250D02*
X79617625Y-33595250D01*
D11*
%TO.C,SWR8*%
X102445625Y-54190000D02*
X102445625Y-53190000D01*
X102445625Y-67190000D02*
X102445625Y-66190000D01*
X102445625Y-67190000D02*
X103445625Y-67190000D01*
X103445625Y-53190000D02*
X102445625Y-53190000D01*
X115445625Y-67190000D02*
X116445625Y-67190000D01*
X116445625Y-53190000D02*
X115445625Y-53190000D01*
X116445625Y-53190000D02*
X116445625Y-54190000D01*
X116445625Y-66190000D02*
X116445625Y-67190000D01*
%TO.C,SWR5*%
X140445625Y-57040000D02*
X140445625Y-56040000D01*
X140445625Y-70040000D02*
X140445625Y-69040000D01*
X140445625Y-70040000D02*
X141445625Y-70040000D01*
X141445625Y-56040000D02*
X140445625Y-56040000D01*
X153445625Y-70040000D02*
X154445625Y-70040000D01*
X154445625Y-56040000D02*
X153445625Y-56040000D01*
X154445625Y-56040000D02*
X154445625Y-57040000D01*
X154445625Y-69040000D02*
X154445625Y-70040000D01*
D13*
%TO.C,J2*%
X116087625Y-91276000D02*
X116087625Y-92296000D01*
X111837625Y-91276000D02*
X116087625Y-91276000D01*
X116087625Y-92296000D02*
X114487625Y-92296000D01*
X114487625Y-92296000D02*
X114487625Y-93576000D01*
X108267625Y-92996000D02*
X108267625Y-97676000D01*
X114487625Y-93576000D02*
X117377625Y-93576000D01*
X116087625Y-98376000D02*
X114487625Y-98376000D01*
X114487625Y-98376000D02*
X114487625Y-97096000D01*
X116087625Y-99396000D02*
X116087625Y-98376000D01*
X111837625Y-99396000D02*
X116087625Y-99396000D01*
D11*
%TO.C,SWR11*%
X64445625Y-84115000D02*
X64445625Y-83115000D01*
X64445625Y-97115000D02*
X64445625Y-96115000D01*
X64445625Y-97115000D02*
X65445625Y-97115000D01*
X65445625Y-83115000D02*
X64445625Y-83115000D01*
X77445625Y-97115000D02*
X78445625Y-97115000D01*
X78445625Y-83115000D02*
X77445625Y-83115000D01*
X78445625Y-83115000D02*
X78445625Y-84115000D01*
X78445625Y-96115000D02*
X78445625Y-97115000D01*
%TO.C,SWR14*%
X121445625Y-79365000D02*
X121445625Y-78365000D01*
X121445625Y-92365000D02*
X121445625Y-91365000D01*
X121445625Y-92365000D02*
X122445625Y-92365000D01*
X122445625Y-78365000D02*
X121445625Y-78365000D01*
X134445625Y-92365000D02*
X135445625Y-92365000D01*
X135445625Y-78365000D02*
X134445625Y-78365000D01*
X135445625Y-78365000D02*
X135445625Y-79365000D01*
X135445625Y-91365000D02*
X135445625Y-92365000D01*
%TO.C,SWR15*%
X140445625Y-95040000D02*
X140445625Y-94040000D01*
X140445625Y-108040000D02*
X140445625Y-107040000D01*
X140445625Y-108040000D02*
X141445625Y-108040000D01*
X141445625Y-94040000D02*
X140445625Y-94040000D01*
X153445625Y-108040000D02*
X154445625Y-108040000D01*
X154445625Y-94040000D02*
X153445625Y-94040000D01*
X154445625Y-94040000D02*
X154445625Y-95040000D01*
X154445625Y-107040000D02*
X154445625Y-108040000D01*
%TO.C,SWR16*%
X41958447Y-119293848D02*
X41458447Y-118427822D01*
X48458447Y-130552178D02*
X47958447Y-129686152D01*
X48458447Y-130552178D02*
X49324473Y-130052178D01*
X42324473Y-117927822D02*
X41458447Y-118427822D01*
X59716777Y-124052178D02*
X60582803Y-123552178D01*
X53582803Y-111427822D02*
X52716777Y-111927822D01*
X53582803Y-111427822D02*
X54082803Y-112293848D01*
X60082803Y-122686152D02*
X60582803Y-123552178D01*
%TO.C,SWR3*%
X102445625Y-35190000D02*
X102445625Y-34190000D01*
X102445625Y-48190000D02*
X102445625Y-47190000D01*
X102445625Y-48190000D02*
X103445625Y-48190000D01*
X103445625Y-34190000D02*
X102445625Y-34190000D01*
X115445625Y-48190000D02*
X116445625Y-48190000D01*
X116445625Y-34190000D02*
X115445625Y-34190000D01*
X116445625Y-34190000D02*
X116445625Y-35190000D01*
X116445625Y-47190000D02*
X116445625Y-48190000D01*
%TO.C,SWR1*%
X64445625Y-46115000D02*
X64445625Y-45115000D01*
X64445625Y-59115000D02*
X64445625Y-58115000D01*
X64445625Y-59115000D02*
X65445625Y-59115000D01*
X65445625Y-45115000D02*
X64445625Y-45115000D01*
X77445625Y-59115000D02*
X78445625Y-59115000D01*
X78445625Y-45115000D02*
X77445625Y-45115000D01*
X78445625Y-45115000D02*
X78445625Y-46115000D01*
X78445625Y-58115000D02*
X78445625Y-59115000D01*
%TD*%
%LPC*%
D14*
%TO.C,SWR2*%
X84945625Y-47365000D03*
D15*
X85445625Y-51115000D03*
D16*
X90445625Y-47365000D03*
D15*
X90445625Y-53315000D03*
D14*
X95945625Y-47365000D03*
%TD*%
%TO.C,SWR10*%
X141945625Y-82040000D03*
D15*
X142445625Y-85790000D03*
D16*
X147445625Y-82040000D03*
D15*
X147445625Y-87990000D03*
D14*
X152945625Y-82040000D03*
%TD*%
%TO.C,SWR7*%
X84945625Y-66365000D03*
D15*
X85445625Y-70115000D03*
D16*
X90445625Y-66365000D03*
D15*
X90445625Y-72315000D03*
D14*
X95945625Y-66365000D03*
%TD*%
D17*
%TO.C,REF\u002A\u002A*%
X59945625Y-101001000D03*
%TD*%
%TO.C,REF\u002A\u002A*%
X137195625Y-35865000D03*
%TD*%
D14*
%TO.C,SWR18*%
X84945625Y-110065000D03*
D15*
X85445625Y-113815000D03*
D16*
X90445625Y-110065000D03*
D15*
X90445625Y-116015000D03*
D14*
X95945625Y-110065000D03*
%TD*%
%TO.C,SWR4*%
X122945625Y-47365000D03*
D15*
X123445625Y-51115000D03*
D16*
X128445625Y-47365000D03*
D15*
X128445625Y-53315000D03*
D14*
X133945625Y-47365000D03*
%TD*%
%TO.C,SWR6*%
X65945625Y-71115000D03*
D15*
X66445625Y-74865000D03*
D16*
X71445625Y-71115000D03*
D15*
X71445625Y-77065000D03*
D14*
X76945625Y-71115000D03*
%TD*%
%TO.C,SWR13*%
X103945625Y-79190000D03*
D15*
X104445625Y-82940000D03*
D16*
X109445625Y-79190000D03*
D15*
X109445625Y-85140000D03*
D14*
X114945625Y-79190000D03*
%TD*%
%TO.C,SWR9*%
X122945625Y-66365000D03*
D15*
X123445625Y-70115000D03*
D16*
X128445625Y-66365000D03*
D15*
X128445625Y-72315000D03*
D14*
X133945625Y-66365000D03*
%TD*%
%TO.C,SWR17*%
X64708033Y-114338505D03*
D15*
X66161567Y-117831317D03*
D16*
X70020625Y-112915000D03*
D15*
X71560598Y-118662259D03*
D14*
X75333217Y-111491495D03*
%TD*%
%TO.C,SWR12*%
X84945625Y-85365000D03*
D15*
X85445625Y-89115000D03*
D16*
X90445625Y-85365000D03*
D15*
X90445625Y-91315000D03*
D14*
X95945625Y-85365000D03*
%TD*%
D18*
%TO.C,RSW2*%
X72217625Y-38595250D03*
X79217625Y-38595250D03*
%TD*%
D14*
%TO.C,SWR8*%
X103945625Y-60190000D03*
D15*
X104445625Y-63940000D03*
D16*
X109445625Y-60190000D03*
D15*
X109445625Y-66140000D03*
D14*
X114945625Y-60190000D03*
%TD*%
%TO.C,SWR5*%
X141945625Y-63040000D03*
D15*
X142445625Y-66790000D03*
D16*
X147445625Y-63040000D03*
D15*
X147445625Y-68990000D03*
D14*
X152945625Y-63040000D03*
%TD*%
D19*
%TO.C,J2*%
X115627625Y-94336000D03*
X115627625Y-96336000D03*
D20*
X109877625Y-91986000D03*
X109877625Y-98686000D03*
%TD*%
D17*
%TO.C,REF\u002A\u002A*%
X158945625Y-112540000D03*
%TD*%
D21*
%TO.C,U2*%
X158865625Y-34995000D03*
X156325625Y-34995000D03*
X153785625Y-34995000D03*
X151245625Y-34995000D03*
X148705625Y-34995000D03*
X146165625Y-34995000D03*
X143625625Y-34995000D03*
X143625625Y-51185000D03*
X146165625Y-51185000D03*
X148705625Y-51185000D03*
X151245625Y-51185000D03*
X153785625Y-51185000D03*
X156325625Y-51185000D03*
X158865625Y-51185000D03*
D22*
X159817625Y-41820000D03*
X159817625Y-44360000D03*
X157277625Y-41820000D03*
X157277625Y-44360000D03*
X151562625Y-38645000D03*
X153467625Y-38645000D03*
%TD*%
D14*
%TO.C,SWR11*%
X65945625Y-90115000D03*
D15*
X66445625Y-93865000D03*
D16*
X71445625Y-90115000D03*
D15*
X71445625Y-96065000D03*
D14*
X76945625Y-90115000D03*
%TD*%
D17*
%TO.C,REF\u002A\u002A*%
X59945625Y-35865000D03*
%TD*%
D14*
%TO.C,SWR14*%
X122945625Y-85365000D03*
D15*
X123445625Y-89115000D03*
D16*
X128445625Y-85365000D03*
D15*
X128445625Y-91315000D03*
D14*
X133945625Y-85365000D03*
%TD*%
%TO.C,SWR15*%
X141945625Y-101040000D03*
D15*
X142445625Y-104790000D03*
D16*
X147445625Y-101040000D03*
D15*
X147445625Y-106990000D03*
D14*
X152945625Y-101040000D03*
%TD*%
%TO.C,SWR16*%
X46257485Y-123740000D03*
D15*
X48565498Y-126737595D03*
D16*
X51020625Y-120990000D03*
D15*
X53995625Y-126142851D03*
D14*
X55783765Y-118240000D03*
%TD*%
%TO.C,SWR3*%
X103945625Y-41190000D03*
D15*
X104445625Y-44940000D03*
D16*
X109445625Y-41190000D03*
D15*
X109445625Y-47140000D03*
D14*
X114945625Y-41190000D03*
%TD*%
%TO.C,SWR1*%
X65945625Y-52115000D03*
D15*
X66445625Y-55865000D03*
D16*
X71445625Y-52115000D03*
D15*
X71445625Y-58065000D03*
D14*
X76945625Y-52115000D03*
%TD*%
%LPD*%
M02*
