M48
; DRILL file {KiCad 8.0.5} date 2024-12-10T18:47:16+0800
; FORMAT={-:-/ absolute / inch / decimal}
; #@! TF.CreationDate,2024-12-10T18:47:16+08:00
; #@! TF.GenerationSoftware,Kicad,Pcbnew,8.0.5
; #@! TF.FileFunction,NonPlated,1,2,NPTH
FMAT,2
INCH
; #@! TA.AperFunction,NonPlated,NPTH,ComponentDrill
T1C0.0670
; #@! TA.AperFunction,NonPlated,NPTH,ComponentDrill
T2C0.1181
; #@! TA.AperFunction,NonPlated,NPTH,ComponentDrill
T3C0.1890
%
G90
G05
T1
X1.8313Y-2.5896
X1.8313Y-3.3376
X1.8313Y-4.0856
X2.2644Y-2.5896
X2.2644Y-3.3376
X2.2644Y-4.0856
X2.5794Y-1.9724
X2.5794Y-2.7205
X2.5794Y-3.4685
X3.0124Y-1.9724
X3.0124Y-2.7205
X3.0124Y-3.4685
X3.3274Y-1.7293
X3.3274Y-2.4774
X3.3274Y-3.2254
X3.7605Y-1.7293
X3.7605Y-2.4774
X3.7605Y-3.2254
X4.0754Y-1.9724
X4.0754Y-2.7205
X4.0754Y-3.4685
X4.0754Y-4.4409
X4.5085Y-1.9724
X4.5085Y-2.7205
X4.5085Y-3.4685
X4.5085Y-4.4409
X4.8234Y-2.1594
X4.8234Y-2.9075
X4.8234Y-3.6555
X4.8869Y-4.4971
X5.2565Y-2.1594
X5.2565Y-2.9075
X5.2565Y-3.6555
X5.3052Y-4.6092
X5.6566Y-4.7628
X6.0316Y-4.9793
T2
X1.851Y-2.7372
X1.851Y-3.4852
X1.851Y-4.2333
X2.0479Y-2.8238
X2.0479Y-3.5719
X2.0479Y-4.3199
X2.599Y-2.1201
X2.599Y-2.8681
X2.599Y-3.6161
X2.7959Y-2.2067
X2.7959Y-2.9547
X2.7959Y-3.7028
X3.3471Y-1.877
X3.3471Y-2.625
X3.3471Y-3.373
X3.5439Y-1.9636
X3.5439Y-2.7116
X3.5439Y-3.4596
X4.0951Y-2.1201
X4.0951Y-2.8681
X4.0951Y-3.6161
X4.0951Y-4.5886
X4.292Y-2.2067
X4.292Y-2.9547
X4.292Y-3.7028
X4.292Y-4.6752
X4.8431Y-2.3071
X4.8431Y-3.0551
X4.8431Y-3.8031
X4.8677Y-4.6448
X5.0355Y-4.7794
X5.04Y-2.3937
X5.04Y-3.1417
X5.04Y-3.8898
X5.5998Y-4.9005
X5.727Y-5.0739
T3
X2.0479Y-2.5896
X2.0479Y-3.3376
X2.0479Y-4.0856
X2.7959Y-1.9724
X2.7959Y-2.7205
X2.7959Y-3.4685
X3.5439Y-1.7293
X3.5439Y-2.4774
X3.5439Y-3.2254
X4.292Y-1.9724
X4.292Y-2.7205
X4.292Y-3.4685
X4.292Y-4.4409
X5.04Y-2.1594
X5.04Y-2.9075
X5.04Y-3.6555
X5.0961Y-4.5531
X5.8441Y-4.8711
M30
