M48
; DRILL file {KiCad 8.0.5} date 2024-12-10T18:47:16+0800
; FORMAT={-:-/ absolute / inch / decimal}
; #@! TF.CreationDate,2024-12-10T18:47:16+08:00
; #@! TF.GenerationSoftware,Kicad,Pcbnew,8.0.5
; #@! TF.FileFunction,Plated,1,2,PTH
FMAT,2
INCH
; #@! TA.AperFunction,Plated,PTH,ViaDrill
T1C0.0157
; #@! TA.AperFunction,Plated,PTH,ComponentDrill
T2C0.0394
; #@! TA.AperFunction,Plated,PTH,ComponentDrill
T3C0.0400
; #@! TA.AperFunction,Plated,PTH,ComponentDrill
T4C0.0512
; #@! TA.AperFunction,Plated,PTH,ComponentDrill
T5C0.0866
%
G90
G05
T1
X1.8047Y-2.3652
X1.8047Y-2.4213
X1.8215Y-3.0295
X1.8215Y-3.7776
X1.8983Y-2.3652
X1.8983Y-2.4213
X2.0853Y-2.3652
X2.0853Y-2.4213
X2.1788Y-2.3652
X2.1788Y-2.4213
X2.2723Y-2.3652
X2.2723Y-2.4213
X2.2723Y-3.001
X2.2723Y-3.749
X2.3658Y-1.7293
X2.5695Y-2.4124
X2.5695Y-3.1604
X2.6089Y-1.4862
X2.6089Y-1.5423
X2.7024Y-1.4862
X2.7024Y-1.5423
X2.7959Y-1.4862
X2.7959Y-1.5423
X2.8894Y-1.4862
X2.9829Y-1.4862
X3.1305Y-2.1693
X3.1305Y-2.9173
X3.3175Y-2.1693
X3.3175Y-2.9173
X3.3569Y-1.4862
X3.3569Y-1.5423
X3.4504Y-1.4862
X3.4504Y-1.5423
X3.5439Y-1.4862
X3.5439Y-1.5423
X3.6374Y-1.4862
X3.6374Y-1.5423
X3.7309Y-1.4862
X3.7309Y-1.5423
X3.9721Y-2.3376
X3.9721Y-3.0856
X4.0656Y-1.6644
X4.0656Y-2.4124
X4.0656Y-3.1604
X4.0675Y-4.1417
X4.1049Y-1.4862
X4.1984Y-1.4862
X4.1984Y-1.5423
X4.292Y-1.4862
X4.292Y-1.5423
X4.3855Y-1.4862
X4.3855Y-1.5423
X4.479Y-1.4862
X4.479Y-1.5423
X4.479Y-2.0472
X4.479Y-2.1033
X4.5164Y-4.1417
X4.5725Y-1.4862
X4.5725Y-1.5423
X4.5725Y-2.0472
X4.5725Y-2.1033
X4.666Y-1.4862
X4.666Y-1.5423
X4.666Y-2.0472
X4.666Y-2.1033
X4.7201Y-1.7766
X4.7201Y-2.5246
X4.7201Y-3.2726
T2
X1.5983Y-1.5041
X1.5983Y-2.1041
X1.6983Y-1.5041
X1.6983Y-2.1041
X1.7983Y-1.5041
X1.7983Y-2.1041
X1.8983Y-1.5041
X1.8983Y-2.1041
X1.9983Y-1.5041
X1.9983Y-2.1041
X2.0983Y-1.5041
X2.0983Y-2.1041
X2.1983Y-1.5041
X2.1983Y-2.1041
X4.7733Y-1.5287
X4.9701Y-1.5287
T3
X1.5608Y-1.7541
X1.5608Y-1.8541
X1.6608Y-1.7541
X1.6608Y-1.8541
X1.8108Y-1.9791
X1.8858Y-1.9791
T4
X4.7339Y-1.6272
X5.0095Y-1.6272
T5
X1.5954Y-4.5385
X2.4513Y-1.5198
X5.4926Y-4.0842
X5.4926Y-1.5198
M30
