%TF.GenerationSoftware,KiCad,Pcbnew,8.0.5*%
%TF.CreationDate,2024-12-10T18:47:18+08:00*%
%TF.ProjectId,pcb-left,7063622d-6c65-4667-942e-6b696361645f,0.32*%
%TF.SameCoordinates,Original*%
%TF.FileFunction,Legend,Top*%
%TF.FilePolarity,Positive*%
%FSLAX46Y46*%
G04 Gerber Fmt 4.6, Leading zero omitted, Abs format (unit mm)*
G04 Created by KiCad (PCBNEW 8.0.5) date 2024-12-10 18:47:18*
%MOMM*%
%LPD*%
G01*
G04 APERTURE LIST*
G04 Aperture macros list*
%AMRoundRect*
0 Rectangle with rounded corners*
0 $1 Rounding radius*
0 $2 $3 $4 $5 $6 $7 $8 $9 X,Y pos of 4 corners*
0 Add a 4 corners polygon primitive as box body*
4,1,4,$2,$3,$4,$5,$6,$7,$8,$9,$2,$3,0*
0 Add four circle primitives for the rounded corners*
1,1,$1+$1,$2,$3*
1,1,$1+$1,$4,$5*
1,1,$1+$1,$6,$7*
1,1,$1+$1,$8,$9*
0 Add four rect primitives between the rounded corners*
20,1,$1+$1,$2,$3,$4,$5,0*
20,1,$1+$1,$4,$5,$6,$7,0*
20,1,$1+$1,$6,$7,$8,$9,0*
20,1,$1+$1,$8,$9,$2,$3,0*%
G04 Aperture macros list end*
%ADD10C,0.000000*%
%ADD11C,0.150000*%
%ADD12C,0.250000*%
%ADD13C,0.120000*%
%ADD14C,1.701800*%
%ADD15C,3.000000*%
%ADD16C,3.429000*%
%ADD17RoundRect,0.250000X1.500000X-0.250000X1.500000X0.250000X-1.500000X0.250000X-1.500000X-0.250000X0*%
%ADD18RoundRect,0.250001X1.449999X-0.499999X1.449999X0.499999X-1.449999X0.499999X-1.449999X-0.499999X0*%
%ADD19C,2.100000*%
%ADD20C,3.800000*%
%ADD21O,1.800000X2.750000*%
%ADD22C,1.397000*%
G04 APERTURE END LIST*
D10*
G36*
X91162813Y-114870001D02*
G01*
X90885001Y-114870001D01*
X90885001Y-114592188D01*
X91162813Y-114592188D01*
X91162813Y-114870001D01*
G37*
G36*
X90329376Y-115425626D02*
G01*
X90051563Y-115425626D01*
X90051563Y-115147813D01*
X90329376Y-115147813D01*
X90329376Y-115425626D01*
G37*
G36*
X92274063Y-110147188D02*
G01*
X91996251Y-110147188D01*
X91996251Y-109869376D01*
X92274063Y-109869376D01*
X92274063Y-110147188D01*
G37*
G36*
X87829063Y-112647501D02*
G01*
X87551251Y-112647501D01*
X87551251Y-112369688D01*
X87829063Y-112369688D01*
X87829063Y-112647501D01*
G37*
G36*
X94496563Y-115981251D02*
G01*
X94218751Y-115981251D01*
X94218751Y-115703438D01*
X94496563Y-115703438D01*
X94496563Y-115981251D01*
G37*
G36*
X92829688Y-109591563D02*
G01*
X92551876Y-109591563D01*
X92551876Y-109313751D01*
X92829688Y-109313751D01*
X92829688Y-109591563D01*
G37*
G36*
X89773751Y-113480938D02*
G01*
X89495938Y-113480938D01*
X89495938Y-113203126D01*
X89773751Y-113203126D01*
X89773751Y-113480938D01*
G37*
G36*
X90885001Y-114870001D02*
G01*
X90607188Y-114870001D01*
X90607188Y-114592188D01*
X90885001Y-114592188D01*
X90885001Y-114870001D01*
G37*
G36*
X89773751Y-111536251D02*
G01*
X89495938Y-111536251D01*
X89495938Y-111258438D01*
X89773751Y-111258438D01*
X89773751Y-111536251D01*
G37*
G36*
X91162813Y-111814063D02*
G01*
X90885001Y-111814063D01*
X90885001Y-111536251D01*
X91162813Y-111536251D01*
X91162813Y-111814063D01*
G37*
G36*
X90051563Y-110980626D02*
G01*
X89773751Y-110980626D01*
X89773751Y-110702813D01*
X90051563Y-110702813D01*
X90051563Y-110980626D01*
G37*
G36*
X91162813Y-110702813D02*
G01*
X90885001Y-110702813D01*
X90885001Y-110425001D01*
X91162813Y-110425001D01*
X91162813Y-110702813D01*
G37*
G36*
X93385313Y-111536251D02*
G01*
X93107501Y-111536251D01*
X93107501Y-111258438D01*
X93385313Y-111258438D01*
X93385313Y-111536251D01*
G37*
G36*
X90885001Y-115703438D02*
G01*
X90607188Y-115703438D01*
X90607188Y-115425626D01*
X90885001Y-115425626D01*
X90885001Y-115703438D01*
G37*
G36*
X92829688Y-110980626D02*
G01*
X92551876Y-110980626D01*
X92551876Y-110702813D01*
X92829688Y-110702813D01*
X92829688Y-110980626D01*
G37*
G36*
X94774376Y-115981251D02*
G01*
X94496563Y-115981251D01*
X94496563Y-115703438D01*
X94774376Y-115703438D01*
X94774376Y-115981251D01*
G37*
G36*
X89495938Y-116814688D02*
G01*
X87551251Y-116814688D01*
X87551251Y-116522985D01*
X87842954Y-116522985D01*
X89204235Y-116522985D01*
X89204235Y-115161704D01*
X87842954Y-115161704D01*
X87842954Y-116522985D01*
X87551251Y-116522985D01*
X87551251Y-115161704D01*
X87551251Y-114870001D01*
X89495938Y-114870001D01*
X89495938Y-116814688D01*
G37*
G36*
X92829688Y-114870001D02*
G01*
X92551876Y-114870001D01*
X92551876Y-114592188D01*
X92829688Y-114592188D01*
X92829688Y-114870001D01*
G37*
G36*
X90885001Y-116536876D02*
G01*
X90607188Y-116536876D01*
X90607188Y-116259063D01*
X90885001Y-116259063D01*
X90885001Y-116536876D01*
G37*
G36*
X91440626Y-114314376D02*
G01*
X91162813Y-114314376D01*
X91162813Y-114036563D01*
X91440626Y-114036563D01*
X91440626Y-114314376D01*
G37*
G36*
X91440626Y-111814063D02*
G01*
X91162813Y-111814063D01*
X91162813Y-111536251D01*
X91440626Y-111536251D01*
X91440626Y-111814063D01*
G37*
G36*
X91718439Y-114592188D02*
G01*
X91440626Y-114592188D01*
X91440626Y-114314376D01*
X91718439Y-114314376D01*
X91718439Y-114592188D01*
G37*
G36*
X88940313Y-111814063D02*
G01*
X88662501Y-111814063D01*
X88662501Y-111536251D01*
X88940313Y-111536251D01*
X88940313Y-111814063D01*
G37*
G36*
X90329376Y-113203126D02*
G01*
X90051563Y-113203126D01*
X90051563Y-112925314D01*
X90329376Y-112925314D01*
X90329376Y-113203126D01*
G37*
G36*
X94496563Y-114036563D02*
G01*
X94218751Y-114036563D01*
X94218751Y-113758751D01*
X94496563Y-113758751D01*
X94496563Y-114036563D01*
G37*
G36*
X91162813Y-110980626D02*
G01*
X90885001Y-110980626D01*
X90885001Y-110702813D01*
X91162813Y-110702813D01*
X91162813Y-110980626D01*
G37*
G36*
X93107501Y-115981251D02*
G01*
X92829688Y-115981251D01*
X92829688Y-115703438D01*
X93107501Y-115703438D01*
X93107501Y-115981251D01*
G37*
G36*
X90329376Y-111258438D02*
G01*
X90051563Y-111258438D01*
X90051563Y-110980626D01*
X90329376Y-110980626D01*
X90329376Y-111258438D01*
G37*
G36*
X90885001Y-110147188D02*
G01*
X90607188Y-110147188D01*
X90607188Y-109869376D01*
X90885001Y-109869376D01*
X90885001Y-110147188D01*
G37*
G36*
X91440626Y-109313751D02*
G01*
X91162813Y-109313751D01*
X91162813Y-109035938D01*
X91440626Y-109035938D01*
X91440626Y-109313751D01*
G37*
G36*
X90051563Y-115425626D02*
G01*
X89773751Y-115425626D01*
X89773751Y-115147813D01*
X90051563Y-115147813D01*
X90051563Y-115425626D01*
G37*
G36*
X88384688Y-111258438D02*
G01*
X88106876Y-111258438D01*
X88106876Y-110980626D01*
X88384688Y-110980626D01*
X88384688Y-111258438D01*
G37*
G36*
X93385313Y-110702813D02*
G01*
X93107501Y-110702813D01*
X93107501Y-110425001D01*
X93385313Y-110425001D01*
X93385313Y-110702813D01*
G37*
G36*
X88662501Y-113758751D02*
G01*
X88384688Y-113758751D01*
X88384688Y-113480938D01*
X88662501Y-113480938D01*
X88662501Y-113758751D01*
G37*
G36*
X93107501Y-113203126D02*
G01*
X92829688Y-113203126D01*
X92829688Y-112925314D01*
X93107501Y-112925314D01*
X93107501Y-113203126D01*
G37*
G36*
X90051563Y-115147813D02*
G01*
X89773751Y-115147813D01*
X89773751Y-114870001D01*
X90051563Y-114870001D01*
X90051563Y-115147813D01*
G37*
G36*
X94774376Y-112369688D02*
G01*
X94496563Y-112369688D01*
X94496563Y-112091876D01*
X94774376Y-112091876D01*
X94774376Y-112369688D01*
G37*
G36*
X95052188Y-111814063D02*
G01*
X94774376Y-111814063D01*
X94774376Y-111536251D01*
X95052188Y-111536251D01*
X95052188Y-111814063D01*
G37*
G36*
X91996251Y-114036563D02*
G01*
X91718439Y-114036563D01*
X91718439Y-113758751D01*
X91996251Y-113758751D01*
X91996251Y-114036563D01*
G37*
G36*
X90607188Y-110425001D02*
G01*
X90329376Y-110425001D01*
X90329376Y-110147188D01*
X90607188Y-110147188D01*
X90607188Y-110425001D01*
G37*
G36*
X91718439Y-110147188D02*
G01*
X91440626Y-110147188D01*
X91440626Y-109869376D01*
X91718439Y-109869376D01*
X91718439Y-110147188D01*
G37*
G36*
X91440626Y-115425626D02*
G01*
X91162813Y-115425626D01*
X91162813Y-115147813D01*
X91440626Y-115147813D01*
X91440626Y-115425626D01*
G37*
G36*
X88106876Y-113480938D02*
G01*
X87829063Y-113480938D01*
X87829063Y-113203126D01*
X88106876Y-113203126D01*
X88106876Y-113480938D01*
G37*
G36*
X93107501Y-111536251D02*
G01*
X92829688Y-111536251D01*
X92829688Y-111258438D01*
X93107501Y-111258438D01*
X93107501Y-111536251D01*
G37*
G36*
X93940938Y-112091876D02*
G01*
X93663126Y-112091876D01*
X93663126Y-111814063D01*
X93940938Y-111814063D01*
X93940938Y-112091876D01*
G37*
G36*
X93107501Y-109591563D02*
G01*
X92829688Y-109591563D01*
X92829688Y-109313751D01*
X93107501Y-109313751D01*
X93107501Y-109591563D01*
G37*
G36*
X95330001Y-114870001D02*
G01*
X95052188Y-114870001D01*
X95052188Y-114592188D01*
X95330001Y-114592188D01*
X95330001Y-114870001D01*
G37*
G36*
X90329376Y-111536251D02*
G01*
X90051563Y-111536251D01*
X90051563Y-111258438D01*
X90329376Y-111258438D01*
X90329376Y-111536251D01*
G37*
G36*
X91718439Y-116536876D02*
G01*
X91440626Y-116536876D01*
X91440626Y-116259063D01*
X91718439Y-116259063D01*
X91718439Y-116536876D01*
G37*
G36*
X91718439Y-113203126D02*
G01*
X91440626Y-113203126D01*
X91440626Y-112925314D01*
X91718439Y-112925314D01*
X91718439Y-113203126D01*
G37*
G36*
X89495938Y-111814063D02*
G01*
X89218126Y-111814063D01*
X89218126Y-111536251D01*
X89495938Y-111536251D01*
X89495938Y-111814063D01*
G37*
G36*
X93385313Y-114036563D02*
G01*
X93107501Y-114036563D01*
X93107501Y-113758751D01*
X93385313Y-113758751D01*
X93385313Y-114036563D01*
G37*
G36*
X92274063Y-110702813D02*
G01*
X91996251Y-110702813D01*
X91996251Y-110425001D01*
X92274063Y-110425001D01*
X92274063Y-110702813D01*
G37*
G36*
X95607813Y-111536251D02*
G01*
X95330001Y-111536251D01*
X95330001Y-111258438D01*
X95607813Y-111258438D01*
X95607813Y-111536251D01*
G37*
G36*
X93107501Y-112091876D02*
G01*
X92829688Y-112091876D01*
X92829688Y-111814063D01*
X93107501Y-111814063D01*
X93107501Y-112091876D01*
G37*
G36*
X93663126Y-115703438D02*
G01*
X93385313Y-115703438D01*
X93385313Y-115425626D01*
X93663126Y-115425626D01*
X93663126Y-115703438D01*
G37*
G36*
X93385313Y-116259063D02*
G01*
X93107501Y-116259063D01*
X93107501Y-115981251D01*
X93385313Y-115981251D01*
X93385313Y-116259063D01*
G37*
G36*
X88662501Y-111536251D02*
G01*
X88384688Y-111536251D01*
X88384688Y-111258438D01*
X88662501Y-111258438D01*
X88662501Y-111536251D01*
G37*
G36*
X92829688Y-115425626D02*
G01*
X92551876Y-115425626D01*
X92551876Y-115147813D01*
X92829688Y-115147813D01*
X92829688Y-115425626D01*
G37*
G36*
X92274063Y-109591563D02*
G01*
X91996251Y-109591563D01*
X91996251Y-109313751D01*
X92274063Y-109313751D01*
X92274063Y-109591563D01*
G37*
G36*
X91440626Y-111258438D02*
G01*
X91162813Y-111258438D01*
X91162813Y-110980626D01*
X91440626Y-110980626D01*
X91440626Y-111258438D01*
G37*
G36*
X94774376Y-111258438D02*
G01*
X94496563Y-111258438D01*
X94496563Y-110980626D01*
X94774376Y-110980626D01*
X94774376Y-111258438D01*
G37*
G36*
X92551876Y-114592188D02*
G01*
X92274063Y-114592188D01*
X92274063Y-114314376D01*
X92551876Y-114314376D01*
X92551876Y-114592188D01*
G37*
G36*
X90885001Y-109869376D02*
G01*
X90607188Y-109869376D01*
X90607188Y-109591563D01*
X90885001Y-109591563D01*
X90885001Y-109869376D01*
G37*
G36*
X92551876Y-110147188D02*
G01*
X92274063Y-110147188D01*
X92274063Y-109869376D01*
X92551876Y-109869376D01*
X92551876Y-110147188D01*
G37*
G36*
X94774376Y-114870001D02*
G01*
X94496563Y-114870001D01*
X94496563Y-114592188D01*
X94774376Y-114592188D01*
X94774376Y-114870001D01*
G37*
G36*
X94218751Y-111536251D02*
G01*
X93940938Y-111536251D01*
X93940938Y-111258438D01*
X94218751Y-111258438D01*
X94218751Y-111536251D01*
G37*
G36*
X94774376Y-113758751D02*
G01*
X94496563Y-113758751D01*
X94496563Y-113480938D01*
X94774376Y-113480938D01*
X94774376Y-113758751D01*
G37*
G36*
X92829688Y-110147188D02*
G01*
X92551876Y-110147188D01*
X92551876Y-109869376D01*
X92829688Y-109869376D01*
X92829688Y-110147188D01*
G37*
G36*
X95330001Y-112647501D02*
G01*
X95052188Y-112647501D01*
X95052188Y-112369688D01*
X95330001Y-112369688D01*
X95330001Y-112647501D01*
G37*
G36*
X92551876Y-112369688D02*
G01*
X92274063Y-112369688D01*
X92274063Y-112091876D01*
X92551876Y-112091876D01*
X92551876Y-112369688D01*
G37*
G36*
X93940938Y-112647501D02*
G01*
X93663126Y-112647501D01*
X93663126Y-112369688D01*
X93940938Y-112369688D01*
X93940938Y-112647501D01*
G37*
G36*
X93107501Y-115147813D02*
G01*
X92829688Y-115147813D01*
X92829688Y-114870001D01*
X93107501Y-114870001D01*
X93107501Y-115147813D01*
G37*
G36*
X88384688Y-114314376D02*
G01*
X88106876Y-114314376D01*
X88106876Y-114036563D01*
X88384688Y-114036563D01*
X88384688Y-114314376D01*
G37*
G36*
X94774376Y-115147813D02*
G01*
X94496563Y-115147813D01*
X94496563Y-114870001D01*
X94774376Y-114870001D01*
X94774376Y-115147813D01*
G37*
G36*
X91162813Y-112925314D02*
G01*
X90885001Y-112925314D01*
X90885001Y-112647501D01*
X91162813Y-112647501D01*
X91162813Y-112925314D01*
G37*
G36*
X93940938Y-115703438D02*
G01*
X93663126Y-115703438D01*
X93663126Y-115425626D01*
X93940938Y-115425626D01*
X93940938Y-115703438D01*
G37*
G36*
X95052188Y-113758751D02*
G01*
X94774376Y-113758751D01*
X94774376Y-113480938D01*
X95052188Y-113480938D01*
X95052188Y-113758751D01*
G37*
G36*
X89218126Y-112925314D02*
G01*
X88940313Y-112925314D01*
X88940313Y-112647501D01*
X89218126Y-112647501D01*
X89218126Y-112925314D01*
G37*
G36*
X88662501Y-113203126D02*
G01*
X88384688Y-113203126D01*
X88384688Y-112925314D01*
X88662501Y-112925314D01*
X88662501Y-113203126D01*
G37*
G36*
X92274063Y-115147813D02*
G01*
X91996251Y-115147813D01*
X91996251Y-114870001D01*
X92274063Y-114870001D01*
X92274063Y-115147813D01*
G37*
G36*
X89218126Y-114036563D02*
G01*
X88940313Y-114036563D01*
X88940313Y-113758751D01*
X89218126Y-113758751D01*
X89218126Y-114036563D01*
G37*
G36*
X91440626Y-111536251D02*
G01*
X91162813Y-111536251D01*
X91162813Y-111258438D01*
X91440626Y-111258438D01*
X91440626Y-111536251D01*
G37*
G36*
X95607813Y-115425626D02*
G01*
X95330001Y-115425626D01*
X95330001Y-115147813D01*
X95607813Y-115147813D01*
X95607813Y-115425626D01*
G37*
G36*
X89773751Y-111814063D02*
G01*
X89495938Y-111814063D01*
X89495938Y-111536251D01*
X89773751Y-111536251D01*
X89773751Y-111814063D01*
G37*
G36*
X92551876Y-115981251D02*
G01*
X92274063Y-115981251D01*
X92274063Y-115703438D01*
X92551876Y-115703438D01*
X92551876Y-115981251D01*
G37*
G36*
X91996251Y-109869376D02*
G01*
X91718439Y-109869376D01*
X91718439Y-109591563D01*
X91996251Y-109591563D01*
X91996251Y-109869376D01*
G37*
G36*
X90329376Y-116259063D02*
G01*
X90051563Y-116259063D01*
X90051563Y-115981251D01*
X90329376Y-115981251D01*
X90329376Y-116259063D01*
G37*
G36*
X95607813Y-114870001D02*
G01*
X95330001Y-114870001D01*
X95330001Y-114592188D01*
X95607813Y-114592188D01*
X95607813Y-114870001D01*
G37*
G36*
X88940313Y-111536251D02*
G01*
X88662501Y-111536251D01*
X88662501Y-111258438D01*
X88940313Y-111258438D01*
X88940313Y-111536251D01*
G37*
G36*
X89218126Y-112091876D02*
G01*
X88940313Y-112091876D01*
X88940313Y-111814063D01*
X89218126Y-111814063D01*
X89218126Y-112091876D01*
G37*
G36*
X91718439Y-113480938D02*
G01*
X91440626Y-113480938D01*
X91440626Y-113203126D01*
X91718439Y-113203126D01*
X91718439Y-113480938D01*
G37*
G36*
X94774376Y-113480938D02*
G01*
X94496563Y-113480938D01*
X94496563Y-113203126D01*
X94774376Y-113203126D01*
X94774376Y-113480938D01*
G37*
G36*
X95330001Y-113203126D02*
G01*
X95052188Y-113203126D01*
X95052188Y-112925314D01*
X95330001Y-112925314D01*
X95330001Y-113203126D01*
G37*
G36*
X89495938Y-114592188D02*
G01*
X89218126Y-114592188D01*
X89218126Y-114314376D01*
X89495938Y-114314376D01*
X89495938Y-114592188D01*
G37*
G36*
X92274063Y-111814063D02*
G01*
X91996251Y-111814063D01*
X91996251Y-111536251D01*
X92274063Y-111536251D01*
X92274063Y-111814063D01*
G37*
G36*
X90607188Y-109591563D02*
G01*
X90329376Y-109591563D01*
X90329376Y-109313751D01*
X90607188Y-109313751D01*
X90607188Y-109591563D01*
G37*
G36*
X93107501Y-111258438D02*
G01*
X92829688Y-111258438D01*
X92829688Y-110980626D01*
X93107501Y-110980626D01*
X93107501Y-111258438D01*
G37*
G36*
X90607188Y-112091876D02*
G01*
X90329376Y-112091876D01*
X90329376Y-111814063D01*
X90607188Y-111814063D01*
X90607188Y-112091876D01*
G37*
G36*
X92274063Y-110425001D02*
G01*
X91996251Y-110425001D01*
X91996251Y-110147188D01*
X92274063Y-110147188D01*
X92274063Y-110425001D01*
G37*
G36*
X90329376Y-113480938D02*
G01*
X90051563Y-113480938D01*
X90051563Y-113203126D01*
X90329376Y-113203126D01*
X90329376Y-113480938D01*
G37*
G36*
X90885001Y-116259063D02*
G01*
X90607188Y-116259063D01*
X90607188Y-115981251D01*
X90885001Y-115981251D01*
X90885001Y-116259063D01*
G37*
G36*
X91718439Y-116259063D02*
G01*
X91440626Y-116259063D01*
X91440626Y-115981251D01*
X91718439Y-115981251D01*
X91718439Y-116259063D01*
G37*
G36*
X95052188Y-112925314D02*
G01*
X94774376Y-112925314D01*
X94774376Y-112647501D01*
X95052188Y-112647501D01*
X95052188Y-112925314D01*
G37*
G36*
X90329376Y-109035938D02*
G01*
X90051563Y-109035938D01*
X90051563Y-108758126D01*
X90329376Y-108758126D01*
X90329376Y-109035938D01*
G37*
G36*
X93663126Y-116814688D02*
G01*
X93385313Y-116814688D01*
X93385313Y-116536876D01*
X93663126Y-116536876D01*
X93663126Y-116814688D01*
G37*
G36*
X93107501Y-110425001D02*
G01*
X92829688Y-110425001D01*
X92829688Y-110147188D01*
X93107501Y-110147188D01*
X93107501Y-110425001D01*
G37*
G36*
X95330001Y-113758751D02*
G01*
X95052188Y-113758751D01*
X95052188Y-113480938D01*
X95330001Y-113480938D01*
X95330001Y-113758751D01*
G37*
G36*
X93940938Y-113203126D02*
G01*
X93663126Y-113203126D01*
X93663126Y-112925314D01*
X93940938Y-112925314D01*
X93940938Y-113203126D01*
G37*
G36*
X90329376Y-114592188D02*
G01*
X90051563Y-114592188D01*
X90051563Y-114314376D01*
X90329376Y-114314376D01*
X90329376Y-114592188D01*
G37*
G36*
X88940313Y-113758751D02*
G01*
X88662501Y-113758751D01*
X88662501Y-113480938D01*
X88940313Y-113480938D01*
X88940313Y-113758751D01*
G37*
G36*
X93385313Y-113203126D02*
G01*
X93107501Y-113203126D01*
X93107501Y-112925314D01*
X93385313Y-112925314D01*
X93385313Y-113203126D01*
G37*
G36*
X90329376Y-116814688D02*
G01*
X90051563Y-116814688D01*
X90051563Y-116536876D01*
X90329376Y-116536876D01*
X90329376Y-116814688D01*
G37*
G36*
X95330001Y-111814063D02*
G01*
X95052188Y-111814063D01*
X95052188Y-111536251D01*
X95330001Y-111536251D01*
X95330001Y-111814063D01*
G37*
G36*
X88106876Y-114592188D02*
G01*
X87829063Y-114592188D01*
X87829063Y-114314376D01*
X88106876Y-114314376D01*
X88106876Y-114592188D01*
G37*
G36*
X88662501Y-114036563D02*
G01*
X88384688Y-114036563D01*
X88384688Y-113758751D01*
X88662501Y-113758751D01*
X88662501Y-114036563D01*
G37*
G36*
X132708856Y-40001800D02*
G01*
X132351019Y-40001800D01*
X133618784Y-36750595D01*
X133976620Y-36750595D01*
X132708856Y-40001800D01*
G37*
G36*
X90607188Y-112369688D02*
G01*
X90329376Y-112369688D01*
X90329376Y-112091876D01*
X90607188Y-112091876D01*
X90607188Y-112369688D01*
G37*
G36*
X92551876Y-110980626D02*
G01*
X92274063Y-110980626D01*
X92274063Y-110702813D01*
X92551876Y-110702813D01*
X92551876Y-110980626D01*
G37*
G36*
X91718439Y-115147813D02*
G01*
X91440626Y-115147813D01*
X91440626Y-114870001D01*
X91718439Y-114870001D01*
X91718439Y-115147813D01*
G37*
G36*
X89495938Y-113480938D02*
G01*
X89218126Y-113480938D01*
X89218126Y-113203126D01*
X89495938Y-113203126D01*
X89495938Y-113480938D01*
G37*
D11*
X64734375Y-115775000D02*
X86690625Y-115775000D01*
D10*
G36*
X90329376Y-115703438D02*
G01*
X90051563Y-115703438D01*
X90051563Y-115425626D01*
X90329376Y-115425626D01*
X90329376Y-115703438D01*
G37*
G36*
X92829688Y-110425001D02*
G01*
X92551876Y-110425001D01*
X92551876Y-110147188D01*
X92829688Y-110147188D01*
X92829688Y-110425001D01*
G37*
G36*
X92829688Y-114592188D02*
G01*
X92551876Y-114592188D01*
X92551876Y-114314376D01*
X92829688Y-114314376D01*
X92829688Y-114592188D01*
G37*
G36*
X91996251Y-111536251D02*
G01*
X91718439Y-111536251D01*
X91718439Y-111258438D01*
X91996251Y-111258438D01*
X91996251Y-111536251D01*
G37*
G36*
X88384688Y-112925314D02*
G01*
X88106876Y-112925314D01*
X88106876Y-112647501D01*
X88384688Y-112647501D01*
X88384688Y-112925314D01*
G37*
G36*
X88940313Y-113480938D02*
G01*
X88662501Y-113480938D01*
X88662501Y-113203126D01*
X88940313Y-113203126D01*
X88940313Y-113480938D01*
G37*
G36*
X93940938Y-111258438D02*
G01*
X93663126Y-111258438D01*
X93663126Y-110980626D01*
X93940938Y-110980626D01*
X93940938Y-111258438D01*
G37*
G36*
X93107501Y-116814688D02*
G01*
X92829688Y-116814688D01*
X92829688Y-116536876D01*
X93107501Y-116536876D01*
X93107501Y-116814688D01*
G37*
G36*
X94496563Y-113203126D02*
G01*
X94218751Y-113203126D01*
X94218751Y-112925314D01*
X94496563Y-112925314D01*
X94496563Y-113203126D01*
G37*
G36*
X95330001Y-115147813D02*
G01*
X95052188Y-115147813D01*
X95052188Y-114870001D01*
X95330001Y-114870001D01*
X95330001Y-115147813D01*
G37*
G36*
X92829688Y-111258438D02*
G01*
X92551876Y-111258438D01*
X92551876Y-110980626D01*
X92829688Y-110980626D01*
X92829688Y-111258438D01*
G37*
G36*
X91440626Y-109035938D02*
G01*
X91162813Y-109035938D01*
X91162813Y-108758126D01*
X91440626Y-108758126D01*
X91440626Y-109035938D01*
G37*
G36*
X91718439Y-113758751D02*
G01*
X91440626Y-113758751D01*
X91440626Y-113480938D01*
X91718439Y-113480938D01*
X91718439Y-113758751D01*
G37*
G36*
X90051563Y-110702813D02*
G01*
X89773751Y-110702813D01*
X89773751Y-110425001D01*
X90051563Y-110425001D01*
X90051563Y-110702813D01*
G37*
G36*
X90885001Y-115425626D02*
G01*
X90607188Y-115425626D01*
X90607188Y-115147813D01*
X90885001Y-115147813D01*
X90885001Y-115425626D01*
G37*
G36*
X92551876Y-109035938D02*
G01*
X92274063Y-109035938D01*
X92274063Y-108758126D01*
X92551876Y-108758126D01*
X92551876Y-109035938D01*
G37*
G36*
X88940313Y-116259063D02*
G01*
X88106876Y-116259063D01*
X88106876Y-115425626D01*
X88940313Y-115425626D01*
X88940313Y-116259063D01*
G37*
G36*
X89773751Y-112647501D02*
G01*
X89495938Y-112647501D01*
X89495938Y-112369688D01*
X89773751Y-112369688D01*
X89773751Y-112647501D01*
G37*
G36*
X94774376Y-116536876D02*
G01*
X94496563Y-116536876D01*
X94496563Y-116259063D01*
X94774376Y-116259063D01*
X94774376Y-116536876D01*
G37*
G36*
X92274063Y-112925314D02*
G01*
X91996251Y-112925314D01*
X91996251Y-112647501D01*
X92274063Y-112647501D01*
X92274063Y-112925314D01*
G37*
G36*
X93385313Y-114592188D02*
G01*
X93107501Y-114592188D01*
X93107501Y-114314376D01*
X93385313Y-114314376D01*
X93385313Y-114592188D01*
G37*
G36*
X89773751Y-114036563D02*
G01*
X89495938Y-114036563D01*
X89495938Y-113758751D01*
X89773751Y-113758751D01*
X89773751Y-114036563D01*
G37*
G36*
X91996251Y-115981251D02*
G01*
X91718439Y-115981251D01*
X91718439Y-115703438D01*
X91996251Y-115703438D01*
X91996251Y-115981251D01*
G37*
G36*
X91162813Y-111536251D02*
G01*
X90885001Y-111536251D01*
X90885001Y-111258438D01*
X91162813Y-111258438D01*
X91162813Y-111536251D01*
G37*
G36*
X135780017Y-40001800D02*
G01*
X135422180Y-40001800D01*
X134154416Y-36750595D01*
X134512253Y-36750595D01*
X135780017Y-40001800D01*
G37*
G36*
X91162813Y-112369688D02*
G01*
X90885001Y-112369688D01*
X90885001Y-112091876D01*
X91162813Y-112091876D01*
X91162813Y-112369688D01*
G37*
G36*
X93385313Y-116814688D02*
G01*
X93107501Y-116814688D01*
X93107501Y-116536876D01*
X93385313Y-116536876D01*
X93385313Y-116814688D01*
G37*
G36*
X95052188Y-110147188D02*
G01*
X94218751Y-110147188D01*
X94218751Y-109313751D01*
X95052188Y-109313751D01*
X95052188Y-110147188D01*
G37*
G36*
X95330001Y-116536876D02*
G01*
X95052188Y-116536876D01*
X95052188Y-116259063D01*
X95330001Y-116259063D01*
X95330001Y-116536876D01*
G37*
G36*
X95330001Y-113480938D02*
G01*
X95052188Y-113480938D01*
X95052188Y-113203126D01*
X95330001Y-113203126D01*
X95330001Y-113480938D01*
G37*
G36*
X92274063Y-116814688D02*
G01*
X91996251Y-116814688D01*
X91996251Y-116536876D01*
X92274063Y-116536876D01*
X92274063Y-116814688D01*
G37*
G36*
X90607188Y-116814688D02*
G01*
X90329376Y-116814688D01*
X90329376Y-116536876D01*
X90607188Y-116536876D01*
X90607188Y-116814688D01*
G37*
G36*
X92274063Y-113203126D02*
G01*
X91996251Y-113203126D01*
X91996251Y-112925314D01*
X92274063Y-112925314D01*
X92274063Y-113203126D01*
G37*
G36*
X89495938Y-112369688D02*
G01*
X89218126Y-112369688D01*
X89218126Y-112091876D01*
X89495938Y-112091876D01*
X89495938Y-112369688D01*
G37*
G36*
X93385313Y-110425001D02*
G01*
X93107501Y-110425001D01*
X93107501Y-110147188D01*
X93385313Y-110147188D01*
X93385313Y-110425001D01*
G37*
G36*
X88106876Y-112091876D02*
G01*
X87829063Y-112091876D01*
X87829063Y-111814063D01*
X88106876Y-111814063D01*
X88106876Y-112091876D01*
G37*
G36*
X95330001Y-116814688D02*
G01*
X95052188Y-116814688D01*
X95052188Y-116536876D01*
X95330001Y-116536876D01*
X95330001Y-116814688D01*
G37*
G36*
X90607188Y-109869376D02*
G01*
X90329376Y-109869376D01*
X90329376Y-109591563D01*
X90607188Y-109591563D01*
X90607188Y-109869376D01*
G37*
G36*
X92274063Y-114036563D02*
G01*
X91996251Y-114036563D01*
X91996251Y-113758751D01*
X92274063Y-113758751D01*
X92274063Y-114036563D01*
G37*
D11*
X94734375Y-103775000D02*
X94734375Y-108050000D01*
D10*
G36*
X89495938Y-110702813D02*
G01*
X87551251Y-110702813D01*
X87551251Y-110411110D01*
X87842954Y-110411110D01*
X89204235Y-110411110D01*
X89204235Y-109049829D01*
X87842954Y-109049829D01*
X87842954Y-110411110D01*
X87551251Y-110411110D01*
X87551251Y-109049829D01*
X87551251Y-108758126D01*
X89495938Y-108758126D01*
X89495938Y-110702813D01*
G37*
G36*
X91162813Y-113758751D02*
G01*
X90885001Y-113758751D01*
X90885001Y-113480938D01*
X91162813Y-113480938D01*
X91162813Y-113758751D01*
G37*
G36*
X91718439Y-116814688D02*
G01*
X91440626Y-116814688D01*
X91440626Y-116536876D01*
X91718439Y-116536876D01*
X91718439Y-116814688D01*
G37*
G36*
X90885001Y-115147813D02*
G01*
X90607188Y-115147813D01*
X90607188Y-114870001D01*
X90885001Y-114870001D01*
X90885001Y-115147813D01*
G37*
G36*
X90607188Y-114870001D02*
G01*
X90329376Y-114870001D01*
X90329376Y-114592188D01*
X90607188Y-114592188D01*
X90607188Y-114870001D01*
G37*
G36*
X87829063Y-114036563D02*
G01*
X87551251Y-114036563D01*
X87551251Y-113758751D01*
X87829063Y-113758751D01*
X87829063Y-114036563D01*
G37*
G36*
X135424403Y-40001812D02*
G01*
X135246530Y-40001812D01*
X135106897Y-39643712D01*
X135284750Y-39643671D01*
X135424403Y-40001812D01*
G37*
G36*
X92551876Y-114036563D02*
G01*
X92274063Y-114036563D01*
X92274063Y-113758751D01*
X92551876Y-113758751D01*
X92551876Y-114036563D01*
G37*
G36*
X94496563Y-115703438D02*
G01*
X94218751Y-115703438D01*
X94218751Y-115425626D01*
X94496563Y-115425626D01*
X94496563Y-115703438D01*
G37*
G36*
X140285582Y-96656076D02*
G01*
X140038698Y-96656076D01*
X140055428Y-96670144D01*
X140071627Y-96684617D01*
X140087295Y-96699496D01*
X140102432Y-96714780D01*
X140117038Y-96730469D01*
X140131113Y-96746564D01*
X140144657Y-96763064D01*
X140157670Y-96779969D01*
X140170152Y-96797280D01*
X140182103Y-96814995D01*
X140193523Y-96833117D01*
X140204411Y-96851643D01*
X140214768Y-96870575D01*
X140224594Y-96889912D01*
X140233889Y-96909655D01*
X140242652Y-96929803D01*
X140250884Y-96950286D01*
X140258585Y-96971035D01*
X140265755Y-96992049D01*
X140272394Y-97013329D01*
X140278501Y-97034875D01*
X140284078Y-97056686D01*
X140289123Y-97078762D01*
X140293637Y-97101104D01*
X140297621Y-97123712D01*
X140301073Y-97146585D01*
X140303994Y-97169724D01*
X140306384Y-97193128D01*
X140308243Y-97216798D01*
X140309570Y-97240734D01*
X140310367Y-97264936D01*
X140310633Y-97289403D01*
X140310157Y-97324059D01*
X140308732Y-97358254D01*
X140306356Y-97391988D01*
X140303029Y-97425261D01*
X140298752Y-97458072D01*
X140293525Y-97490422D01*
X140287347Y-97522311D01*
X140280219Y-97553738D01*
X140272141Y-97584704D01*
X140263113Y-97615209D01*
X140253134Y-97645253D01*
X140242205Y-97674835D01*
X140230325Y-97703956D01*
X140217496Y-97732616D01*
X140203716Y-97760815D01*
X140188986Y-97788552D01*
X140173385Y-97815681D01*
X140157002Y-97842056D01*
X140139837Y-97867676D01*
X140121889Y-97892541D01*
X140103159Y-97916652D01*
X140083647Y-97940008D01*
X140063351Y-97962609D01*
X140042274Y-97984455D01*
X140020413Y-98005547D01*
X139997770Y-98025884D01*
X139974344Y-98045466D01*
X139950135Y-98064293D01*
X139925142Y-98082366D01*
X139899367Y-98099684D01*
X139872809Y-98116247D01*
X139845467Y-98132055D01*
X139817459Y-98147003D01*
X139788892Y-98160987D01*
X139759765Y-98174006D01*
X139730079Y-98186061D01*
X139699834Y-98197152D01*
X139669030Y-98207278D01*
X139637666Y-98216441D01*
X139605743Y-98224638D01*
X139573261Y-98231871D01*
X139540220Y-98238140D01*
X139506619Y-98243445D01*
X139472459Y-98247785D01*
X139437740Y-98251160D01*
X139402462Y-98253571D01*
X139366624Y-98255018D01*
X139330227Y-98255500D01*
X139293838Y-98255018D01*
X139258021Y-98253571D01*
X139222778Y-98251160D01*
X139188109Y-98247785D01*
X139154012Y-98243445D01*
X139120489Y-98238140D01*
X139087539Y-98231871D01*
X139055162Y-98224638D01*
X139023358Y-98216441D01*
X138992127Y-98207278D01*
X138961469Y-98197152D01*
X138931384Y-98186061D01*
X138901871Y-98174006D01*
X138872932Y-98160987D01*
X138844565Y-98147003D01*
X138816770Y-98132055D01*
X138789649Y-98116247D01*
X138763296Y-98099684D01*
X138737712Y-98082366D01*
X138712896Y-98064293D01*
X138688849Y-98045466D01*
X138665570Y-98025884D01*
X138643060Y-98005547D01*
X138621319Y-97984455D01*
X138600346Y-97962609D01*
X138580142Y-97940008D01*
X138560706Y-97916652D01*
X138542040Y-97892541D01*
X138524142Y-97867676D01*
X138507012Y-97842056D01*
X138490652Y-97815681D01*
X138475060Y-97788552D01*
X138460328Y-97760815D01*
X138446546Y-97732616D01*
X138433715Y-97703956D01*
X138421834Y-97674835D01*
X138410904Y-97645253D01*
X138400924Y-97615209D01*
X138391894Y-97584704D01*
X138383816Y-97553738D01*
X138376687Y-97522311D01*
X138370509Y-97490422D01*
X138365281Y-97458072D01*
X138361004Y-97425261D01*
X138357678Y-97391988D01*
X138355302Y-97358254D01*
X138353876Y-97324059D01*
X138353401Y-97289403D01*
X138353652Y-97266264D01*
X138354407Y-97243362D01*
X138354632Y-97239309D01*
X138732680Y-97239309D01*
X138733323Y-97269828D01*
X138735252Y-97299663D01*
X138738467Y-97328812D01*
X138742967Y-97357276D01*
X138748754Y-97385056D01*
X138755826Y-97412150D01*
X138764185Y-97438560D01*
X138773829Y-97464284D01*
X138784759Y-97489324D01*
X138796975Y-97513679D01*
X138810476Y-97537349D01*
X138825263Y-97560335D01*
X138841336Y-97582635D01*
X138858695Y-97604251D01*
X138877339Y-97625182D01*
X138897269Y-97645428D01*
X138918252Y-97664709D01*
X138940044Y-97682746D01*
X138962646Y-97699539D01*
X138986059Y-97715089D01*
X139010281Y-97729394D01*
X139035314Y-97742455D01*
X139061157Y-97754273D01*
X139087810Y-97764846D01*
X139115274Y-97774176D01*
X139143549Y-97782261D01*
X139172634Y-97789103D01*
X139202530Y-97794701D01*
X139233238Y-97799055D01*
X139264756Y-97802165D01*
X139297086Y-97804031D01*
X139330227Y-97804652D01*
X139363367Y-97804031D01*
X139395695Y-97802165D01*
X139427213Y-97799055D01*
X139457920Y-97794701D01*
X139487817Y-97789103D01*
X139516903Y-97782261D01*
X139545178Y-97774176D01*
X139572643Y-97764846D01*
X139599297Y-97754273D01*
X139625140Y-97742455D01*
X139650173Y-97729394D01*
X139674394Y-97715089D01*
X139697805Y-97699539D01*
X139720405Y-97682746D01*
X139742194Y-97664709D01*
X139763172Y-97645428D01*
X139783107Y-97625182D01*
X139801755Y-97604251D01*
X139819116Y-97582635D01*
X139835191Y-97560335D01*
X139849980Y-97537349D01*
X139863483Y-97513679D01*
X139875699Y-97489324D01*
X139886629Y-97464284D01*
X139896273Y-97438560D01*
X139904631Y-97412150D01*
X139911703Y-97385056D01*
X139917489Y-97357276D01*
X139921989Y-97328812D01*
X139925203Y-97299663D01*
X139927132Y-97269828D01*
X139927775Y-97239309D01*
X139927132Y-97208783D01*
X139925203Y-97178928D01*
X139921989Y-97149744D01*
X139917489Y-97121230D01*
X139911703Y-97093388D01*
X139904631Y-97066217D01*
X139896273Y-97039717D01*
X139886629Y-97013888D01*
X139875699Y-96988729D01*
X139863483Y-96964242D01*
X139849980Y-96940425D01*
X139835191Y-96917279D01*
X139819116Y-96894805D01*
X139801755Y-96873000D01*
X139783107Y-96851867D01*
X139763172Y-96831405D01*
X139742194Y-96811906D01*
X139720405Y-96793666D01*
X139697805Y-96776683D01*
X139674394Y-96760959D01*
X139650173Y-96746492D01*
X139625140Y-96733283D01*
X139599297Y-96721333D01*
X139572643Y-96710640D01*
X139545178Y-96701205D01*
X139516903Y-96693028D01*
X139487817Y-96686109D01*
X139457920Y-96680448D01*
X139427213Y-96676045D01*
X139395695Y-96672900D01*
X139363367Y-96671013D01*
X139330227Y-96670384D01*
X139297086Y-96671013D01*
X139264756Y-96672900D01*
X139233238Y-96676045D01*
X139202530Y-96680448D01*
X139172634Y-96686109D01*
X139143549Y-96693028D01*
X139115274Y-96701205D01*
X139087810Y-96710640D01*
X139061157Y-96721333D01*
X139035314Y-96733283D01*
X139010281Y-96746492D01*
X138986059Y-96760959D01*
X138962646Y-96776683D01*
X138940044Y-96793666D01*
X138918252Y-96811906D01*
X138897269Y-96831405D01*
X138877339Y-96851867D01*
X138858695Y-96873000D01*
X138841336Y-96894805D01*
X138825263Y-96917279D01*
X138810476Y-96940425D01*
X138796975Y-96964242D01*
X138784759Y-96988729D01*
X138773829Y-97013888D01*
X138764185Y-97039717D01*
X138755826Y-97066217D01*
X138748754Y-97093388D01*
X138742967Y-97121230D01*
X138738467Y-97149744D01*
X138735252Y-97178928D01*
X138733323Y-97208783D01*
X138732680Y-97239309D01*
X138354632Y-97239309D01*
X138355665Y-97220698D01*
X138357426Y-97198272D01*
X138359691Y-97176083D01*
X138362458Y-97154132D01*
X138365729Y-97132419D01*
X138369503Y-97110943D01*
X138373780Y-97089705D01*
X138378560Y-97068704D01*
X138383842Y-97047942D01*
X138389628Y-97027416D01*
X138395918Y-97007129D01*
X138402710Y-96987079D01*
X138410005Y-96967267D01*
X138417802Y-96947693D01*
X138426092Y-96928397D01*
X138434856Y-96909423D01*
X138444096Y-96890770D01*
X138453810Y-96872439D01*
X138464000Y-96854430D01*
X138474665Y-96836741D01*
X138485805Y-96819374D01*
X138497420Y-96802329D01*
X138509510Y-96785605D01*
X138522075Y-96769203D01*
X138535115Y-96753122D01*
X138548630Y-96737363D01*
X138562621Y-96721925D01*
X138577086Y-96706809D01*
X138592026Y-96692014D01*
X138607442Y-96677541D01*
X138374872Y-96677541D01*
X138374872Y-96230275D01*
X140285582Y-96230275D01*
X140285582Y-96656076D01*
G37*
G36*
X95330001Y-112925314D02*
G01*
X95052188Y-112925314D01*
X95052188Y-112647501D01*
X95330001Y-112647501D01*
X95330001Y-112925314D01*
G37*
G36*
X95607813Y-116259063D02*
G01*
X95330001Y-116259063D01*
X95330001Y-115981251D01*
X95607813Y-115981251D01*
X95607813Y-116259063D01*
G37*
G36*
X88940313Y-113203126D02*
G01*
X88662501Y-113203126D01*
X88662501Y-112925314D01*
X88940313Y-112925314D01*
X88940313Y-113203126D01*
G37*
G36*
X91718439Y-111536251D02*
G01*
X91440626Y-111536251D01*
X91440626Y-111258438D01*
X91718439Y-111258438D01*
X91718439Y-111536251D01*
G37*
G36*
X87829063Y-112369688D02*
G01*
X87551251Y-112369688D01*
X87551251Y-112091876D01*
X87829063Y-112091876D01*
X87829063Y-112369688D01*
G37*
G36*
X94218751Y-115981251D02*
G01*
X93940938Y-115981251D01*
X93940938Y-115703438D01*
X94218751Y-115703438D01*
X94218751Y-115981251D01*
G37*
G36*
X91162813Y-109035938D02*
G01*
X90885001Y-109035938D01*
X90885001Y-108758126D01*
X91162813Y-108758126D01*
X91162813Y-109035938D01*
G37*
G36*
X90607188Y-114036563D02*
G01*
X90329376Y-114036563D01*
X90329376Y-113758751D01*
X90607188Y-113758751D01*
X90607188Y-114036563D01*
G37*
G36*
X91162813Y-110425001D02*
G01*
X90885001Y-110425001D01*
X90885001Y-110147188D01*
X91162813Y-110147188D01*
X91162813Y-110425001D01*
G37*
G36*
X94218751Y-114314376D02*
G01*
X93940938Y-114314376D01*
X93940938Y-114036563D01*
X94218751Y-114036563D01*
X94218751Y-114314376D01*
G37*
G36*
X90051563Y-111814063D02*
G01*
X89773751Y-111814063D01*
X89773751Y-111536251D01*
X90051563Y-111536251D01*
X90051563Y-111814063D01*
G37*
G36*
X88940313Y-112925314D02*
G01*
X88662501Y-112925314D01*
X88662501Y-112647501D01*
X88940313Y-112647501D01*
X88940313Y-112925314D01*
G37*
G36*
X91718439Y-112369688D02*
G01*
X91440626Y-112369688D01*
X91440626Y-112091876D01*
X91718439Y-112091876D01*
X91718439Y-112369688D01*
G37*
G36*
X94218751Y-114036563D02*
G01*
X93940938Y-114036563D01*
X93940938Y-113758751D01*
X94218751Y-113758751D01*
X94218751Y-114036563D01*
G37*
G36*
X93107501Y-112647501D02*
G01*
X92829688Y-112647501D01*
X92829688Y-112369688D01*
X93107501Y-112369688D01*
X93107501Y-112647501D01*
G37*
G36*
X95052188Y-114036563D02*
G01*
X94774376Y-114036563D01*
X94774376Y-113758751D01*
X95052188Y-113758751D01*
X95052188Y-114036563D01*
G37*
G36*
X95330001Y-111258438D02*
G01*
X95052188Y-111258438D01*
X95052188Y-110980626D01*
X95330001Y-110980626D01*
X95330001Y-111258438D01*
G37*
G36*
X95052188Y-114314376D02*
G01*
X94774376Y-114314376D01*
X94774376Y-114036563D01*
X95052188Y-114036563D01*
X95052188Y-114314376D01*
G37*
G36*
X90607188Y-114592188D02*
G01*
X90329376Y-114592188D01*
X90329376Y-114314376D01*
X90607188Y-114314376D01*
X90607188Y-114592188D01*
G37*
G36*
X93940938Y-112925314D02*
G01*
X93663126Y-112925314D01*
X93663126Y-112647501D01*
X93940938Y-112647501D01*
X93940938Y-112925314D01*
G37*
G36*
X91162813Y-116814688D02*
G01*
X90885001Y-116814688D01*
X90885001Y-116536876D01*
X91162813Y-116536876D01*
X91162813Y-116814688D01*
G37*
G36*
X91162813Y-109313751D02*
G01*
X90885001Y-109313751D01*
X90885001Y-109035938D01*
X91162813Y-109035938D01*
X91162813Y-109313751D01*
G37*
G36*
X93385313Y-115425626D02*
G01*
X93107501Y-115425626D01*
X93107501Y-115147813D01*
X93385313Y-115147813D01*
X93385313Y-115425626D01*
G37*
G36*
X87829063Y-113203126D02*
G01*
X87551251Y-113203126D01*
X87551251Y-112925314D01*
X87829063Y-112925314D01*
X87829063Y-113203126D01*
G37*
G36*
X91162813Y-115703438D02*
G01*
X90885001Y-115703438D01*
X90885001Y-115425626D01*
X91162813Y-115425626D01*
X91162813Y-115703438D01*
G37*
G36*
X95052188Y-114870001D02*
G01*
X94774376Y-114870001D01*
X94774376Y-114592188D01*
X95052188Y-114592188D01*
X95052188Y-114870001D01*
G37*
G36*
X87829063Y-111258438D02*
G01*
X87551251Y-111258438D01*
X87551251Y-110980626D01*
X87829063Y-110980626D01*
X87829063Y-111258438D01*
G37*
D11*
X64734375Y-115775000D02*
X64734375Y-103775000D01*
D10*
G36*
X95052188Y-112369688D02*
G01*
X94774376Y-112369688D01*
X94774376Y-112091876D01*
X95052188Y-112091876D01*
X95052188Y-112369688D01*
G37*
G36*
X94218751Y-113758751D02*
G01*
X93940938Y-113758751D01*
X93940938Y-113480938D01*
X94218751Y-113480938D01*
X94218751Y-113758751D01*
G37*
G36*
X95052188Y-114592188D02*
G01*
X94774376Y-114592188D01*
X94774376Y-114314376D01*
X95052188Y-114314376D01*
X95052188Y-114592188D01*
G37*
G36*
X92274063Y-110980626D02*
G01*
X91996251Y-110980626D01*
X91996251Y-110702813D01*
X92274063Y-110702813D01*
X92274063Y-110980626D01*
G37*
G36*
X133557524Y-39643712D02*
G01*
X133417892Y-40001812D01*
X133240018Y-40001812D01*
X133379671Y-39643671D01*
X133557524Y-39643712D01*
G37*
G36*
X92274063Y-112647501D02*
G01*
X91996251Y-112647501D01*
X91996251Y-112369688D01*
X92274063Y-112369688D01*
X92274063Y-112647501D01*
G37*
G36*
X91718439Y-110702813D02*
G01*
X91440626Y-110702813D01*
X91440626Y-110425001D01*
X91718439Y-110425001D01*
X91718439Y-110702813D01*
G37*
G36*
X92829688Y-111814063D02*
G01*
X92551876Y-111814063D01*
X92551876Y-111536251D01*
X92829688Y-111536251D01*
X92829688Y-111814063D01*
G37*
G36*
X95607813Y-115981251D02*
G01*
X95330001Y-115981251D01*
X95330001Y-115703438D01*
X95607813Y-115703438D01*
X95607813Y-115981251D01*
G37*
G36*
X87829063Y-111536251D02*
G01*
X87551251Y-111536251D01*
X87551251Y-111258438D01*
X87829063Y-111258438D01*
X87829063Y-111536251D01*
G37*
G36*
X92274063Y-112091876D02*
G01*
X91996251Y-112091876D01*
X91996251Y-111814063D01*
X92274063Y-111814063D01*
X92274063Y-112091876D01*
G37*
G36*
X93107501Y-109869376D02*
G01*
X92829688Y-109869376D01*
X92829688Y-109591563D01*
X93107501Y-109591563D01*
X93107501Y-109869376D01*
G37*
G36*
X91440626Y-114036563D02*
G01*
X91162813Y-114036563D01*
X91162813Y-113758751D01*
X91440626Y-113758751D01*
X91440626Y-114036563D01*
G37*
G36*
X94496563Y-111536251D02*
G01*
X94218751Y-111536251D01*
X94218751Y-111258438D01*
X94496563Y-111258438D01*
X94496563Y-111536251D01*
G37*
G36*
X93107501Y-109035938D02*
G01*
X92829688Y-109035938D01*
X92829688Y-108758126D01*
X93107501Y-108758126D01*
X93107501Y-109035938D01*
G37*
G36*
X93663126Y-115981251D02*
G01*
X93385313Y-115981251D01*
X93385313Y-115703438D01*
X93663126Y-115703438D01*
X93663126Y-115981251D01*
G37*
G36*
X91440626Y-110425001D02*
G01*
X91162813Y-110425001D01*
X91162813Y-110147188D01*
X91440626Y-110147188D01*
X91440626Y-110425001D01*
G37*
G36*
X93663126Y-111814063D02*
G01*
X93385313Y-111814063D01*
X93385313Y-111536251D01*
X93663126Y-111536251D01*
X93663126Y-111814063D01*
G37*
G36*
X95052188Y-112647501D02*
G01*
X94774376Y-112647501D01*
X94774376Y-112369688D01*
X95052188Y-112369688D01*
X95052188Y-112647501D01*
G37*
G36*
X94218751Y-116536876D02*
G01*
X93940938Y-116536876D01*
X93940938Y-116259063D01*
X94218751Y-116259063D01*
X94218751Y-116536876D01*
G37*
G36*
X92829688Y-114314376D02*
G01*
X92551876Y-114314376D01*
X92551876Y-114036563D01*
X92829688Y-114036563D01*
X92829688Y-114314376D01*
G37*
G36*
X91718439Y-115425626D02*
G01*
X91440626Y-115425626D01*
X91440626Y-115147813D01*
X91718439Y-115147813D01*
X91718439Y-115425626D01*
G37*
G36*
X88384688Y-112369688D02*
G01*
X88106876Y-112369688D01*
X88106876Y-112091876D01*
X88384688Y-112091876D01*
X88384688Y-112369688D01*
G37*
G36*
X90329376Y-115981251D02*
G01*
X90051563Y-115981251D01*
X90051563Y-115703438D01*
X90329376Y-115703438D01*
X90329376Y-115981251D01*
G37*
G36*
X93385313Y-114870001D02*
G01*
X93107501Y-114870001D01*
X93107501Y-114592188D01*
X93385313Y-114592188D01*
X93385313Y-114870001D01*
G37*
G36*
X92274063Y-109313751D02*
G01*
X91996251Y-109313751D01*
X91996251Y-109035938D01*
X92274063Y-109035938D01*
X92274063Y-109313751D01*
G37*
G36*
X92551876Y-109869376D02*
G01*
X92274063Y-109869376D01*
X92274063Y-109591563D01*
X92551876Y-109591563D01*
X92551876Y-109869376D01*
G37*
G36*
X140285582Y-98853048D02*
G01*
X139466201Y-99515000D01*
X139781065Y-99847767D01*
X140285582Y-99847767D01*
X140285582Y-100295033D01*
X137630615Y-100295033D01*
X137630615Y-99847767D01*
X139233605Y-99847767D01*
X138374872Y-98921031D01*
X138374872Y-98384310D01*
X139176374Y-99182236D01*
X140285582Y-98309169D01*
X140285582Y-98853048D01*
G37*
D11*
X64734375Y-103775000D02*
X94734375Y-103775000D01*
D10*
G36*
X90051563Y-114036563D02*
G01*
X89773751Y-114036563D01*
X89773751Y-113758751D01*
X90051563Y-113758751D01*
X90051563Y-114036563D01*
G37*
G36*
X94218751Y-111814063D02*
G01*
X93940938Y-111814063D01*
X93940938Y-111536251D01*
X94218751Y-111536251D01*
X94218751Y-111814063D01*
G37*
G36*
X91718439Y-112647501D02*
G01*
X91440626Y-112647501D01*
X91440626Y-112369688D01*
X91718439Y-112369688D01*
X91718439Y-112647501D01*
G37*
G36*
X90607188Y-114314376D02*
G01*
X90329376Y-114314376D01*
X90329376Y-114036563D01*
X90607188Y-114036563D01*
X90607188Y-114314376D01*
G37*
G36*
X93940938Y-114592188D02*
G01*
X93663126Y-114592188D01*
X93663126Y-114314376D01*
X93940938Y-114314376D01*
X93940938Y-114592188D01*
G37*
G36*
X91718439Y-114036563D02*
G01*
X91440626Y-114036563D01*
X91440626Y-113758751D01*
X91718439Y-113758751D01*
X91718439Y-114036563D01*
G37*
G36*
X92551876Y-109313751D02*
G01*
X92274063Y-109313751D01*
X92274063Y-109035938D01*
X92551876Y-109035938D01*
X92551876Y-109313751D01*
G37*
G36*
X93385313Y-112925314D02*
G01*
X93107501Y-112925314D01*
X93107501Y-112647501D01*
X93385313Y-112647501D01*
X93385313Y-112925314D01*
G37*
G36*
X94774376Y-114592188D02*
G01*
X94496563Y-114592188D01*
X94496563Y-114314376D01*
X94774376Y-114314376D01*
X94774376Y-114592188D01*
G37*
G36*
X91996251Y-109035938D02*
G01*
X91718439Y-109035938D01*
X91718439Y-108758126D01*
X91996251Y-108758126D01*
X91996251Y-109035938D01*
G37*
G36*
X91162813Y-112091876D02*
G01*
X90885001Y-112091876D01*
X90885001Y-111814063D01*
X91162813Y-111814063D01*
X91162813Y-112091876D01*
G37*
G36*
X90051563Y-112369688D02*
G01*
X89773751Y-112369688D01*
X89773751Y-112091876D01*
X90051563Y-112091876D01*
X90051563Y-112369688D01*
G37*
G36*
X90885001Y-111258438D02*
G01*
X90607188Y-111258438D01*
X90607188Y-110980626D01*
X90885001Y-110980626D01*
X90885001Y-111258438D01*
G37*
G36*
X93940938Y-114036563D02*
G01*
X93663126Y-114036563D01*
X93663126Y-113758751D01*
X93940938Y-113758751D01*
X93940938Y-114036563D01*
G37*
G36*
X88384688Y-113480938D02*
G01*
X88106876Y-113480938D01*
X88106876Y-113203126D01*
X88384688Y-113203126D01*
X88384688Y-113480938D01*
G37*
G36*
X91996251Y-110425001D02*
G01*
X91718439Y-110425001D01*
X91718439Y-110147188D01*
X91996251Y-110147188D01*
X91996251Y-110425001D01*
G37*
G36*
X89218126Y-114314376D02*
G01*
X88940313Y-114314376D01*
X88940313Y-114036563D01*
X89218126Y-114036563D01*
X89218126Y-114314376D01*
G37*
G36*
X91996251Y-112369688D02*
G01*
X91718439Y-112369688D01*
X91718439Y-112091876D01*
X91996251Y-112091876D01*
X91996251Y-112369688D01*
G37*
G36*
X140285582Y-88930892D02*
G01*
X140038698Y-88930892D01*
X140055428Y-88944960D01*
X140071627Y-88959433D01*
X140087295Y-88974312D01*
X140102432Y-88989596D01*
X140117038Y-89005286D01*
X140131113Y-89021380D01*
X140144657Y-89037880D01*
X140157670Y-89054785D01*
X140170152Y-89072096D01*
X140182103Y-89089812D01*
X140193523Y-89107933D01*
X140204411Y-89126460D01*
X140214768Y-89145392D01*
X140224594Y-89164729D01*
X140233889Y-89184471D01*
X140242652Y-89204619D01*
X140250884Y-89225103D01*
X140258585Y-89245852D01*
X140265755Y-89266866D01*
X140272394Y-89288147D01*
X140278501Y-89309692D01*
X140284078Y-89331504D01*
X140289123Y-89353581D01*
X140293637Y-89375923D01*
X140297621Y-89398531D01*
X140301073Y-89421404D01*
X140303994Y-89444543D01*
X140306384Y-89467948D01*
X140308243Y-89491617D01*
X140309570Y-89515553D01*
X140310367Y-89539753D01*
X140310633Y-89564219D01*
X140310157Y-89598876D01*
X140308732Y-89633071D01*
X140306356Y-89666805D01*
X140303029Y-89700078D01*
X140298752Y-89732889D01*
X140293525Y-89765239D01*
X140287347Y-89797128D01*
X140280219Y-89828556D01*
X140272141Y-89859522D01*
X140263113Y-89890027D01*
X140253134Y-89920071D01*
X140242205Y-89949654D01*
X140230325Y-89978775D01*
X140217496Y-90007435D01*
X140203716Y-90035634D01*
X140188986Y-90063372D01*
X140173385Y-90090501D01*
X140157002Y-90116875D01*
X140139837Y-90142494D01*
X140121889Y-90167359D01*
X140103159Y-90191469D01*
X140083647Y-90214825D01*
X140063351Y-90237426D01*
X140042274Y-90259272D01*
X140020413Y-90280364D01*
X139997770Y-90300700D01*
X139974344Y-90320282D01*
X139950135Y-90339110D01*
X139925142Y-90357182D01*
X139899367Y-90374500D01*
X139872809Y-90391063D01*
X139845467Y-90406871D01*
X139817459Y-90421820D01*
X139788892Y-90435804D01*
X139759765Y-90448824D01*
X139730079Y-90460879D01*
X139699834Y-90471970D01*
X139669030Y-90482096D01*
X139637666Y-90491258D01*
X139605743Y-90499456D01*
X139573261Y-90506689D01*
X139540220Y-90512957D01*
X139506619Y-90518262D01*
X139472459Y-90522601D01*
X139437740Y-90525977D01*
X139402462Y-90528388D01*
X139366624Y-90529834D01*
X139330227Y-90530317D01*
X139293838Y-90529834D01*
X139258021Y-90528388D01*
X139222778Y-90525977D01*
X139188109Y-90522601D01*
X139154012Y-90518262D01*
X139120489Y-90512957D01*
X139087539Y-90506689D01*
X139055162Y-90499456D01*
X139023358Y-90491258D01*
X138992127Y-90482096D01*
X138961469Y-90471970D01*
X138931384Y-90460879D01*
X138901871Y-90448824D01*
X138872932Y-90435804D01*
X138844565Y-90421820D01*
X138816770Y-90406871D01*
X138789649Y-90391063D01*
X138763296Y-90374500D01*
X138737712Y-90357182D01*
X138712896Y-90339110D01*
X138688849Y-90320282D01*
X138665570Y-90300700D01*
X138643060Y-90280364D01*
X138621319Y-90259272D01*
X138600346Y-90237426D01*
X138580142Y-90214825D01*
X138560706Y-90191469D01*
X138542040Y-90167359D01*
X138524142Y-90142494D01*
X138507012Y-90116875D01*
X138490652Y-90090501D01*
X138475060Y-90063372D01*
X138460328Y-90035634D01*
X138446546Y-90007435D01*
X138433715Y-89978775D01*
X138421834Y-89949654D01*
X138410904Y-89920071D01*
X138400924Y-89890027D01*
X138391894Y-89859522D01*
X138383816Y-89828556D01*
X138376687Y-89797128D01*
X138370509Y-89765239D01*
X138365281Y-89732889D01*
X138361004Y-89700078D01*
X138357678Y-89666805D01*
X138355302Y-89633071D01*
X138353876Y-89598876D01*
X138353401Y-89564219D01*
X138353652Y-89541080D01*
X138354407Y-89518179D01*
X138354632Y-89514126D01*
X138732680Y-89514126D01*
X138733323Y-89544645D01*
X138735252Y-89574479D01*
X138738467Y-89603629D01*
X138742967Y-89632094D01*
X138748754Y-89659873D01*
X138755826Y-89686968D01*
X138764185Y-89713378D01*
X138773829Y-89739103D01*
X138784759Y-89764143D01*
X138796975Y-89788498D01*
X138810476Y-89812169D01*
X138825263Y-89835154D01*
X138841336Y-89857454D01*
X138858695Y-89879069D01*
X138877339Y-89899999D01*
X138897269Y-89920244D01*
X138918252Y-89939526D01*
X138940044Y-89957564D01*
X138962646Y-89974358D01*
X138986059Y-89989907D01*
X139010281Y-90004213D01*
X139035314Y-90017275D01*
X139061157Y-90029093D01*
X139087810Y-90039667D01*
X139115274Y-90048997D01*
X139143549Y-90057083D01*
X139172634Y-90063925D01*
X139202530Y-90069523D01*
X139233238Y-90073877D01*
X139264756Y-90076987D01*
X139297086Y-90078853D01*
X139330227Y-90079475D01*
X139363367Y-90078853D01*
X139395695Y-90076987D01*
X139427213Y-90073877D01*
X139457920Y-90069523D01*
X139487817Y-90063925D01*
X139516903Y-90057083D01*
X139545178Y-90048997D01*
X139572643Y-90039667D01*
X139599297Y-90029093D01*
X139625140Y-90017275D01*
X139650173Y-90004213D01*
X139674394Y-89989907D01*
X139697805Y-89974358D01*
X139720405Y-89957564D01*
X139742194Y-89939526D01*
X139763172Y-89920244D01*
X139783107Y-89899999D01*
X139801755Y-89879069D01*
X139819116Y-89857454D01*
X139835191Y-89835154D01*
X139849980Y-89812169D01*
X139863483Y-89788498D01*
X139875699Y-89764143D01*
X139886629Y-89739103D01*
X139896273Y-89713378D01*
X139904631Y-89686968D01*
X139911703Y-89659873D01*
X139917489Y-89632094D01*
X139921989Y-89603629D01*
X139925203Y-89574479D01*
X139927132Y-89544645D01*
X139927775Y-89514126D01*
X139927132Y-89483600D01*
X139925203Y-89453745D01*
X139921989Y-89424561D01*
X139917489Y-89396048D01*
X139911703Y-89368206D01*
X139904631Y-89341035D01*
X139896273Y-89314535D01*
X139886629Y-89288705D01*
X139875699Y-89263547D01*
X139863483Y-89239059D01*
X139849980Y-89215242D01*
X139835191Y-89192096D01*
X139819116Y-89169621D01*
X139801755Y-89147817D01*
X139783107Y-89126683D01*
X139763172Y-89106221D01*
X139742194Y-89086723D01*
X139720405Y-89068482D01*
X139697805Y-89051500D01*
X139674394Y-89035776D01*
X139650173Y-89021310D01*
X139625140Y-89008102D01*
X139599297Y-88996152D01*
X139572643Y-88985460D01*
X139545178Y-88976025D01*
X139516903Y-88967849D01*
X139487817Y-88960930D01*
X139457920Y-88955270D01*
X139427213Y-88950867D01*
X139395695Y-88947723D01*
X139363367Y-88945836D01*
X139330227Y-88945207D01*
X139297086Y-88945836D01*
X139264756Y-88947723D01*
X139233238Y-88950867D01*
X139202530Y-88955270D01*
X139172634Y-88960930D01*
X139143549Y-88967849D01*
X139115274Y-88976025D01*
X139087810Y-88985460D01*
X139061157Y-88996152D01*
X139035314Y-89008102D01*
X139010281Y-89021310D01*
X138986059Y-89035776D01*
X138962646Y-89051500D01*
X138940044Y-89068482D01*
X138918252Y-89086723D01*
X138897269Y-89106221D01*
X138877339Y-89126683D01*
X138858695Y-89147817D01*
X138841336Y-89169621D01*
X138825263Y-89192096D01*
X138810476Y-89215242D01*
X138796975Y-89239059D01*
X138784759Y-89263547D01*
X138773829Y-89288705D01*
X138764185Y-89314535D01*
X138755826Y-89341035D01*
X138748754Y-89368206D01*
X138742967Y-89396048D01*
X138738467Y-89424561D01*
X138735252Y-89453745D01*
X138733323Y-89483600D01*
X138732680Y-89514126D01*
X138354632Y-89514126D01*
X138355665Y-89495515D01*
X138357426Y-89473089D01*
X138359691Y-89450901D01*
X138362458Y-89428950D01*
X138365729Y-89407237D01*
X138369503Y-89385761D01*
X138373780Y-89364524D01*
X138378560Y-89343523D01*
X138383842Y-89322761D01*
X138389628Y-89302235D01*
X138395918Y-89281947D01*
X138402710Y-89261897D01*
X138410005Y-89242084D01*
X138417802Y-89222509D01*
X138426092Y-89203214D01*
X138434856Y-89184240D01*
X138444096Y-89165588D01*
X138453810Y-89147258D01*
X138464000Y-89129248D01*
X138474665Y-89111561D01*
X138485805Y-89094194D01*
X138497420Y-89077149D01*
X138509510Y-89060425D01*
X138522075Y-89044023D01*
X138535115Y-89027942D01*
X138548630Y-89012182D01*
X138562621Y-88996744D01*
X138577086Y-88981627D01*
X138592026Y-88966831D01*
X138607442Y-88952357D01*
X138374872Y-88952357D01*
X138374872Y-88505092D01*
X140285582Y-88505092D01*
X140285582Y-88930892D01*
G37*
G36*
X89218126Y-112647501D02*
G01*
X88940313Y-112647501D01*
X88940313Y-112369688D01*
X89218126Y-112369688D01*
X89218126Y-112647501D01*
G37*
G36*
X90051563Y-114870001D02*
G01*
X89773751Y-114870001D01*
X89773751Y-114592188D01*
X90051563Y-114592188D01*
X90051563Y-114870001D01*
G37*
G36*
X92551876Y-111814063D02*
G01*
X92274063Y-111814063D01*
X92274063Y-111536251D01*
X92551876Y-111536251D01*
X92551876Y-111814063D01*
G37*
G36*
X91996251Y-112925314D02*
G01*
X91718439Y-112925314D01*
X91718439Y-112647501D01*
X91996251Y-112647501D01*
X91996251Y-112925314D01*
G37*
G36*
X92274063Y-116259063D02*
G01*
X91996251Y-116259063D01*
X91996251Y-115981251D01*
X92274063Y-115981251D01*
X92274063Y-116259063D01*
G37*
G36*
X92829688Y-113203126D02*
G01*
X92551876Y-113203126D01*
X92551876Y-112925314D01*
X92829688Y-112925314D01*
X92829688Y-113203126D01*
G37*
G36*
X88662501Y-111258438D02*
G01*
X88384688Y-111258438D01*
X88384688Y-110980626D01*
X88662501Y-110980626D01*
X88662501Y-111258438D01*
G37*
G36*
X92274063Y-114870001D02*
G01*
X91996251Y-114870001D01*
X91996251Y-114592188D01*
X92274063Y-114592188D01*
X92274063Y-114870001D01*
G37*
G36*
X93385313Y-109035938D02*
G01*
X93107501Y-109035938D01*
X93107501Y-108758126D01*
X93385313Y-108758126D01*
X93385313Y-109035938D01*
G37*
G36*
X89218126Y-114592188D02*
G01*
X88940313Y-114592188D01*
X88940313Y-114314376D01*
X89218126Y-114314376D01*
X89218126Y-114592188D01*
G37*
G36*
X94218751Y-116259063D02*
G01*
X93940938Y-116259063D01*
X93940938Y-115981251D01*
X94218751Y-115981251D01*
X94218751Y-116259063D01*
G37*
G36*
X93940938Y-116814688D02*
G01*
X93663126Y-116814688D01*
X93663126Y-116536876D01*
X93940938Y-116536876D01*
X93940938Y-116814688D01*
G37*
G36*
X88106876Y-111814063D02*
G01*
X87829063Y-111814063D01*
X87829063Y-111536251D01*
X88106876Y-111536251D01*
X88106876Y-111814063D01*
G37*
G36*
X135246617Y-40001800D02*
G01*
X134888780Y-40001800D01*
X133621016Y-36750595D01*
X133978853Y-36750595D01*
X135246617Y-40001800D01*
G37*
G36*
X93663126Y-113203126D02*
G01*
X93385313Y-113203126D01*
X93385313Y-112925314D01*
X93663126Y-112925314D01*
X93663126Y-113203126D01*
G37*
G36*
X93663126Y-114592188D02*
G01*
X93385313Y-114592188D01*
X93385313Y-114314376D01*
X93663126Y-114314376D01*
X93663126Y-114592188D01*
G37*
G36*
X94496563Y-112091876D02*
G01*
X94218751Y-112091876D01*
X94218751Y-111814063D01*
X94496563Y-111814063D01*
X94496563Y-112091876D01*
G37*
G36*
X89495938Y-111258438D02*
G01*
X89218126Y-111258438D01*
X89218126Y-110980626D01*
X89495938Y-110980626D01*
X89495938Y-111258438D01*
G37*
G36*
X87829063Y-113480938D02*
G01*
X87551251Y-113480938D01*
X87551251Y-113203126D01*
X87829063Y-113203126D01*
X87829063Y-113480938D01*
G37*
G36*
X95607813Y-112647501D02*
G01*
X95330001Y-112647501D01*
X95330001Y-112369688D01*
X95607813Y-112369688D01*
X95607813Y-112647501D01*
G37*
G36*
X93385313Y-115703438D02*
G01*
X93107501Y-115703438D01*
X93107501Y-115425626D01*
X93385313Y-115425626D01*
X93385313Y-115703438D01*
G37*
G36*
X92551876Y-114870001D02*
G01*
X92274063Y-114870001D01*
X92274063Y-114592188D01*
X92551876Y-114592188D01*
X92551876Y-114870001D01*
G37*
G36*
X92829688Y-110702813D02*
G01*
X92551876Y-110702813D01*
X92551876Y-110425001D01*
X92829688Y-110425001D01*
X92829688Y-110702813D01*
G37*
G36*
X92829688Y-111536251D02*
G01*
X92551876Y-111536251D01*
X92551876Y-111258438D01*
X92829688Y-111258438D01*
X92829688Y-111536251D01*
G37*
G36*
X92551876Y-113758751D02*
G01*
X92274063Y-113758751D01*
X92274063Y-113480938D01*
X92551876Y-113480938D01*
X92551876Y-113758751D01*
G37*
G36*
X91718439Y-109035938D02*
G01*
X91440626Y-109035938D01*
X91440626Y-108758126D01*
X91718439Y-108758126D01*
X91718439Y-109035938D01*
G37*
G36*
X93385313Y-110980626D02*
G01*
X93107501Y-110980626D01*
X93107501Y-110702813D01*
X93385313Y-110702813D01*
X93385313Y-110980626D01*
G37*
G36*
X93385313Y-115147813D02*
G01*
X93107501Y-115147813D01*
X93107501Y-114870001D01*
X93385313Y-114870001D01*
X93385313Y-115147813D01*
G37*
G36*
X89218126Y-111258438D02*
G01*
X88940313Y-111258438D01*
X88940313Y-110980626D01*
X89218126Y-110980626D01*
X89218126Y-111258438D01*
G37*
G36*
X95607813Y-112091876D02*
G01*
X95330001Y-112091876D01*
X95330001Y-111814063D01*
X95607813Y-111814063D01*
X95607813Y-112091876D01*
G37*
G36*
X138776676Y-94551967D02*
G01*
X138774497Y-94565776D01*
X138772652Y-94579249D01*
X138771142Y-94592388D01*
X138769966Y-94605191D01*
X138769126Y-94617658D01*
X138768621Y-94629790D01*
X138768453Y-94641587D01*
X138769047Y-94673790D01*
X138770830Y-94705098D01*
X138773801Y-94735512D01*
X138777960Y-94765032D01*
X138783307Y-94793657D01*
X138789842Y-94821387D01*
X138797566Y-94848224D01*
X138806477Y-94874165D01*
X138816576Y-94899213D01*
X138827863Y-94923365D01*
X138840338Y-94946623D01*
X138854000Y-94968987D01*
X138868850Y-94990456D01*
X138884887Y-95011030D01*
X138902112Y-95030710D01*
X138920524Y-95049495D01*
X138940058Y-95067259D01*
X138960641Y-95083878D01*
X138982271Y-95099350D01*
X139004950Y-95113676D01*
X139028676Y-95126856D01*
X139053451Y-95138890D01*
X139079274Y-95149778D01*
X139106145Y-95159520D01*
X139134065Y-95168115D01*
X139163033Y-95175565D01*
X139193049Y-95181868D01*
X139224113Y-95187026D01*
X139256226Y-95191037D01*
X139289388Y-95193902D01*
X139323598Y-95195621D01*
X139358856Y-95196194D01*
X140285582Y-95196194D01*
X140285582Y-95643464D01*
X138374872Y-95643464D01*
X138374872Y-95217666D01*
X138653964Y-95217666D01*
X138635472Y-95205303D01*
X138617567Y-95192367D01*
X138600250Y-95178859D01*
X138583519Y-95164777D01*
X138567376Y-95150122D01*
X138551819Y-95134894D01*
X138536850Y-95119092D01*
X138522467Y-95102718D01*
X138508672Y-95085771D01*
X138495464Y-95068251D01*
X138482842Y-95050158D01*
X138470808Y-95031491D01*
X138459361Y-95012252D01*
X138448501Y-94992439D01*
X138438228Y-94972054D01*
X138428541Y-94951095D01*
X138419442Y-94929564D01*
X138410930Y-94907459D01*
X138403005Y-94884781D01*
X138395667Y-94861531D01*
X138388916Y-94837707D01*
X138382753Y-94813310D01*
X138372186Y-94762797D01*
X138363967Y-94709992D01*
X138358097Y-94654895D01*
X138354575Y-94597505D01*
X138353401Y-94537824D01*
X138779189Y-94537824D01*
X138776676Y-94551967D01*
G37*
G36*
X93107501Y-110980626D02*
G01*
X92829688Y-110980626D01*
X92829688Y-110702813D01*
X93107501Y-110702813D01*
X93107501Y-110980626D01*
G37*
G36*
X90885001Y-109591563D02*
G01*
X90607188Y-109591563D01*
X90607188Y-109313751D01*
X90885001Y-109313751D01*
X90885001Y-109591563D01*
G37*
G36*
X92274063Y-113758751D02*
G01*
X91996251Y-113758751D01*
X91996251Y-113480938D01*
X92274063Y-113480938D01*
X92274063Y-113758751D01*
G37*
G36*
X90607188Y-110702813D02*
G01*
X90329376Y-110702813D01*
X90329376Y-110425001D01*
X90607188Y-110425001D01*
X90607188Y-110702813D01*
G37*
G36*
X90051563Y-109313751D02*
G01*
X89773751Y-109313751D01*
X89773751Y-109035938D01*
X90051563Y-109035938D01*
X90051563Y-109313751D01*
G37*
G36*
X93107501Y-110147188D02*
G01*
X92829688Y-110147188D01*
X92829688Y-109869376D01*
X93107501Y-109869376D01*
X93107501Y-110147188D01*
G37*
G36*
X94774376Y-115425626D02*
G01*
X94496563Y-115425626D01*
X94496563Y-115147813D01*
X94774376Y-115147813D01*
X94774376Y-115425626D01*
G37*
G36*
X89495938Y-114036563D02*
G01*
X89218126Y-114036563D01*
X89218126Y-113758751D01*
X89495938Y-113758751D01*
X89495938Y-114036563D01*
G37*
G36*
X93107501Y-113480938D02*
G01*
X92829688Y-113480938D01*
X92829688Y-113203126D01*
X93107501Y-113203126D01*
X93107501Y-113480938D01*
G37*
G36*
X91162813Y-115981251D02*
G01*
X90885001Y-115981251D01*
X90885001Y-115703438D01*
X91162813Y-115703438D01*
X91162813Y-115981251D01*
G37*
G36*
X90051563Y-109035938D02*
G01*
X89773751Y-109035938D01*
X89773751Y-108758126D01*
X90051563Y-108758126D01*
X90051563Y-109035938D01*
G37*
G36*
X94496563Y-114870001D02*
G01*
X94218751Y-114870001D01*
X94218751Y-114592188D01*
X94496563Y-114592188D01*
X94496563Y-114870001D01*
G37*
G36*
X91996251Y-110980626D02*
G01*
X91718439Y-110980626D01*
X91718439Y-110702813D01*
X91996251Y-110702813D01*
X91996251Y-110980626D01*
G37*
G36*
X88384688Y-114592188D02*
G01*
X88106876Y-114592188D01*
X88106876Y-114314376D01*
X88384688Y-114314376D01*
X88384688Y-114592188D01*
G37*
G36*
X89495938Y-112925314D02*
G01*
X89218126Y-112925314D01*
X89218126Y-112647501D01*
X89495938Y-112647501D01*
X89495938Y-112925314D01*
G37*
G36*
X88662501Y-114314376D02*
G01*
X88384688Y-114314376D01*
X88384688Y-114036563D01*
X88662501Y-114036563D01*
X88662501Y-114314376D01*
G37*
G36*
X94496563Y-115147813D02*
G01*
X94218751Y-115147813D01*
X94218751Y-114870001D01*
X94496563Y-114870001D01*
X94496563Y-115147813D01*
G37*
G36*
X91996251Y-113480938D02*
G01*
X91718439Y-113480938D01*
X91718439Y-113203126D01*
X91996251Y-113203126D01*
X91996251Y-113480938D01*
G37*
G36*
X93385313Y-109313751D02*
G01*
X93107501Y-109313751D01*
X93107501Y-109035938D01*
X93385313Y-109035938D01*
X93385313Y-109313751D01*
G37*
G36*
X93385313Y-116536876D02*
G01*
X93107501Y-116536876D01*
X93107501Y-116259063D01*
X93385313Y-116259063D01*
X93385313Y-116536876D01*
G37*
G36*
X95607813Y-112925314D02*
G01*
X95330001Y-112925314D01*
X95330001Y-112647501D01*
X95607813Y-112647501D01*
X95607813Y-112925314D01*
G37*
G36*
X90051563Y-109869376D02*
G01*
X89773751Y-109869376D01*
X89773751Y-109591563D01*
X90051563Y-109591563D01*
X90051563Y-109869376D01*
G37*
G36*
X90329376Y-109869376D02*
G01*
X90051563Y-109869376D01*
X90051563Y-109591563D01*
X90329376Y-109591563D01*
X90329376Y-109869376D01*
G37*
G36*
X95052188Y-115703438D02*
G01*
X94774376Y-115703438D01*
X94774376Y-115425626D01*
X95052188Y-115425626D01*
X95052188Y-115703438D01*
G37*
G36*
X92274063Y-114592188D02*
G01*
X91996251Y-114592188D01*
X91996251Y-114314376D01*
X92274063Y-114314376D01*
X92274063Y-114592188D01*
G37*
G36*
X93663126Y-116536876D02*
G01*
X93385313Y-116536876D01*
X93385313Y-116259063D01*
X93663126Y-116259063D01*
X93663126Y-116536876D01*
G37*
G36*
X94218751Y-114592188D02*
G01*
X93940938Y-114592188D01*
X93940938Y-114314376D01*
X94218751Y-114314376D01*
X94218751Y-114592188D01*
G37*
G36*
X94496563Y-114314376D02*
G01*
X94218751Y-114314376D01*
X94218751Y-114036563D01*
X94496563Y-114036563D01*
X94496563Y-114314376D01*
G37*
G36*
X93107501Y-112925314D02*
G01*
X92829688Y-112925314D01*
X92829688Y-112647501D01*
X93107501Y-112647501D01*
X93107501Y-112925314D01*
G37*
G36*
X90051563Y-115981251D02*
G01*
X89773751Y-115981251D01*
X89773751Y-115703438D01*
X90051563Y-115703438D01*
X90051563Y-115981251D01*
G37*
G36*
X89773751Y-111258438D02*
G01*
X89495938Y-111258438D01*
X89495938Y-110980626D01*
X89773751Y-110980626D01*
X89773751Y-111258438D01*
G37*
G36*
X94218751Y-113203126D02*
G01*
X93940938Y-113203126D01*
X93940938Y-112925314D01*
X94218751Y-112925314D01*
X94218751Y-113203126D01*
G37*
G36*
X91996251Y-111258438D02*
G01*
X91718439Y-111258438D01*
X91718439Y-110980626D01*
X91996251Y-110980626D01*
X91996251Y-111258438D01*
G37*
G36*
X90329376Y-114870001D02*
G01*
X90051563Y-114870001D01*
X90051563Y-114592188D01*
X90329376Y-114592188D01*
X90329376Y-114870001D01*
G37*
G36*
X88662501Y-113480938D02*
G01*
X88384688Y-113480938D01*
X88384688Y-113203126D01*
X88662501Y-113203126D01*
X88662501Y-113480938D01*
G37*
G36*
X91718439Y-114314376D02*
G01*
X91440626Y-114314376D01*
X91440626Y-114036563D01*
X91718439Y-114036563D01*
X91718439Y-114314376D01*
G37*
G36*
X90885001Y-112091876D02*
G01*
X90607188Y-112091876D01*
X90607188Y-111814063D01*
X90885001Y-111814063D01*
X90885001Y-112091876D01*
G37*
G36*
X90329376Y-112925314D02*
G01*
X90051563Y-112925314D01*
X90051563Y-112647501D01*
X90329376Y-112647501D01*
X90329376Y-112925314D01*
G37*
G36*
X140285582Y-91410534D02*
G01*
X139247933Y-91410534D01*
X139217106Y-91410968D01*
X139187244Y-91412268D01*
X139158346Y-91414434D01*
X139130413Y-91417468D01*
X139103445Y-91421367D01*
X139077440Y-91426134D01*
X139052401Y-91431767D01*
X139028326Y-91438267D01*
X139005215Y-91445633D01*
X138983069Y-91453866D01*
X138961887Y-91462965D01*
X138941670Y-91472931D01*
X138922418Y-91483764D01*
X138904131Y-91495463D01*
X138886808Y-91508028D01*
X138870449Y-91521460D01*
X138855067Y-91535703D01*
X138840677Y-91550700D01*
X138827279Y-91566452D01*
X138814874Y-91582958D01*
X138803461Y-91600220D01*
X138793040Y-91618236D01*
X138783612Y-91637007D01*
X138775176Y-91656532D01*
X138767732Y-91676813D01*
X138761281Y-91697848D01*
X138755822Y-91719638D01*
X138751356Y-91742183D01*
X138747882Y-91765483D01*
X138745401Y-91789537D01*
X138743912Y-91814347D01*
X138743416Y-91839911D01*
X138743996Y-91867739D01*
X138745736Y-91894869D01*
X138748636Y-91921299D01*
X138752696Y-91947031D01*
X138757916Y-91972065D01*
X138764296Y-91996399D01*
X138771836Y-92020034D01*
X138780535Y-92042971D01*
X138790395Y-92065209D01*
X138801415Y-92086748D01*
X138813595Y-92107587D01*
X138826935Y-92127728D01*
X138841435Y-92147170D01*
X138857095Y-92165914D01*
X138873915Y-92183958D01*
X138891895Y-92201303D01*
X138910956Y-92217768D01*
X138931008Y-92233171D01*
X138952053Y-92247511D01*
X138974090Y-92260789D01*
X138997118Y-92273005D01*
X139021139Y-92284159D01*
X139046152Y-92294250D01*
X139072157Y-92303279D01*
X139099154Y-92311246D01*
X139127143Y-92318150D01*
X139156124Y-92323992D01*
X139186098Y-92328772D01*
X139217063Y-92332490D01*
X139249021Y-92335146D01*
X139281971Y-92336739D01*
X139315913Y-92337270D01*
X140285582Y-92337270D01*
X140285582Y-92784536D01*
X139247933Y-92784536D01*
X139217106Y-92784969D01*
X139187244Y-92786269D01*
X139158346Y-92788436D01*
X139130413Y-92791469D01*
X139103445Y-92795369D01*
X139077440Y-92800135D01*
X139052401Y-92805769D01*
X139028326Y-92812268D01*
X139005215Y-92819635D01*
X138983069Y-92827868D01*
X138961887Y-92836967D01*
X138941670Y-92846933D01*
X138922418Y-92857766D01*
X138904131Y-92869465D01*
X138886808Y-92882030D01*
X138870449Y-92895463D01*
X138855067Y-92909704D01*
X138840677Y-92924701D01*
X138827279Y-92940452D01*
X138814874Y-92956959D01*
X138803461Y-92974220D01*
X138793040Y-92992236D01*
X138783612Y-93011007D01*
X138775176Y-93030533D01*
X138767732Y-93050814D01*
X138761281Y-93071849D01*
X138755822Y-93093639D01*
X138751356Y-93116184D01*
X138747882Y-93139484D01*
X138745401Y-93163539D01*
X138743912Y-93188348D01*
X138743416Y-93213912D01*
X138743989Y-93242166D01*
X138745708Y-93269680D01*
X138748573Y-93296453D01*
X138752584Y-93322485D01*
X138757741Y-93347777D01*
X138764045Y-93372328D01*
X138771494Y-93396138D01*
X138780090Y-93419207D01*
X138789831Y-93441536D01*
X138800719Y-93463123D01*
X138812753Y-93483970D01*
X138825932Y-93504077D01*
X138840258Y-93523442D01*
X138855730Y-93542067D01*
X138872348Y-93559951D01*
X138890112Y-93577094D01*
X138908969Y-93593343D01*
X138928859Y-93608543D01*
X138949784Y-93622695D01*
X138971743Y-93635798D01*
X138994735Y-93647853D01*
X139018762Y-93658860D01*
X139043823Y-93668819D01*
X139069919Y-93677729D01*
X139097048Y-93685591D01*
X139125212Y-93692404D01*
X139154410Y-93698169D01*
X139184642Y-93702886D01*
X139215908Y-93706555D01*
X139248209Y-93709176D01*
X139281544Y-93710748D01*
X139315913Y-93711272D01*
X140285582Y-93711272D01*
X140285582Y-94158538D01*
X138374872Y-94158538D01*
X138374872Y-93732744D01*
X138618178Y-93732744D01*
X138602314Y-93719115D01*
X138586926Y-93705068D01*
X138572013Y-93690602D01*
X138557575Y-93675716D01*
X138543613Y-93660411D01*
X138530126Y-93644686D01*
X138517114Y-93628543D01*
X138504577Y-93611980D01*
X138492515Y-93594997D01*
X138480928Y-93577596D01*
X138469816Y-93559775D01*
X138459180Y-93541535D01*
X138449018Y-93522876D01*
X138439331Y-93503797D01*
X138430118Y-93484299D01*
X138421381Y-93464381D01*
X138413149Y-93444114D01*
X138405448Y-93423568D01*
X138398278Y-93402742D01*
X138391640Y-93381637D01*
X138385532Y-93360252D01*
X138379956Y-93338588D01*
X138374910Y-93316644D01*
X138370396Y-93294420D01*
X138366413Y-93271918D01*
X138362960Y-93249135D01*
X138360039Y-93226073D01*
X138357649Y-93202732D01*
X138355791Y-93179111D01*
X138354463Y-93155211D01*
X138353666Y-93131030D01*
X138353401Y-93106571D01*
X138353715Y-93079924D01*
X138354658Y-93053654D01*
X138356230Y-93027761D01*
X138358430Y-93002246D01*
X138361260Y-92977108D01*
X138364718Y-92952347D01*
X138368806Y-92927964D01*
X138373522Y-92903958D01*
X138378868Y-92880330D01*
X138384843Y-92857079D01*
X138391448Y-92834205D01*
X138398681Y-92811709D01*
X138406545Y-92789590D01*
X138415038Y-92767849D01*
X138424160Y-92746485D01*
X138433913Y-92725499D01*
X138444276Y-92704974D01*
X138455240Y-92684994D01*
X138466806Y-92665559D01*
X138478972Y-92646669D01*
X138491740Y-92628324D01*
X138505110Y-92610524D01*
X138519080Y-92593270D01*
X138533651Y-92576560D01*
X138548824Y-92560395D01*
X138564597Y-92544776D01*
X138580972Y-92529701D01*
X138597947Y-92515172D01*
X138615523Y-92501188D01*
X138633700Y-92487748D01*
X138652478Y-92474854D01*
X138671857Y-92462505D01*
X138653330Y-92447480D01*
X138635320Y-92431924D01*
X138617827Y-92415837D01*
X138600851Y-92399218D01*
X138584392Y-92382069D01*
X138568450Y-92364388D01*
X138553026Y-92346176D01*
X138538118Y-92327433D01*
X138523728Y-92308159D01*
X138509854Y-92288353D01*
X138496498Y-92268017D01*
X138483660Y-92247149D01*
X138471338Y-92225750D01*
X138459534Y-92203820D01*
X138448248Y-92181359D01*
X138437478Y-92158366D01*
X138427296Y-92134955D01*
X138417771Y-92111236D01*
X138408903Y-92087210D01*
X138400693Y-92062876D01*
X138393139Y-92038234D01*
X138386242Y-92013285D01*
X138380002Y-91988028D01*
X138374418Y-91962464D01*
X138369492Y-91936592D01*
X138365223Y-91910413D01*
X138361611Y-91883926D01*
X138358655Y-91857132D01*
X138356356Y-91830030D01*
X138354714Y-91802621D01*
X138353729Y-91774904D01*
X138353401Y-91746880D01*
X138354218Y-91702293D01*
X138356671Y-91658881D01*
X138360760Y-91616642D01*
X138366484Y-91575578D01*
X138373843Y-91535687D01*
X138382837Y-91496971D01*
X138393466Y-91459429D01*
X138405731Y-91423060D01*
X138419631Y-91387866D01*
X138435166Y-91353846D01*
X138452337Y-91320999D01*
X138471142Y-91289327D01*
X138491583Y-91258829D01*
X138513659Y-91229505D01*
X138537370Y-91201355D01*
X138562716Y-91174379D01*
X138589700Y-91148816D01*
X138618319Y-91124901D01*
X138648573Y-91102636D01*
X138680463Y-91082019D01*
X138713988Y-91063052D01*
X138749148Y-91045735D01*
X138785943Y-91030066D01*
X138824373Y-91016047D01*
X138864439Y-91003677D01*
X138906139Y-90992956D01*
X138949474Y-90983885D01*
X138994445Y-90976463D01*
X139041050Y-90970690D01*
X139089290Y-90966567D01*
X139139165Y-90964093D01*
X139190675Y-90963268D01*
X140285582Y-90963268D01*
X140285582Y-91410534D01*
G37*
G36*
X90329376Y-110980626D02*
G01*
X90051563Y-110980626D01*
X90051563Y-110702813D01*
X90329376Y-110702813D01*
X90329376Y-110980626D01*
G37*
G36*
X91162813Y-114592188D02*
G01*
X90885001Y-114592188D01*
X90885001Y-114314376D01*
X91162813Y-114314376D01*
X91162813Y-114592188D01*
G37*
G36*
X92551876Y-115703438D02*
G01*
X92274063Y-115703438D01*
X92274063Y-115425626D01*
X92551876Y-115425626D01*
X92551876Y-115703438D01*
G37*
G36*
X93385313Y-113480938D02*
G01*
X93107501Y-113480938D01*
X93107501Y-113203126D01*
X93385313Y-113203126D01*
X93385313Y-113480938D01*
G37*
G36*
X88106876Y-112647501D02*
G01*
X87829063Y-112647501D01*
X87829063Y-112369688D01*
X88106876Y-112369688D01*
X88106876Y-112647501D01*
G37*
G36*
X92274063Y-115981251D02*
G01*
X91996251Y-115981251D01*
X91996251Y-115703438D01*
X92274063Y-115703438D01*
X92274063Y-115981251D01*
G37*
G36*
X88940313Y-112647501D02*
G01*
X88662501Y-112647501D01*
X88662501Y-112369688D01*
X88940313Y-112369688D01*
X88940313Y-112647501D01*
G37*
G36*
X92551876Y-111258438D02*
G01*
X92274063Y-111258438D01*
X92274063Y-110980626D01*
X92551876Y-110980626D01*
X92551876Y-111258438D01*
G37*
G36*
X90329376Y-109591563D02*
G01*
X90051563Y-109591563D01*
X90051563Y-109313751D01*
X90329376Y-109313751D01*
X90329376Y-109591563D01*
G37*
G36*
X93663126Y-112091876D02*
G01*
X93385313Y-112091876D01*
X93385313Y-111814063D01*
X93663126Y-111814063D01*
X93663126Y-112091876D01*
G37*
G36*
X90329376Y-112091876D02*
G01*
X90051563Y-112091876D01*
X90051563Y-111814063D01*
X90329376Y-111814063D01*
X90329376Y-112091876D01*
G37*
G36*
X91162813Y-110147188D02*
G01*
X90885001Y-110147188D01*
X90885001Y-109869376D01*
X91162813Y-109869376D01*
X91162813Y-110147188D01*
G37*
G36*
X88940313Y-110147188D02*
G01*
X88106876Y-110147188D01*
X88106876Y-109313751D01*
X88940313Y-109313751D01*
X88940313Y-110147188D01*
G37*
G36*
X94496563Y-114592188D02*
G01*
X94218751Y-114592188D01*
X94218751Y-114314376D01*
X94496563Y-114314376D01*
X94496563Y-114592188D01*
G37*
G36*
X90051563Y-116814688D02*
G01*
X89773751Y-116814688D01*
X89773751Y-116536876D01*
X90051563Y-116536876D01*
X90051563Y-116814688D01*
G37*
G36*
X89773751Y-113758751D02*
G01*
X89495938Y-113758751D01*
X89495938Y-113480938D01*
X89773751Y-113480938D01*
X89773751Y-113758751D01*
G37*
G36*
X89773751Y-112091876D02*
G01*
X89495938Y-112091876D01*
X89495938Y-111814063D01*
X89773751Y-111814063D01*
X89773751Y-112091876D01*
G37*
G36*
X95607813Y-110702813D02*
G01*
X93663126Y-110702813D01*
X93663126Y-110411110D01*
X93954829Y-110411110D01*
X95316110Y-110411110D01*
X95316110Y-109049829D01*
X93954829Y-109049829D01*
X93954829Y-110411110D01*
X93663126Y-110411110D01*
X93663126Y-109049829D01*
X93663126Y-108758126D01*
X95607813Y-108758126D01*
X95607813Y-110702813D01*
G37*
G36*
X93940938Y-115147813D02*
G01*
X93663126Y-115147813D01*
X93663126Y-114870001D01*
X93940938Y-114870001D01*
X93940938Y-115147813D01*
G37*
G36*
X92551876Y-114314376D02*
G01*
X92274063Y-114314376D01*
X92274063Y-114036563D01*
X92551876Y-114036563D01*
X92551876Y-114314376D01*
G37*
G36*
X92829688Y-116814688D02*
G01*
X92551876Y-116814688D01*
X92551876Y-116536876D01*
X92829688Y-116536876D01*
X92829688Y-116814688D01*
G37*
G36*
X90607188Y-113480938D02*
G01*
X90329376Y-113480938D01*
X90329376Y-113203126D01*
X90607188Y-113203126D01*
X90607188Y-113480938D01*
G37*
G36*
X134317041Y-38985799D02*
G01*
X133638430Y-38985799D01*
X133240019Y-40001799D01*
X132884419Y-40001799D01*
X133795625Y-37665000D01*
X134317041Y-38985799D01*
G37*
G36*
X93940938Y-114314376D02*
G01*
X93663126Y-114314376D01*
X93663126Y-114036563D01*
X93940938Y-114036563D01*
X93940938Y-114314376D01*
G37*
G36*
X91440626Y-114592188D02*
G01*
X91162813Y-114592188D01*
X91162813Y-114314376D01*
X91440626Y-114314376D01*
X91440626Y-114592188D01*
G37*
G36*
X90885001Y-113758751D02*
G01*
X90607188Y-113758751D01*
X90607188Y-113480938D01*
X90885001Y-113480938D01*
X90885001Y-113758751D01*
G37*
G36*
X90051563Y-116259063D02*
G01*
X89773751Y-116259063D01*
X89773751Y-115981251D01*
X90051563Y-115981251D01*
X90051563Y-116259063D01*
G37*
G36*
X91440626Y-112925314D02*
G01*
X91162813Y-112925314D01*
X91162813Y-112647501D01*
X91440626Y-112647501D01*
X91440626Y-112925314D01*
G37*
G36*
X95607813Y-111258438D02*
G01*
X95330001Y-111258438D01*
X95330001Y-110980626D01*
X95607813Y-110980626D01*
X95607813Y-111258438D01*
G37*
G36*
X94496563Y-115425626D02*
G01*
X94218751Y-115425626D01*
X94218751Y-115147813D01*
X94496563Y-115147813D01*
X94496563Y-115425626D01*
G37*
G36*
X95330001Y-115703438D02*
G01*
X95052188Y-115703438D01*
X95052188Y-115425626D01*
X95330001Y-115425626D01*
X95330001Y-115703438D01*
G37*
G36*
X93940938Y-111536251D02*
G01*
X93663126Y-111536251D01*
X93663126Y-111258438D01*
X93940938Y-111258438D01*
X93940938Y-111536251D01*
G37*
G36*
X91718439Y-109869376D02*
G01*
X91440626Y-109869376D01*
X91440626Y-109591563D01*
X91718439Y-109591563D01*
X91718439Y-109869376D01*
G37*
G36*
X94496563Y-113480938D02*
G01*
X94218751Y-113480938D01*
X94218751Y-113203126D01*
X94496563Y-113203126D01*
X94496563Y-113480938D01*
G37*
G36*
X95052188Y-116259063D02*
G01*
X94774376Y-116259063D01*
X94774376Y-115981251D01*
X95052188Y-115981251D01*
X95052188Y-116259063D01*
G37*
G36*
X94218751Y-115703438D02*
G01*
X93940938Y-115703438D01*
X93940938Y-115425626D01*
X94218751Y-115425626D01*
X94218751Y-115703438D01*
G37*
D11*
G36*
X91893542Y-99667948D02*
G01*
X91943925Y-99668148D01*
X91995831Y-99668674D01*
X92030367Y-99670101D01*
X92081072Y-99677955D01*
X92104402Y-99686261D01*
X92145064Y-99716790D01*
X92157398Y-99741453D01*
X92164115Y-99790551D01*
X92163138Y-99808228D01*
X92148483Y-99855031D01*
X92134874Y-99872875D01*
X92092063Y-99899728D01*
X92052389Y-99911985D01*
X92003403Y-99917313D01*
X92000334Y-99917358D01*
X91949240Y-99917814D01*
X91895783Y-99918000D01*
X91844156Y-99918046D01*
X91824861Y-99918046D01*
X91824861Y-99667941D01*
X91882503Y-99667941D01*
X91893542Y-99667948D01*
G37*
G36*
X91868405Y-99277172D02*
G01*
X91918528Y-99277458D01*
X91970186Y-99278374D01*
X91993245Y-99279716D01*
X92041993Y-99290342D01*
X92051591Y-99294562D01*
X92086934Y-99328688D01*
X92088472Y-99331894D01*
X92099634Y-99379979D01*
X92099366Y-99390239D01*
X92088644Y-99438842D01*
X92081606Y-99450855D01*
X92041993Y-99480119D01*
X92022336Y-99487053D01*
X91972628Y-99494040D01*
X91967060Y-99494277D01*
X91917296Y-99495620D01*
X91866138Y-99495994D01*
X91824861Y-99495994D01*
X91824861Y-99277153D01*
X91849530Y-99277153D01*
X91868405Y-99277172D01*
G37*
G36*
X93166243Y-99714836D02*
G01*
X92914673Y-99714836D01*
X93040458Y-99349449D01*
X93166243Y-99714836D01*
G37*
G36*
X95726133Y-100216736D02*
G01*
X91451189Y-100216736D01*
X91451189Y-99495994D01*
X91562300Y-99495994D01*
X91562300Y-99918046D01*
X91562300Y-100105625D01*
X92009020Y-100105625D01*
X92514359Y-100105625D01*
X92780095Y-100105625D01*
X92850925Y-99902414D01*
X93229990Y-99902414D01*
X93300821Y-100105625D01*
X93573396Y-100105625D01*
X93271316Y-99292784D01*
X93612230Y-99292784D01*
X93931700Y-99292784D01*
X93931700Y-100105625D01*
X94195482Y-100105625D01*
X94195482Y-99746099D01*
X95090877Y-99746099D01*
X95615022Y-99746099D01*
X95615022Y-99558521D01*
X95090877Y-99558521D01*
X95090877Y-99746099D01*
X94195482Y-99746099D01*
X94195482Y-99292784D01*
X94514952Y-99292784D01*
X94514952Y-99089574D01*
X93612230Y-99089574D01*
X93612230Y-99292784D01*
X93271316Y-99292784D01*
X93195796Y-99089574D01*
X92891958Y-99089574D01*
X92659589Y-99714836D01*
X92514359Y-100105625D01*
X92009020Y-100105625D01*
X92042806Y-100105165D01*
X92092945Y-100102521D01*
X92143585Y-100096735D01*
X92192691Y-100086818D01*
X92236836Y-100072407D01*
X92282641Y-100050769D01*
X92325559Y-100023070D01*
X92344370Y-100008104D01*
X92379706Y-99971022D01*
X92407625Y-99927571D01*
X92420768Y-99897774D01*
X92433442Y-99849414D01*
X92437667Y-99796657D01*
X92437149Y-99778089D01*
X92429389Y-99726533D01*
X92409845Y-99676544D01*
X92378804Y-99634236D01*
X92359466Y-99615957D01*
X92314672Y-99585589D01*
X92267383Y-99565314D01*
X92219802Y-99552903D01*
X92219802Y-99547530D01*
X92257369Y-99527699D01*
X92296357Y-99498109D01*
X92330200Y-99459114D01*
X92349208Y-99425731D01*
X92364876Y-99376953D01*
X92369523Y-99327955D01*
X92369076Y-99312121D01*
X92360481Y-99260249D01*
X92340946Y-99213894D01*
X92331353Y-99198812D01*
X92296625Y-99161787D01*
X92253996Y-99134271D01*
X92236411Y-99125976D01*
X92190412Y-99108931D01*
X92140423Y-99097879D01*
X92112144Y-99094643D01*
X92060758Y-99091399D01*
X92010341Y-99089972D01*
X91959439Y-99089574D01*
X91562300Y-99089574D01*
X91562300Y-99495994D01*
X91451189Y-99495994D01*
X91451189Y-98978463D01*
X95726133Y-98978463D01*
X95726133Y-100216736D01*
G37*
G36*
X122850499Y-41147496D02*
G01*
X122899653Y-41149595D01*
X122912716Y-41150711D01*
X122962179Y-41162296D01*
X122980039Y-41170692D01*
X123016401Y-41204306D01*
X123023346Y-41218166D01*
X123032277Y-41267809D01*
X123031669Y-41285275D01*
X123019576Y-41334487D01*
X123014289Y-41343592D01*
X122979276Y-41379672D01*
X122955737Y-41393479D01*
X122907957Y-41407027D01*
X122902564Y-41407737D01*
X122853578Y-41411767D01*
X122802200Y-41412889D01*
X122721111Y-41412889D01*
X122721111Y-41147153D01*
X122816610Y-41147153D01*
X122850499Y-41147496D01*
G37*
G36*
X125459787Y-42102367D02*
G01*
X122347439Y-42102367D01*
X122347439Y-41412889D01*
X122458550Y-41412889D01*
X122458550Y-41975625D01*
X122721111Y-41975625D01*
X122721111Y-41600467D01*
X122842744Y-41600467D01*
X123121670Y-41975625D01*
X123443826Y-41975625D01*
X123199932Y-41662994D01*
X123498292Y-41662994D01*
X123498292Y-41911389D01*
X123524312Y-41921935D01*
X123572651Y-41939445D01*
X123622921Y-41955062D01*
X123675124Y-41968786D01*
X123687066Y-41971507D01*
X123737372Y-41980635D01*
X123791739Y-41986955D01*
X123842641Y-41990181D01*
X123896652Y-41991256D01*
X123937061Y-41990436D01*
X123988428Y-41986791D01*
X124048602Y-41978136D01*
X124104291Y-41964924D01*
X124155496Y-41947157D01*
X124202217Y-41924834D01*
X124244454Y-41897955D01*
X124259981Y-41886073D01*
X124300553Y-41847794D01*
X124332109Y-41805565D01*
X124354649Y-41759386D01*
X124368173Y-41709257D01*
X124372681Y-41655178D01*
X124371807Y-41629655D01*
X124363450Y-41576692D01*
X124346245Y-41529912D01*
X124316750Y-41485185D01*
X124284937Y-41454166D01*
X124239952Y-41423357D01*
X124191790Y-41399604D01*
X124143337Y-41381626D01*
X124132186Y-41378127D01*
X124081964Y-41363728D01*
X124031474Y-41351828D01*
X124021727Y-41349763D01*
X123971831Y-41339309D01*
X123923519Y-41329358D01*
X123902884Y-41324904D01*
X123851284Y-41310857D01*
X123806526Y-41290523D01*
X123791650Y-41276965D01*
X123775752Y-41228974D01*
X123794803Y-41182568D01*
X123798487Y-41178857D01*
X123840965Y-41152282D01*
X123854320Y-41147408D01*
X123903735Y-41135918D01*
X123920115Y-41133994D01*
X123969436Y-41131521D01*
X123998574Y-41132290D01*
X124050540Y-41137552D01*
X124101889Y-41147798D01*
X124152619Y-41163029D01*
X124169181Y-41169026D01*
X124215931Y-41188640D01*
X124262709Y-41213288D01*
X124304049Y-41240942D01*
X124332137Y-41240942D01*
X124332137Y-41162784D01*
X124445954Y-41162784D01*
X124765424Y-41162784D01*
X124765424Y-41975625D01*
X125029206Y-41975625D01*
X125029206Y-41162784D01*
X125348676Y-41162784D01*
X125348676Y-40959574D01*
X124445954Y-40959574D01*
X124445954Y-41162784D01*
X124332137Y-41162784D01*
X124332137Y-41010865D01*
X124313708Y-41003813D01*
X124263996Y-40987517D01*
X124214810Y-40974483D01*
X124161411Y-40962994D01*
X124112028Y-40954659D01*
X124062310Y-40948705D01*
X124012255Y-40945133D01*
X123961865Y-40943943D01*
X123936993Y-40944292D01*
X123877310Y-40948220D01*
X123821192Y-40956514D01*
X123768641Y-40969172D01*
X123719655Y-40986195D01*
X123674235Y-41007583D01*
X123632381Y-41033336D01*
X123616883Y-41044682D01*
X123576389Y-41081161D01*
X123544893Y-41121298D01*
X123522396Y-41165093D01*
X123508897Y-41212546D01*
X123504398Y-41263657D01*
X123505781Y-41295712D01*
X123515244Y-41349175D01*
X123533671Y-41397189D01*
X123561062Y-41439756D01*
X123564675Y-41444154D01*
X123603562Y-41481162D01*
X123647762Y-41510166D01*
X123693875Y-41532539D01*
X123746931Y-41552107D01*
X123768281Y-41558753D01*
X123816481Y-41571622D01*
X123867343Y-41582394D01*
X123891208Y-41586859D01*
X123941384Y-41597004D01*
X123989464Y-41607795D01*
X124029721Y-41620167D01*
X124072751Y-41644920D01*
X124083886Y-41655836D01*
X124101328Y-41702073D01*
X124101022Y-41710716D01*
X124081788Y-41756050D01*
X124075420Y-41761549D01*
X124031963Y-41786092D01*
X124016927Y-41791025D01*
X123967971Y-41799770D01*
X123953849Y-41801098D01*
X123904956Y-41803678D01*
X123863656Y-41801936D01*
X123809457Y-41794579D01*
X123760242Y-41783207D01*
X123710051Y-41767285D01*
X123660698Y-41747120D01*
X123613758Y-41723016D01*
X123569229Y-41694974D01*
X123527113Y-41662994D01*
X123498292Y-41662994D01*
X123199932Y-41662994D01*
X123102374Y-41537941D01*
X123137339Y-41519523D01*
X123179044Y-41492374D01*
X123219246Y-41458291D01*
X123252339Y-41420461D01*
X123272801Y-41387497D01*
X123291724Y-41339311D01*
X123301570Y-41290997D01*
X123304852Y-41237523D01*
X123302730Y-41198459D01*
X123291590Y-41146332D01*
X123270902Y-41101968D01*
X123254904Y-41079311D01*
X123219115Y-41042319D01*
X123179067Y-41014040D01*
X123153772Y-41000238D01*
X123104687Y-40980743D01*
X123056945Y-40969832D01*
X123048693Y-40968590D01*
X122999727Y-40963191D01*
X122949953Y-40960386D01*
X122900874Y-40959574D01*
X122458550Y-40959574D01*
X122458550Y-41412889D01*
X122347439Y-41412889D01*
X122347439Y-40832832D01*
X125459787Y-40832832D01*
X125459787Y-42102367D01*
G37*
D12*
G36*
X48453658Y-40663671D02*
G01*
X48503220Y-40677964D01*
X48546390Y-40701900D01*
X48584065Y-40737071D01*
X48594505Y-40750032D01*
X48620311Y-40792668D01*
X48639752Y-40840630D01*
X48642325Y-40848705D01*
X48653510Y-40896940D01*
X48659320Y-40946399D01*
X48661001Y-40995480D01*
X48659533Y-41041434D01*
X48653750Y-41092929D01*
X48642439Y-41143247D01*
X48634782Y-41166202D01*
X48613421Y-41211932D01*
X48585530Y-41252179D01*
X48548161Y-41287656D01*
X48504930Y-41312507D01*
X48457791Y-41326979D01*
X48408210Y-41331803D01*
X48358568Y-41327040D01*
X48311246Y-41312752D01*
X48268198Y-41288449D01*
X48230890Y-41253645D01*
X48220526Y-41240555D01*
X48194934Y-41197812D01*
X48175691Y-41150086D01*
X48174399Y-41146076D01*
X48162891Y-41098532D01*
X48156737Y-41049850D01*
X48154686Y-40995969D01*
X48154707Y-40990479D01*
X48157226Y-40937861D01*
X48163942Y-40889395D01*
X48176179Y-40840874D01*
X48181812Y-40824541D01*
X48202860Y-40777782D01*
X48232355Y-40735850D01*
X48268716Y-40702709D01*
X48313688Y-40677476D01*
X48359545Y-40664104D01*
X48408210Y-40659646D01*
X48453658Y-40663671D01*
G37*
G36*
X54899832Y-41056677D02*
G01*
X54946347Y-41072905D01*
X54966680Y-41079958D01*
X55012292Y-41097818D01*
X55026259Y-41103798D01*
X55072936Y-41126433D01*
X55113897Y-41154971D01*
X55129869Y-41179082D01*
X55138566Y-41228244D01*
X55138329Y-41236929D01*
X55123423Y-41284908D01*
X55120500Y-41288755D01*
X55083611Y-41321300D01*
X55079554Y-41323757D01*
X55032809Y-41341084D01*
X55030969Y-41341474D01*
X54981273Y-41347434D01*
X54942057Y-41344854D01*
X54890503Y-41331310D01*
X54847673Y-41306157D01*
X54827782Y-41286624D01*
X54803804Y-41243093D01*
X54796626Y-41194538D01*
X54800536Y-41158325D01*
X54820317Y-41110763D01*
X54838910Y-41084316D01*
X54873562Y-41047260D01*
X54899832Y-41056677D01*
G37*
G36*
X54978513Y-40644132D02*
G01*
X55030305Y-40651525D01*
X55077017Y-40674057D01*
X55105943Y-40706782D01*
X55117317Y-40754901D01*
X55116216Y-40777488D01*
X55103395Y-40825731D01*
X55089339Y-40850199D01*
X55058210Y-40890456D01*
X55024630Y-40879877D01*
X54977366Y-40864077D01*
X54971260Y-40861911D01*
X54924853Y-40844294D01*
X54892382Y-40829181D01*
X54849627Y-40800330D01*
X54838528Y-40786574D01*
X54826668Y-40738781D01*
X54839613Y-40697260D01*
X54872585Y-40667462D01*
X54919724Y-40650121D01*
X54921341Y-40649745D01*
X54970283Y-40644015D01*
X54978513Y-40644132D01*
G37*
G36*
X57010484Y-40668737D02*
G01*
X57051608Y-40696011D01*
X57079075Y-40736583D01*
X57081314Y-40741493D01*
X57096667Y-40788128D01*
X57106369Y-40839653D01*
X57111914Y-40891780D01*
X57114579Y-40940834D01*
X57115467Y-40994992D01*
X57114887Y-41038295D01*
X57111842Y-41097340D01*
X57106186Y-41149292D01*
X57096289Y-41200939D01*
X57078343Y-41253156D01*
X57050632Y-41294630D01*
X57009736Y-41322509D01*
X56957931Y-41331803D01*
X56906265Y-41322509D01*
X56865451Y-41294630D01*
X56837763Y-41253156D01*
X56821521Y-41207620D01*
X56811116Y-41157583D01*
X56805025Y-41107122D01*
X56801545Y-41049672D01*
X56800638Y-40996457D01*
X56801527Y-40941877D01*
X56804192Y-40892473D01*
X56809737Y-40840020D01*
X56819439Y-40788244D01*
X56837031Y-40736583D01*
X56864475Y-40696011D01*
X56905517Y-40668737D01*
X56957931Y-40659646D01*
X57010484Y-40668737D01*
G37*
G36*
X47391915Y-41112961D02*
G01*
X47140345Y-41112961D01*
X47266130Y-40747574D01*
X47391915Y-41112961D01*
G37*
G36*
X50996390Y-40675621D02*
G01*
X51045544Y-40677720D01*
X51058607Y-40678836D01*
X51108070Y-40690421D01*
X51125931Y-40698817D01*
X51162292Y-40732431D01*
X51169238Y-40746291D01*
X51178168Y-40795934D01*
X51177560Y-40813400D01*
X51165467Y-40862612D01*
X51160181Y-40871717D01*
X51125167Y-40907797D01*
X51101629Y-40921604D01*
X51053849Y-40935152D01*
X51048455Y-40935862D01*
X50999469Y-40939892D01*
X50948091Y-40941014D01*
X50867003Y-40941014D01*
X50867003Y-40675278D01*
X50962502Y-40675278D01*
X50996390Y-40675621D01*
G37*
G36*
X56016375Y-41081698D02*
G01*
X55718887Y-41081698D01*
X56016375Y-40712158D01*
X56016375Y-41081698D01*
G37*
G36*
X57506204Y-41644381D02*
G01*
X44782233Y-41644381D01*
X44782233Y-41503750D01*
X44907233Y-41503750D01*
X45198370Y-41503750D01*
X45423074Y-41169381D01*
X45643381Y-41503750D01*
X45948440Y-41503750D01*
X45585740Y-40981803D01*
X45807413Y-40675278D01*
X46043939Y-40675278D01*
X46211490Y-40675278D01*
X46211490Y-41316171D01*
X46043939Y-41316171D01*
X46043939Y-41503750D01*
X46642823Y-41503750D01*
X46740031Y-41503750D01*
X47005768Y-41503750D01*
X47076598Y-41300539D01*
X47455663Y-41300539D01*
X47526493Y-41503750D01*
X47799068Y-41503750D01*
X47610359Y-40995969D01*
X47880645Y-40995969D01*
X47882832Y-41054564D01*
X47889392Y-41110061D01*
X47900326Y-41162458D01*
X47915633Y-41211757D01*
X47935314Y-41257957D01*
X47959368Y-41301058D01*
X47987796Y-41341061D01*
X48020597Y-41377964D01*
X48057309Y-41411109D01*
X48097350Y-41439834D01*
X48140718Y-41464140D01*
X48187414Y-41484027D01*
X48237438Y-41499494D01*
X48290790Y-41510543D01*
X48347470Y-41517171D01*
X48407477Y-41519381D01*
X48467653Y-41517171D01*
X48524470Y-41510543D01*
X48577928Y-41499494D01*
X48628029Y-41484027D01*
X48674771Y-41464140D01*
X48718154Y-41439834D01*
X48758179Y-41411109D01*
X48794846Y-41377964D01*
X48827705Y-41341061D01*
X48856182Y-41301058D01*
X48880278Y-41257957D01*
X48899993Y-41211757D01*
X48915327Y-41162458D01*
X48926280Y-41110061D01*
X48932851Y-41054564D01*
X48935042Y-40995969D01*
X48932840Y-40936984D01*
X48926234Y-40881174D01*
X48915224Y-40828540D01*
X48899810Y-40779081D01*
X48882136Y-40737804D01*
X49594253Y-40737804D01*
X49594253Y-41503750D01*
X49841671Y-41503750D01*
X49841671Y-40955913D01*
X49871255Y-40939632D01*
X49916898Y-40920742D01*
X49936330Y-40915429D01*
X49985286Y-40909751D01*
X50010278Y-40910678D01*
X50059047Y-40921475D01*
X50063925Y-40923793D01*
X50099347Y-40958599D01*
X50107144Y-40978555D01*
X50115712Y-41027232D01*
X50119218Y-41070791D01*
X50120597Y-41120288D01*
X50120597Y-41503750D01*
X50369236Y-41503750D01*
X50369236Y-40998655D01*
X50368615Y-40971997D01*
X50365509Y-40941014D01*
X50604442Y-40941014D01*
X50604442Y-41503750D01*
X50867003Y-41503750D01*
X50867003Y-41128592D01*
X50988636Y-41128592D01*
X51267561Y-41503750D01*
X51589717Y-41503750D01*
X51699627Y-41503750D01*
X51962188Y-41503750D01*
X51962188Y-41238013D01*
X52592334Y-41238013D01*
X52592334Y-41459053D01*
X52632802Y-41474179D01*
X52680659Y-41488323D01*
X52730576Y-41500330D01*
X52781400Y-41509243D01*
X52831638Y-41514830D01*
X52886638Y-41518219D01*
X52938671Y-41519381D01*
X52977248Y-41518514D01*
X53026172Y-41514659D01*
X53077783Y-41506637D01*
X53125761Y-41494713D01*
X53135945Y-41491526D01*
X53184665Y-41472502D01*
X53229712Y-41448325D01*
X53271085Y-41418997D01*
X53304005Y-41387193D01*
X53334102Y-41347856D01*
X53345138Y-41327406D01*
X53601301Y-41327406D01*
X53601301Y-41503750D01*
X54404372Y-41503750D01*
X54404372Y-41300539D01*
X53944951Y-41300539D01*
X53952233Y-41295391D01*
X53992655Y-41265868D01*
X54034832Y-41234350D01*
X54042737Y-41228391D01*
X54045736Y-41226045D01*
X54536752Y-41226045D01*
X54537141Y-41241246D01*
X54544634Y-41292463D01*
X54561664Y-41340595D01*
X54570188Y-41356830D01*
X54601096Y-41398798D01*
X54639089Y-41433163D01*
X54678846Y-41458960D01*
X54725241Y-41480600D01*
X54773179Y-41496666D01*
X54810198Y-41505517D01*
X54862327Y-41513702D01*
X54912947Y-41517961D01*
X54967596Y-41519381D01*
X55028612Y-41517312D01*
X55085419Y-41511104D01*
X55138016Y-41500759D01*
X55186403Y-41486275D01*
X55238911Y-41463431D01*
X55285356Y-41434629D01*
X55312490Y-41412685D01*
X55351268Y-41370647D01*
X55378968Y-41323981D01*
X55395587Y-41272687D01*
X55401127Y-41216764D01*
X55400926Y-41205411D01*
X55393880Y-41151506D01*
X55376768Y-41102371D01*
X55359915Y-41074859D01*
X55521050Y-41074859D01*
X55521050Y-41081698D01*
X55521050Y-41269276D01*
X56016375Y-41269276D01*
X56016375Y-41503750D01*
X56268433Y-41503750D01*
X56268433Y-41269276D01*
X56407896Y-41269276D01*
X56407896Y-41081698D01*
X56268433Y-41081698D01*
X56268433Y-40995724D01*
X56534902Y-40995724D01*
X56534906Y-40996457D01*
X56534991Y-41011489D01*
X56536699Y-41064905D01*
X56540581Y-41115587D01*
X56547679Y-41170160D01*
X56557617Y-41221161D01*
X56563734Y-41245207D01*
X56580708Y-41295656D01*
X56602125Y-41341043D01*
X56631134Y-41385536D01*
X56637514Y-41393684D01*
X56673048Y-41430645D01*
X56714641Y-41461308D01*
X56762292Y-41485676D01*
X56799381Y-41498809D01*
X56851807Y-41510955D01*
X56902885Y-41517274D01*
X56958175Y-41519381D01*
X57000650Y-41518205D01*
X57053224Y-41512976D01*
X57106822Y-41502095D01*
X57154546Y-41485920D01*
X57164387Y-41481612D01*
X57210211Y-41456324D01*
X57250406Y-41424788D01*
X57284972Y-41387001D01*
X57299822Y-41366045D01*
X57325658Y-41318838D01*
X57344506Y-41270314D01*
X57357756Y-41222382D01*
X57361947Y-41203326D01*
X57371106Y-41150222D01*
X57376716Y-41101026D01*
X57380082Y-41049283D01*
X57381204Y-40994992D01*
X57381115Y-40979233D01*
X57379407Y-40925927D01*
X57375525Y-40875496D01*
X57368427Y-40821381D01*
X57358489Y-40771021D01*
X57352383Y-40747261D01*
X57335519Y-40697316D01*
X57314327Y-40652241D01*
X57285705Y-40607867D01*
X57279241Y-40599541D01*
X57243516Y-40561865D01*
X57202114Y-40530772D01*
X57155035Y-40506262D01*
X57112872Y-40491302D01*
X57059820Y-40479581D01*
X57007666Y-40473704D01*
X56958175Y-40472068D01*
X56916976Y-40473235D01*
X56865517Y-40478426D01*
X56812370Y-40489228D01*
X56764246Y-40505285D01*
X56754257Y-40509536D01*
X56707803Y-40534685D01*
X56667169Y-40566323D01*
X56632355Y-40604447D01*
X56617147Y-40626088D01*
X56593139Y-40668708D01*
X56573458Y-40716042D01*
X56558105Y-40768090D01*
X56553959Y-40786484D01*
X56544895Y-40838515D01*
X56539343Y-40887599D01*
X56536013Y-40940002D01*
X56534902Y-40995724D01*
X56268433Y-40995724D01*
X56268433Y-40487699D01*
X56000010Y-40487699D01*
X55521050Y-41074859D01*
X55359915Y-41074859D01*
X55349592Y-41058006D01*
X55324380Y-41029846D01*
X55284135Y-40997556D01*
X55240965Y-40972552D01*
X55190834Y-40951028D01*
X55190834Y-40946876D01*
X55202338Y-40941956D01*
X55249432Y-40918186D01*
X55292785Y-40888648D01*
X55329564Y-40852354D01*
X55349439Y-40823426D01*
X55368604Y-40776429D01*
X55374993Y-40725103D01*
X55374888Y-40717958D01*
X55366492Y-40664046D01*
X55344663Y-40615903D01*
X55309400Y-40573531D01*
X55267526Y-40541188D01*
X55231933Y-40521276D01*
X55183917Y-40501836D01*
X55130113Y-40487255D01*
X55080855Y-40478818D01*
X55027578Y-40473755D01*
X54970283Y-40472068D01*
X54926216Y-40473255D01*
X54874105Y-40478076D01*
X54825299Y-40486607D01*
X54771091Y-40501739D01*
X54721640Y-40522213D01*
X54676947Y-40548027D01*
X54656825Y-40562650D01*
X54617570Y-40599724D01*
X54589091Y-40640935D01*
X54569739Y-40693100D01*
X54564824Y-40738781D01*
X54564351Y-40743177D01*
X54568430Y-40791668D01*
X54582338Y-40840655D01*
X54606116Y-40885082D01*
X54611553Y-40892634D01*
X54648069Y-40931268D01*
X54690984Y-40962132D01*
X54737519Y-40986443D01*
X54737519Y-40990595D01*
X54704542Y-41004615D01*
X54658425Y-41028536D01*
X54616325Y-41057636D01*
X54581692Y-41092689D01*
X54559968Y-41126739D01*
X54542062Y-41176347D01*
X54540118Y-41194538D01*
X54536752Y-41226045D01*
X54045736Y-41226045D01*
X54082174Y-41197541D01*
X54121467Y-41164926D01*
X54160618Y-41130546D01*
X54172874Y-41119241D01*
X54212614Y-41080001D01*
X54247446Y-41041276D01*
X54281243Y-40997648D01*
X54308629Y-40954692D01*
X54322561Y-40927751D01*
X54341687Y-40878116D01*
X54353163Y-40827012D01*
X54356989Y-40774440D01*
X54354520Y-40730859D01*
X54345040Y-40682797D01*
X54324995Y-40632563D01*
X54295272Y-40588617D01*
X54255872Y-40550958D01*
X54222119Y-40528231D01*
X54175729Y-40506043D01*
X54122915Y-40489402D01*
X54073997Y-40479772D01*
X54020619Y-40473994D01*
X53962781Y-40472068D01*
X53932943Y-40472598D01*
X53879266Y-40476228D01*
X53825627Y-40483297D01*
X53772027Y-40493805D01*
X53727407Y-40504674D01*
X53675476Y-40519619D01*
X53628168Y-40537281D01*
X53628168Y-40769067D01*
X53650150Y-40769067D01*
X53688504Y-40744853D01*
X53732897Y-40721523D01*
X53779599Y-40701656D01*
X53809844Y-40691378D01*
X53860225Y-40679631D01*
X53912711Y-40675278D01*
X53947790Y-40677043D01*
X53999115Y-40688280D01*
X54042160Y-40712158D01*
X54055107Y-40724371D01*
X54079683Y-40766686D01*
X54087100Y-40816694D01*
X54086242Y-40834291D01*
X54074701Y-40884006D01*
X54051929Y-40930756D01*
X54039840Y-40949258D01*
X54008613Y-40989195D01*
X53972474Y-41028483D01*
X53933960Y-41066066D01*
X53903811Y-41093467D01*
X53864384Y-41127322D01*
X53824438Y-41160108D01*
X53785705Y-41190874D01*
X53762628Y-41208822D01*
X53722261Y-41239625D01*
X53681918Y-41269657D01*
X53641598Y-41298917D01*
X53601301Y-41327406D01*
X53345138Y-41327406D01*
X53357791Y-41303959D01*
X53373634Y-41260906D01*
X53384283Y-41211069D01*
X53387833Y-41158634D01*
X53387799Y-41152895D01*
X53383677Y-41098856D01*
X53372686Y-41050923D01*
X53352662Y-41005250D01*
X53333474Y-40976231D01*
X53298223Y-40938369D01*
X53255209Y-40907308D01*
X53233294Y-40895509D01*
X53188004Y-40876759D01*
X53140904Y-40863101D01*
X53093234Y-40854062D01*
X53041234Y-40848775D01*
X52990206Y-40847225D01*
X52982230Y-40847255D01*
X52932564Y-40848446D01*
X52928548Y-40848569D01*
X52878831Y-40850644D01*
X52878831Y-40690909D01*
X53358280Y-40690909D01*
X53358280Y-40487699D01*
X52630925Y-40487699D01*
X52630925Y-41066066D01*
X52661211Y-41066066D01*
X52710363Y-41055098D01*
X52760373Y-41045306D01*
X52778206Y-41042280D01*
X52829470Y-41036537D01*
X52878831Y-41034803D01*
X52923894Y-41036513D01*
X52973597Y-41041642D01*
X53016433Y-41050431D01*
X53062990Y-41069974D01*
X53069195Y-41073848D01*
X53104511Y-41109297D01*
X53109990Y-41118708D01*
X53120631Y-41167427D01*
X53120211Y-41182932D01*
X53108664Y-41231663D01*
X53106319Y-41235551D01*
X53073248Y-41272696D01*
X53040927Y-41292495D01*
X52993137Y-41306890D01*
X52950301Y-41313234D01*
X52899347Y-41316171D01*
X52854678Y-41314000D01*
X52805321Y-41306599D01*
X52755733Y-41293945D01*
X52711631Y-41278828D01*
X52665267Y-41259719D01*
X52621155Y-41238013D01*
X52592334Y-41238013D01*
X51962188Y-41238013D01*
X51962188Y-41081698D01*
X52398405Y-41081698D01*
X52398405Y-40878488D01*
X51962188Y-40878488D01*
X51962188Y-40690909D01*
X52432599Y-40690909D01*
X52432599Y-40487699D01*
X51699627Y-40487699D01*
X51699627Y-41503750D01*
X51589717Y-41503750D01*
X51248266Y-41066066D01*
X51283231Y-41047648D01*
X51324935Y-41020499D01*
X51365138Y-40986416D01*
X51398231Y-40948586D01*
X51418692Y-40915622D01*
X51437615Y-40867436D01*
X51447461Y-40819122D01*
X51450743Y-40765648D01*
X51448621Y-40726584D01*
X51437482Y-40674457D01*
X51416793Y-40630093D01*
X51400795Y-40607436D01*
X51365006Y-40570444D01*
X51324958Y-40542165D01*
X51299663Y-40528363D01*
X51250578Y-40508868D01*
X51202837Y-40497957D01*
X51194585Y-40496715D01*
X51145619Y-40491316D01*
X51095845Y-40488511D01*
X51046765Y-40487699D01*
X50604442Y-40487699D01*
X50604442Y-40941014D01*
X50365509Y-40941014D01*
X50363652Y-40922492D01*
X50351589Y-40871161D01*
X50329531Y-40820969D01*
X50298650Y-40779814D01*
X50294200Y-40775306D01*
X50254774Y-40744394D01*
X50208540Y-40722641D01*
X50155497Y-40710047D01*
X50103500Y-40706541D01*
X50067214Y-40708266D01*
X50015935Y-40717322D01*
X49968433Y-40734140D01*
X49926016Y-40755972D01*
X49882386Y-40783518D01*
X49841671Y-40813519D01*
X49841671Y-40737804D01*
X49594253Y-40737804D01*
X48882136Y-40737804D01*
X48879992Y-40732797D01*
X48855770Y-40689688D01*
X48827144Y-40649754D01*
X48794114Y-40612996D01*
X48757298Y-40579966D01*
X48717192Y-40551340D01*
X48673797Y-40527118D01*
X48627113Y-40507300D01*
X48577138Y-40491886D01*
X48523874Y-40480876D01*
X48467321Y-40474270D01*
X48407477Y-40472068D01*
X48347470Y-40474270D01*
X48290790Y-40480876D01*
X48237438Y-40491886D01*
X48187414Y-40507300D01*
X48140718Y-40527118D01*
X48097350Y-40551340D01*
X48057309Y-40579966D01*
X48020597Y-40612996D01*
X47987796Y-40649754D01*
X47959368Y-40689688D01*
X47935314Y-40732797D01*
X47915633Y-40779081D01*
X47900326Y-40828540D01*
X47889392Y-40881174D01*
X47882832Y-40936984D01*
X47880645Y-40995969D01*
X47610359Y-40995969D01*
X47421469Y-40487699D01*
X47117631Y-40487699D01*
X46885262Y-41112961D01*
X46740031Y-41503750D01*
X46642823Y-41503750D01*
X46642823Y-41316171D01*
X46475272Y-41316171D01*
X46475272Y-40675278D01*
X46642823Y-40675278D01*
X46642823Y-40487699D01*
X46043939Y-40487699D01*
X46043939Y-40675278D01*
X45807413Y-40675278D01*
X45943067Y-40487699D01*
X45650952Y-40487699D01*
X45431867Y-40804238D01*
X45218887Y-40487699D01*
X44914560Y-40487699D01*
X45269934Y-40992061D01*
X44907233Y-41503750D01*
X44782233Y-41503750D01*
X44782233Y-40347068D01*
X57506204Y-40347068D01*
X57506204Y-41644381D01*
G37*
D11*
G36*
X65445417Y-104688573D02*
G01*
X65495800Y-104688773D01*
X65547706Y-104689299D01*
X65582242Y-104690726D01*
X65632947Y-104698580D01*
X65656277Y-104706886D01*
X65696939Y-104737415D01*
X65709273Y-104762078D01*
X65715990Y-104811176D01*
X65715013Y-104828853D01*
X65700358Y-104875656D01*
X65686749Y-104893500D01*
X65643938Y-104920353D01*
X65604264Y-104932610D01*
X65555278Y-104937938D01*
X65552209Y-104937983D01*
X65501115Y-104938439D01*
X65447658Y-104938625D01*
X65396031Y-104938671D01*
X65376736Y-104938671D01*
X65376736Y-104688566D01*
X65434378Y-104688566D01*
X65445417Y-104688573D01*
G37*
G36*
X65420280Y-104297797D02*
G01*
X65470403Y-104298083D01*
X65522061Y-104298999D01*
X65545120Y-104300341D01*
X65593868Y-104310967D01*
X65603466Y-104315187D01*
X65638809Y-104349313D01*
X65640347Y-104352519D01*
X65651509Y-104400604D01*
X65651241Y-104410864D01*
X65640519Y-104459467D01*
X65633481Y-104471480D01*
X65593868Y-104500744D01*
X65574211Y-104507678D01*
X65524503Y-104514665D01*
X65518935Y-104514902D01*
X65469171Y-104516245D01*
X65418013Y-104516619D01*
X65376736Y-104516619D01*
X65376736Y-104297778D01*
X65401405Y-104297778D01*
X65420280Y-104297797D01*
G37*
G36*
X66718118Y-104735461D02*
G01*
X66466548Y-104735461D01*
X66592333Y-104370074D01*
X66718118Y-104735461D01*
G37*
G36*
X70521895Y-104298121D02*
G01*
X70571049Y-104300220D01*
X70584112Y-104301336D01*
X70633575Y-104312921D01*
X70651435Y-104321317D01*
X70687797Y-104354931D01*
X70694743Y-104368791D01*
X70703673Y-104418434D01*
X70703065Y-104435900D01*
X70690972Y-104485112D01*
X70685686Y-104494217D01*
X70650672Y-104530297D01*
X70627133Y-104544104D01*
X70579353Y-104557652D01*
X70573960Y-104558362D01*
X70524974Y-104562392D01*
X70473596Y-104563514D01*
X70392507Y-104563514D01*
X70392507Y-104297778D01*
X70488006Y-104297778D01*
X70521895Y-104298121D01*
G37*
G36*
X72236277Y-105237361D02*
G01*
X65003064Y-105237361D01*
X65003064Y-104516619D01*
X65114175Y-104516619D01*
X65114175Y-104938671D01*
X65114175Y-105126250D01*
X65560895Y-105126250D01*
X66066234Y-105126250D01*
X66331970Y-105126250D01*
X66402800Y-104923039D01*
X66781865Y-104923039D01*
X66852696Y-105126250D01*
X67125271Y-105126250D01*
X66823191Y-104313409D01*
X67164105Y-104313409D01*
X67483575Y-104313409D01*
X67483575Y-105126250D01*
X67747357Y-105126250D01*
X67747357Y-104313409D01*
X68066827Y-104313409D01*
X68117629Y-104313409D01*
X68437099Y-104313409D01*
X68437099Y-105126250D01*
X68700881Y-105126250D01*
X69173491Y-105126250D01*
X69913303Y-105126250D01*
X69913303Y-104923039D01*
X69436052Y-104923039D01*
X69436052Y-104688566D01*
X69879109Y-104688566D01*
X69879109Y-104563514D01*
X70129946Y-104563514D01*
X70129946Y-105126250D01*
X70392507Y-105126250D01*
X70392507Y-104751092D01*
X70514140Y-104751092D01*
X70793066Y-105126250D01*
X71115222Y-105126250D01*
X70773770Y-104688566D01*
X70808735Y-104670148D01*
X70850440Y-104642999D01*
X70890643Y-104608916D01*
X70923736Y-104571086D01*
X70944197Y-104538122D01*
X70963120Y-104489936D01*
X70972966Y-104441622D01*
X70976248Y-104388148D01*
X70974126Y-104349084D01*
X70962986Y-104296957D01*
X70942298Y-104252593D01*
X70926300Y-104229936D01*
X70890511Y-104192944D01*
X70850463Y-104164665D01*
X70825168Y-104150863D01*
X70776083Y-104131368D01*
X70728341Y-104120457D01*
X70720089Y-104119215D01*
X70671123Y-104113816D01*
X70621349Y-104111011D01*
X70572270Y-104110199D01*
X71100812Y-104110199D01*
X71484273Y-104745475D01*
X71484273Y-105126250D01*
X71748055Y-105126250D01*
X71748055Y-104733263D01*
X72125166Y-104110199D01*
X71835250Y-104110199D01*
X71621537Y-104503186D01*
X71400253Y-104110199D01*
X71100812Y-104110199D01*
X70572270Y-104110199D01*
X70129946Y-104110199D01*
X70129946Y-104563514D01*
X69879109Y-104563514D01*
X69879109Y-104485356D01*
X69436052Y-104485356D01*
X69436052Y-104313409D01*
X69913303Y-104313409D01*
X69913303Y-104110199D01*
X69173491Y-104110199D01*
X69173491Y-105126250D01*
X68700881Y-105126250D01*
X68700881Y-104313409D01*
X69020351Y-104313409D01*
X69020351Y-104110199D01*
X68117629Y-104110199D01*
X68117629Y-104313409D01*
X68066827Y-104313409D01*
X68066827Y-104110199D01*
X67164105Y-104110199D01*
X67164105Y-104313409D01*
X66823191Y-104313409D01*
X66747671Y-104110199D01*
X66443833Y-104110199D01*
X66211464Y-104735461D01*
X66066234Y-105126250D01*
X65560895Y-105126250D01*
X65594681Y-105125790D01*
X65644820Y-105123146D01*
X65695460Y-105117360D01*
X65744566Y-105107443D01*
X65788711Y-105093032D01*
X65834516Y-105071394D01*
X65877434Y-105043695D01*
X65896245Y-105028729D01*
X65931581Y-104991647D01*
X65959500Y-104948196D01*
X65972643Y-104918399D01*
X65985317Y-104870039D01*
X65989542Y-104817282D01*
X65989024Y-104798714D01*
X65981264Y-104747158D01*
X65961720Y-104697169D01*
X65930679Y-104654861D01*
X65911341Y-104636582D01*
X65866547Y-104606214D01*
X65819258Y-104585939D01*
X65771677Y-104573528D01*
X65771677Y-104568155D01*
X65809244Y-104548324D01*
X65848232Y-104518734D01*
X65882075Y-104479739D01*
X65901083Y-104446356D01*
X65916751Y-104397578D01*
X65921398Y-104348580D01*
X65920951Y-104332746D01*
X65912356Y-104280874D01*
X65892821Y-104234519D01*
X65883228Y-104219437D01*
X65848500Y-104182412D01*
X65805871Y-104154896D01*
X65788286Y-104146601D01*
X65742287Y-104129556D01*
X65692298Y-104118504D01*
X65664019Y-104115268D01*
X65612633Y-104112024D01*
X65562216Y-104110597D01*
X65511314Y-104110199D01*
X65114175Y-104110199D01*
X65114175Y-104516619D01*
X65003064Y-104516619D01*
X65003064Y-103999088D01*
X72236277Y-103999088D01*
X72236277Y-105237361D01*
G37*
G36*
X91893542Y-96617948D02*
G01*
X91943925Y-96618148D01*
X91995831Y-96618674D01*
X92030367Y-96620101D01*
X92081072Y-96627955D01*
X92104402Y-96636261D01*
X92145064Y-96666790D01*
X92157398Y-96691453D01*
X92164115Y-96740551D01*
X92163138Y-96758228D01*
X92148483Y-96805031D01*
X92134874Y-96822875D01*
X92092063Y-96849728D01*
X92052389Y-96861985D01*
X92003403Y-96867313D01*
X92000334Y-96867358D01*
X91949240Y-96867814D01*
X91895783Y-96868000D01*
X91844156Y-96868046D01*
X91824861Y-96868046D01*
X91824861Y-96617941D01*
X91882503Y-96617941D01*
X91893542Y-96617948D01*
G37*
G36*
X91868405Y-96227172D02*
G01*
X91918528Y-96227458D01*
X91970186Y-96228374D01*
X91993245Y-96229716D01*
X92041993Y-96240342D01*
X92051591Y-96244562D01*
X92086934Y-96278688D01*
X92088472Y-96281894D01*
X92099634Y-96329979D01*
X92099366Y-96340239D01*
X92088644Y-96388842D01*
X92081606Y-96400855D01*
X92041993Y-96430119D01*
X92022336Y-96437053D01*
X91972628Y-96444040D01*
X91967060Y-96444277D01*
X91917296Y-96445620D01*
X91866138Y-96445994D01*
X91824861Y-96445994D01*
X91824861Y-96227153D01*
X91849530Y-96227153D01*
X91868405Y-96227172D01*
G37*
G36*
X93166243Y-96664836D02*
G01*
X92914673Y-96664836D01*
X93040458Y-96299449D01*
X93166243Y-96664836D01*
G37*
G36*
X96196789Y-97166736D02*
G01*
X91451189Y-97166736D01*
X91451189Y-96445994D01*
X91562300Y-96445994D01*
X91562300Y-96868046D01*
X91562300Y-97055625D01*
X92009020Y-97055625D01*
X92514359Y-97055625D01*
X92780095Y-97055625D01*
X92850925Y-96852414D01*
X93229990Y-96852414D01*
X93300821Y-97055625D01*
X93573396Y-97055625D01*
X93271316Y-96242784D01*
X93612230Y-96242784D01*
X93931700Y-96242784D01*
X93931700Y-97055625D01*
X94195482Y-97055625D01*
X94195482Y-96508521D01*
X95165126Y-96508521D01*
X95165126Y-96696099D01*
X95531246Y-96696099D01*
X95531246Y-97055625D01*
X95719558Y-97055625D01*
X95719558Y-96696099D01*
X96085678Y-96696099D01*
X96085678Y-96508521D01*
X95719558Y-96508521D01*
X95719558Y-96148995D01*
X95531246Y-96148995D01*
X95531246Y-96508521D01*
X95165126Y-96508521D01*
X94195482Y-96508521D01*
X94195482Y-96242784D01*
X94514952Y-96242784D01*
X94514952Y-96039574D01*
X93612230Y-96039574D01*
X93612230Y-96242784D01*
X93271316Y-96242784D01*
X93195796Y-96039574D01*
X92891958Y-96039574D01*
X92659589Y-96664836D01*
X92514359Y-97055625D01*
X92009020Y-97055625D01*
X92042806Y-97055165D01*
X92092945Y-97052521D01*
X92143585Y-97046735D01*
X92192691Y-97036818D01*
X92236836Y-97022407D01*
X92282641Y-97000769D01*
X92325559Y-96973070D01*
X92344370Y-96958104D01*
X92379706Y-96921022D01*
X92407625Y-96877571D01*
X92420768Y-96847774D01*
X92433442Y-96799414D01*
X92437667Y-96746657D01*
X92437149Y-96728089D01*
X92429389Y-96676533D01*
X92409845Y-96626544D01*
X92378804Y-96584236D01*
X92359466Y-96565957D01*
X92314672Y-96535589D01*
X92267383Y-96515314D01*
X92219802Y-96502903D01*
X92219802Y-96497530D01*
X92257369Y-96477699D01*
X92296357Y-96448109D01*
X92330200Y-96409114D01*
X92349208Y-96375731D01*
X92364876Y-96326953D01*
X92369523Y-96277955D01*
X92369076Y-96262121D01*
X92360481Y-96210249D01*
X92340946Y-96163894D01*
X92331353Y-96148812D01*
X92296625Y-96111787D01*
X92253996Y-96084271D01*
X92236411Y-96075976D01*
X92190412Y-96058931D01*
X92140423Y-96047879D01*
X92112144Y-96044643D01*
X92060758Y-96041399D01*
X92010341Y-96039972D01*
X91959439Y-96039574D01*
X91562300Y-96039574D01*
X91562300Y-96445994D01*
X91451189Y-96445994D01*
X91451189Y-95928463D01*
X96196789Y-95928463D01*
X96196789Y-97166736D01*
G37*
%TO.C,SWL5*%
X121015625Y-48850000D02*
X121015625Y-47850000D01*
X121015625Y-61850000D02*
X121015625Y-60850000D01*
X121015625Y-61850000D02*
X122015625Y-61850000D01*
X122015625Y-47850000D02*
X121015625Y-47850000D01*
X134015625Y-61850000D02*
X135015625Y-61850000D01*
X135015625Y-47850000D02*
X134015625Y-47850000D01*
X135015625Y-47850000D02*
X135015625Y-48850000D01*
X135015625Y-60850000D02*
X135015625Y-61850000D01*
%TO.C,SWL13*%
X83015625Y-75925000D02*
X83015625Y-74925000D01*
X83015625Y-88925000D02*
X83015625Y-87925000D01*
X83015625Y-88925000D02*
X84015625Y-88925000D01*
X84015625Y-74925000D02*
X83015625Y-74925000D01*
X96015625Y-88925000D02*
X97015625Y-88925000D01*
X97015625Y-74925000D02*
X96015625Y-74925000D01*
X97015625Y-74925000D02*
X97015625Y-75925000D01*
X97015625Y-87925000D02*
X97015625Y-88925000D01*
%TO.C,SWL9*%
X102015625Y-63100000D02*
X102015625Y-62100000D01*
X102015625Y-76100000D02*
X102015625Y-75100000D01*
X102015625Y-76100000D02*
X103015625Y-76100000D01*
X103015625Y-62100000D02*
X102015625Y-62100000D01*
X115015625Y-76100000D02*
X116015625Y-76100000D01*
X116015625Y-62100000D02*
X115015625Y-62100000D01*
X116015625Y-62100000D02*
X116015625Y-63100000D01*
X116015625Y-75100000D02*
X116015625Y-76100000D01*
%TO.C,SWL18*%
X145378447Y-115028848D02*
X145878447Y-114162822D01*
X138878447Y-126287178D02*
X139378447Y-125421152D01*
X138878447Y-126287178D02*
X139744473Y-126787178D01*
X146744473Y-114662822D02*
X145878447Y-114162822D01*
X150136777Y-132787178D02*
X151002803Y-133287178D01*
X158002803Y-121162822D02*
X157136777Y-120662822D01*
X158002803Y-121162822D02*
X157502803Y-122028848D01*
X151502803Y-132421152D02*
X151002803Y-133287178D01*
%TO.C,SWL1*%
X45015625Y-59775000D02*
X45015625Y-58775000D01*
X45015625Y-72775000D02*
X45015625Y-71775000D01*
X45015625Y-72775000D02*
X46015625Y-72775000D01*
X46015625Y-58775000D02*
X45015625Y-58775000D01*
X58015625Y-72775000D02*
X59015625Y-72775000D01*
X59015625Y-58775000D02*
X58015625Y-58775000D01*
X59015625Y-58775000D02*
X59015625Y-59775000D01*
X59015625Y-71775000D02*
X59015625Y-72775000D01*
%TO.C,SWL17*%
X124232058Y-108042712D02*
X124490878Y-107076786D01*
X120867411Y-120599747D02*
X121126230Y-119633822D01*
X120867411Y-120599747D02*
X121833337Y-120858567D01*
X125456803Y-107335605D02*
X124490878Y-107076786D01*
X133424447Y-123964395D02*
X134390372Y-124223214D01*
X138013839Y-110700253D02*
X137047913Y-110441433D01*
X138013839Y-110700253D02*
X137755020Y-111666178D01*
X134649192Y-123257288D02*
X134390372Y-124223214D01*
%TO.C,SWL7*%
X64015625Y-63100000D02*
X64015625Y-62100000D01*
X64015625Y-76100000D02*
X64015625Y-75100000D01*
X64015625Y-76100000D02*
X65015625Y-76100000D01*
X65015625Y-62100000D02*
X64015625Y-62100000D01*
X77015625Y-76100000D02*
X78015625Y-76100000D01*
X78015625Y-62100000D02*
X77015625Y-62100000D01*
X78015625Y-62100000D02*
X78015625Y-63100000D01*
X78015625Y-75100000D02*
X78015625Y-76100000D01*
%TO.C,SWL15*%
X121015625Y-86850000D02*
X121015625Y-85850000D01*
X121015625Y-99850000D02*
X121015625Y-98850000D01*
X121015625Y-99850000D02*
X122015625Y-99850000D01*
X122015625Y-85850000D02*
X121015625Y-85850000D01*
X134015625Y-99850000D02*
X135015625Y-99850000D01*
X135015625Y-85850000D02*
X134015625Y-85850000D01*
X135015625Y-85850000D02*
X135015625Y-86850000D01*
X135015625Y-98850000D02*
X135015625Y-99850000D01*
D13*
%TO.C,J1*%
X83380625Y-102135000D02*
X83380625Y-101115000D01*
X87630625Y-102135000D02*
X83380625Y-102135000D01*
X83380625Y-101115000D02*
X84980625Y-101115000D01*
X84980625Y-101115000D02*
X84980625Y-99835000D01*
X91200625Y-100415000D02*
X91200625Y-95735000D01*
X84980625Y-99835000D02*
X82090625Y-99835000D01*
X83380625Y-95035000D02*
X84980625Y-95035000D01*
X84980625Y-95035000D02*
X84980625Y-96315000D01*
X83380625Y-94015000D02*
X83380625Y-95035000D01*
X87630625Y-94015000D02*
X83380625Y-94015000D01*
D11*
%TO.C,SWL4*%
X102015625Y-44100000D02*
X102015625Y-43100000D01*
X102015625Y-57100000D02*
X102015625Y-56100000D01*
X102015625Y-57100000D02*
X103015625Y-57100000D01*
X103015625Y-43100000D02*
X102015625Y-43100000D01*
X115015625Y-57100000D02*
X116015625Y-57100000D01*
X116015625Y-43100000D02*
X115015625Y-43100000D01*
X116015625Y-43100000D02*
X116015625Y-44100000D01*
X116015625Y-56100000D02*
X116015625Y-57100000D01*
%TO.C,SWL14*%
X102015625Y-82100000D02*
X102015625Y-81100000D01*
X102015625Y-95100000D02*
X102015625Y-94100000D01*
X102015625Y-95100000D02*
X103015625Y-95100000D01*
X103015625Y-81100000D02*
X102015625Y-81100000D01*
X115015625Y-95100000D02*
X116015625Y-95100000D01*
X116015625Y-81100000D02*
X115015625Y-81100000D01*
X116015625Y-81100000D02*
X116015625Y-82100000D01*
X116015625Y-94100000D02*
X116015625Y-95100000D01*
%TO.C,SWL8*%
X83015625Y-56925000D02*
X83015625Y-55925000D01*
X83015625Y-69925000D02*
X83015625Y-68925000D01*
X83015625Y-69925000D02*
X84015625Y-69925000D01*
X84015625Y-55925000D02*
X83015625Y-55925000D01*
X96015625Y-69925000D02*
X97015625Y-69925000D01*
X97015625Y-55925000D02*
X96015625Y-55925000D01*
X97015625Y-55925000D02*
X97015625Y-56925000D01*
X97015625Y-68925000D02*
X97015625Y-69925000D01*
%TO.C,SWL10*%
X121015625Y-67850000D02*
X121015625Y-66850000D01*
X121015625Y-80850000D02*
X121015625Y-79850000D01*
X121015625Y-80850000D02*
X122015625Y-80850000D01*
X122015625Y-66850000D02*
X121015625Y-66850000D01*
X134015625Y-80850000D02*
X135015625Y-80850000D01*
X135015625Y-66850000D02*
X134015625Y-66850000D01*
X135015625Y-66850000D02*
X135015625Y-67850000D01*
X135015625Y-79850000D02*
X135015625Y-80850000D01*
%TO.C,SWL11*%
X45015625Y-97775000D02*
X45015625Y-96775000D01*
X45015625Y-110775000D02*
X45015625Y-109775000D01*
X45015625Y-110775000D02*
X46015625Y-110775000D01*
X46015625Y-96775000D02*
X45015625Y-96775000D01*
X58015625Y-110775000D02*
X59015625Y-110775000D01*
X59015625Y-96775000D02*
X58015625Y-96775000D01*
X59015625Y-96775000D02*
X59015625Y-97775000D01*
X59015625Y-109775000D02*
X59015625Y-110775000D01*
%TO.C,SWL3*%
X83015625Y-37925000D02*
X83015625Y-36925000D01*
X83015625Y-50925000D02*
X83015625Y-49925000D01*
X83015625Y-50925000D02*
X84015625Y-50925000D01*
X84015625Y-36925000D02*
X83015625Y-36925000D01*
X96015625Y-50925000D02*
X97015625Y-50925000D01*
X97015625Y-36925000D02*
X96015625Y-36925000D01*
X97015625Y-36925000D02*
X97015625Y-37925000D01*
X97015625Y-49925000D02*
X97015625Y-50925000D01*
%TO.C,SWL6*%
X45015625Y-78775000D02*
X45015625Y-77775000D01*
X45015625Y-91775000D02*
X45015625Y-90775000D01*
X45015625Y-91775000D02*
X46015625Y-91775000D01*
X46015625Y-77775000D02*
X45015625Y-77775000D01*
X58015625Y-91775000D02*
X59015625Y-91775000D01*
X59015625Y-77775000D02*
X58015625Y-77775000D01*
X59015625Y-77775000D02*
X59015625Y-78775000D01*
X59015625Y-90775000D02*
X59015625Y-91775000D01*
D13*
%TO.C,RSW1*%
X119840625Y-36330000D02*
X127640625Y-36330000D01*
X119840625Y-40010000D02*
X119840625Y-36330000D01*
X121490625Y-40630000D02*
X125990625Y-40630000D01*
X122490625Y-35080000D02*
X124990625Y-35080000D01*
X122490625Y-36330000D02*
X122490625Y-35080000D01*
X124990625Y-36330000D02*
X124990625Y-35080000D01*
X127640625Y-40010000D02*
X127640625Y-36330000D01*
D11*
%TO.C,SWL12*%
X64015625Y-82100000D02*
X64015625Y-81100000D01*
X64015625Y-95100000D02*
X64015625Y-94100000D01*
X64015625Y-95100000D02*
X65015625Y-95100000D01*
X65015625Y-81100000D02*
X64015625Y-81100000D01*
X77015625Y-95100000D02*
X78015625Y-95100000D01*
X78015625Y-81100000D02*
X77015625Y-81100000D01*
X78015625Y-81100000D02*
X78015625Y-82100000D01*
X78015625Y-94100000D02*
X78015625Y-95100000D01*
%TO.C,SWL2*%
X64015625Y-44100000D02*
X64015625Y-43100000D01*
X64015625Y-57100000D02*
X64015625Y-56100000D01*
X64015625Y-57100000D02*
X65015625Y-57100000D01*
X65015625Y-43100000D02*
X64015625Y-43100000D01*
X77015625Y-57100000D02*
X78015625Y-57100000D01*
X78015625Y-43100000D02*
X77015625Y-43100000D01*
X78015625Y-43100000D02*
X78015625Y-44100000D01*
X78015625Y-56100000D02*
X78015625Y-57100000D01*
%TO.C,SWL16*%
X102015625Y-106800000D02*
X102015625Y-105800000D01*
X102015625Y-119800000D02*
X102015625Y-118800000D01*
X102015625Y-119800000D02*
X103015625Y-119800000D01*
X103015625Y-105800000D02*
X102015625Y-105800000D01*
X115015625Y-119800000D02*
X116015625Y-119800000D01*
X116015625Y-105800000D02*
X115015625Y-105800000D01*
X116015625Y-105800000D02*
X116015625Y-106800000D01*
X116015625Y-118800000D02*
X116015625Y-119800000D01*
%TD*%
%LPC*%
D14*
%TO.C,SWL5*%
X122515625Y-54850000D03*
D15*
X123015625Y-58600000D03*
D16*
X128015625Y-54850000D03*
D15*
X128015625Y-60800000D03*
D14*
X133515625Y-54850000D03*
%TD*%
%TO.C,SWL13*%
X84515625Y-81925000D03*
D15*
X85015625Y-85675000D03*
D16*
X90015625Y-81925000D03*
D15*
X90015625Y-87875000D03*
D14*
X95515625Y-81925000D03*
%TD*%
%TO.C,SWL9*%
X103515625Y-69100000D03*
D15*
X104015625Y-72850000D03*
D16*
X109015625Y-69100000D03*
D15*
X109015625Y-75050000D03*
D14*
X114515625Y-69100000D03*
%TD*%
%TO.C,SWL18*%
X143677485Y-120975000D03*
D15*
X142235498Y-124472595D03*
D16*
X148440625Y-123725000D03*
D15*
X145465625Y-128877851D03*
D14*
X153203765Y-126475000D03*
%TD*%
%TO.C,SWL1*%
X46515625Y-65775000D03*
D15*
X47015625Y-69525000D03*
D16*
X52015625Y-65775000D03*
D15*
X52015625Y-71725000D03*
D14*
X57515625Y-65775000D03*
%TD*%
%TO.C,SWL17*%
X124128033Y-114226495D03*
D15*
X123640424Y-117978127D03*
D16*
X129440625Y-115650000D03*
D15*
X127900652Y-121397259D03*
D14*
X134753217Y-117073505D03*
%TD*%
%TO.C,SWL7*%
X65515625Y-69100000D03*
D15*
X66015625Y-72850000D03*
D16*
X71015625Y-69100000D03*
D15*
X71015625Y-75050000D03*
D14*
X76515625Y-69100000D03*
%TD*%
%TO.C,SWL15*%
X122515625Y-92850000D03*
D15*
X123015625Y-96600000D03*
D16*
X128015625Y-92850000D03*
D15*
X128015625Y-98800000D03*
D14*
X133515625Y-92850000D03*
%TD*%
D17*
%TO.C,J1*%
X83840625Y-99075000D03*
X83840625Y-97075000D03*
D18*
X89590625Y-101425000D03*
X89590625Y-94725000D03*
%TD*%
D14*
%TO.C,SWL4*%
X103515625Y-50100000D03*
D15*
X104015625Y-53850000D03*
D16*
X109015625Y-50100000D03*
D15*
X109015625Y-56050000D03*
D14*
X114515625Y-50100000D03*
%TD*%
%TO.C,SWL14*%
X103515625Y-88100000D03*
D15*
X104015625Y-91850000D03*
D16*
X109015625Y-88100000D03*
D15*
X109015625Y-94050000D03*
D14*
X114515625Y-88100000D03*
%TD*%
%TO.C,SWL8*%
X84515625Y-62925000D03*
D15*
X85015625Y-66675000D03*
D16*
X90015625Y-62925000D03*
D15*
X90015625Y-68875000D03*
D14*
X95515625Y-62925000D03*
%TD*%
%TO.C,SWL10*%
X122515625Y-73850000D03*
D15*
X123015625Y-77600000D03*
D16*
X128015625Y-73850000D03*
D15*
X128015625Y-79800000D03*
D14*
X133515625Y-73850000D03*
%TD*%
%TO.C,SWL11*%
X46515625Y-103775000D03*
D15*
X47015625Y-107525000D03*
D16*
X52015625Y-103775000D03*
D15*
X52015625Y-109725000D03*
D14*
X57515625Y-103775000D03*
%TD*%
%TO.C,SWL3*%
X84515625Y-43925000D03*
D15*
X85015625Y-47675000D03*
D16*
X90015625Y-43925000D03*
D15*
X90015625Y-49875000D03*
D14*
X95515625Y-43925000D03*
%TD*%
%TO.C,SWL6*%
X46515625Y-84775000D03*
D15*
X47015625Y-88525000D03*
D16*
X52015625Y-84775000D03*
D15*
X52015625Y-90725000D03*
D14*
X57515625Y-84775000D03*
%TD*%
D19*
%TO.C,RSW1*%
X120240625Y-41330000D03*
X127240625Y-41330000D03*
%TD*%
D20*
%TO.C,REF\u002A\u002A*%
X139512297Y-103739073D03*
%TD*%
D21*
%TO.C,U1*%
X40595625Y-53920000D03*
X43135625Y-53920000D03*
X45675625Y-53920000D03*
X48215625Y-53920000D03*
X50755625Y-53920000D03*
X53295625Y-53920000D03*
X55835625Y-53920000D03*
X55835625Y-37730000D03*
X53295625Y-37730000D03*
X50755625Y-37730000D03*
X48215625Y-37730000D03*
X45675625Y-37730000D03*
X43135625Y-37730000D03*
X40595625Y-37730000D03*
D22*
X39643625Y-47095000D03*
X39643625Y-44555000D03*
X42183625Y-47095000D03*
X42183625Y-44555000D03*
X47898625Y-50270000D03*
X45993625Y-50270000D03*
%TD*%
D20*
%TO.C,REF\u002A\u002A*%
X40522298Y-115278567D03*
%TD*%
%TO.C,REF\u002A\u002A*%
X139512298Y-38603567D03*
%TD*%
D14*
%TO.C,SWL12*%
X65515625Y-88100000D03*
D15*
X66015625Y-91850000D03*
D16*
X71015625Y-88100000D03*
D15*
X71015625Y-94050000D03*
D14*
X76515625Y-88100000D03*
%TD*%
%TO.C,SWL2*%
X65515625Y-50100000D03*
D15*
X66015625Y-53850000D03*
D16*
X71015625Y-50100000D03*
D15*
X71015625Y-56050000D03*
D14*
X76515625Y-50100000D03*
%TD*%
D20*
%TO.C,REF\u002A\u002A*%
X62262298Y-38603567D03*
%TD*%
D14*
%TO.C,SWL16*%
X103515625Y-112800000D03*
D15*
X104015625Y-116550000D03*
D16*
X109015625Y-112800000D03*
D15*
X109015625Y-118750000D03*
D14*
X114515625Y-112800000D03*
%TD*%
%LPD*%
M02*
